<?xml version="1.0" encoding="utf-8" standalone="no"?>
<!DOCTYPE svg PUBLIC "-//W3C//DTD SVG 1.1//EN"
  "http://www.w3.org/Graphics/SVG/1.1/DTD/svg11.dtd">
<svg height="222.954375pt" version="1.1" viewBox="0 0 384.192188 222.954375" width="384.192188pt" xmlns="http://www.w3.org/2000/svg" xmlns:xlink="http://www.w3.org/1999/xlink">
 <metadata>
  <rdf:RDF xmlns:cc="http://creativecommons.org/ns#" xmlns:dc="http://purl.org/dc/elements/1.1/" xmlns:rdf="http://www.w3.org/1999/02/22-rdf-syntax-ns#">
   <cc:Work>
    <dc:type rdf:resource="http://purl.org/dc/dcmitype/StillImage"/>
    <dc:date>2021-09-16T14:41:55.917189</dc:date>
    <dc:format>image/svg+xml</dc:format>
    <dc:creator>
     <cc:Agent>
      <dc:title>Matplotlib v3.4.3, https://matplotlib.org/</dc:title>
     </cc:Agent>
    </dc:creator>
   </cc:Work>
  </rdf:RDF>
 </metadata>
 <defs>
  <style type="text/css">*{stroke-linecap:butt;stroke-linejoin:round;}</style>
 </defs>
 <g id="figure_1">
  <g id="patch_1">
   <path d="M 0 222.954375 
L 384.192188 222.954375 
L 384.192188 0 
L 0 0 
z
" style="fill:#ffffff;"/>
  </g>
  <g id="axes_1">
   <g id="patch_2">
    <path d="M 34.240625 185.398125 
L 369.040625 185.398125 
L 369.040625 22.318125 
L 34.240625 22.318125 
z
" style="fill:#ffffff;"/>
   </g>
   <g id="matplotlib.axis_1">
    <g id="xtick_1">
     <g id="text_1">
      <!-- -4.0 -->
      <g style="fill:#262626;" transform="translate(24.485156 199.996562)scale(0.1 -0.1)">
       <defs>
        <path d="M 313 2009 
L 1997 2009 
L 1997 1497 
L 313 1497 
L 313 2009 
z
" id="DejaVuSans-2d" transform="scale(0.015625)"/>
        <path d="M 2419 4116 
L 825 1625 
L 2419 1625 
L 2419 4116 
z
M 2253 4666 
L 3047 4666 
L 3047 1625 
L 3713 1625 
L 3713 1100 
L 3047 1100 
L 3047 0 
L 2419 0 
L 2419 1100 
L 313 1100 
L 313 1709 
L 2253 4666 
z
" id="DejaVuSans-34" transform="scale(0.015625)"/>
        <path d="M 684 794 
L 1344 794 
L 1344 0 
L 684 0 
L 684 794 
z
" id="DejaVuSans-2e" transform="scale(0.015625)"/>
        <path d="M 2034 4250 
Q 1547 4250 1301 3770 
Q 1056 3291 1056 2328 
Q 1056 1369 1301 889 
Q 1547 409 2034 409 
Q 2525 409 2770 889 
Q 3016 1369 3016 2328 
Q 3016 3291 2770 3770 
Q 2525 4250 2034 4250 
z
M 2034 4750 
Q 2819 4750 3233 4129 
Q 3647 3509 3647 2328 
Q 3647 1150 3233 529 
Q 2819 -91 2034 -91 
Q 1250 -91 836 529 
Q 422 1150 422 2328 
Q 422 3509 836 4129 
Q 1250 4750 2034 4750 
z
" id="DejaVuSans-30" transform="scale(0.015625)"/>
       </defs>
       <use xlink:href="#DejaVuSans-2d"/>
       <use x="36.083984" xlink:href="#DejaVuSans-34"/>
       <use x="99.707031" xlink:href="#DejaVuSans-2e"/>
       <use x="131.494141" xlink:href="#DejaVuSans-30"/>
      </g>
     </g>
    </g>
    <g id="xtick_2">
     <g id="text_2">
      <!-- -1.9 -->
      <g style="fill:#262626;" transform="translate(110.804052 199.996562)scale(0.1 -0.1)">
       <defs>
        <path d="M 794 531 
L 1825 531 
L 1825 4091 
L 703 3866 
L 703 4441 
L 1819 4666 
L 2450 4666 
L 2450 531 
L 3481 531 
L 3481 0 
L 794 0 
L 794 531 
z
" id="DejaVuSans-31" transform="scale(0.015625)"/>
        <path d="M 703 97 
L 703 672 
Q 941 559 1184 500 
Q 1428 441 1663 441 
Q 2288 441 2617 861 
Q 2947 1281 2994 2138 
Q 2813 1869 2534 1725 
Q 2256 1581 1919 1581 
Q 1219 1581 811 2004 
Q 403 2428 403 3163 
Q 403 3881 828 4315 
Q 1253 4750 1959 4750 
Q 2769 4750 3195 4129 
Q 3622 3509 3622 2328 
Q 3622 1225 3098 567 
Q 2575 -91 1691 -91 
Q 1453 -91 1209 -44 
Q 966 3 703 97 
z
M 1959 2075 
Q 2384 2075 2632 2365 
Q 2881 2656 2881 3163 
Q 2881 3666 2632 3958 
Q 2384 4250 1959 4250 
Q 1534 4250 1286 3958 
Q 1038 3666 1038 3163 
Q 1038 2656 1286 2365 
Q 1534 2075 1959 2075 
z
" id="DejaVuSans-39" transform="scale(0.015625)"/>
       </defs>
       <use xlink:href="#DejaVuSans-2d"/>
       <use x="36.083984" xlink:href="#DejaVuSans-31"/>
       <use x="99.707031" xlink:href="#DejaVuSans-2e"/>
       <use x="131.494141" xlink:href="#DejaVuSans-39"/>
      </g>
     </g>
    </g>
    <g id="xtick_3">
     <g id="text_3">
      <!-- -1.1 -->
      <g style="fill:#262626;" transform="translate(146.421075 199.996562)scale(0.1 -0.1)">
       <use xlink:href="#DejaVuSans-2d"/>
       <use x="36.083984" xlink:href="#DejaVuSans-31"/>
       <use x="99.707031" xlink:href="#DejaVuSans-2e"/>
       <use x="131.494141" xlink:href="#DejaVuSans-31"/>
      </g>
     </g>
    </g>
    <g id="xtick_4">
     <g id="text_4">
      <!-- -0.5 -->
      <g style="fill:#262626;" transform="translate(170.724456 199.996562)scale(0.1 -0.1)">
       <defs>
        <path d="M 691 4666 
L 3169 4666 
L 3169 4134 
L 1269 4134 
L 1269 2991 
Q 1406 3038 1543 3061 
Q 1681 3084 1819 3084 
Q 2600 3084 3056 2656 
Q 3513 2228 3513 1497 
Q 3513 744 3044 326 
Q 2575 -91 1722 -91 
Q 1428 -91 1123 -41 
Q 819 9 494 109 
L 494 744 
Q 775 591 1075 516 
Q 1375 441 1709 441 
Q 2250 441 2565 725 
Q 2881 1009 2881 1497 
Q 2881 1984 2565 2268 
Q 2250 2553 1709 2553 
Q 1456 2553 1204 2497 
Q 953 2441 691 2322 
L 691 4666 
z
" id="DejaVuSans-35" transform="scale(0.015625)"/>
       </defs>
       <use xlink:href="#DejaVuSans-2d"/>
       <use x="36.083984" xlink:href="#DejaVuSans-30"/>
       <use x="99.707031" xlink:href="#DejaVuSans-2e"/>
       <use x="131.494141" xlink:href="#DejaVuSans-35"/>
      </g>
     </g>
    </g>
    <g id="xtick_5">
     <g id="text_5">
      <!-- 0.0 -->
      <g style="fill:#262626;" transform="translate(193.898574 199.996562)scale(0.1 -0.1)">
       <use xlink:href="#DejaVuSans-30"/>
       <use x="63.623047" xlink:href="#DejaVuSans-2e"/>
       <use x="95.410156" xlink:href="#DejaVuSans-30"/>
      </g>
     </g>
    </g>
    <g id="xtick_6">
     <g id="text_6">
      <!-- 0.5 -->
      <g style="fill:#262626;" transform="translate(215.68781 199.996562)scale(0.1 -0.1)">
       <use xlink:href="#DejaVuSans-30"/>
       <use x="63.623047" xlink:href="#DejaVuSans-2e"/>
       <use x="95.410156" xlink:href="#DejaVuSans-35"/>
      </g>
     </g>
    </g>
    <g id="xtick_7">
     <g id="text_7">
      <!-- 1.1 -->
      <g style="fill:#262626;" transform="translate(239.991186 199.996562)scale(0.1 -0.1)">
       <use xlink:href="#DejaVuSans-31"/>
       <use x="63.623047" xlink:href="#DejaVuSans-2e"/>
       <use x="95.410156" xlink:href="#DejaVuSans-31"/>
      </g>
     </g>
    </g>
    <g id="xtick_8">
     <g id="text_8">
      <!-- 1.9 -->
      <g style="fill:#262626;" transform="translate(275.608208 199.996562)scale(0.1 -0.1)">
       <use xlink:href="#DejaVuSans-31"/>
       <use x="63.623047" xlink:href="#DejaVuSans-2e"/>
       <use x="95.410156" xlink:href="#DejaVuSans-39"/>
      </g>
     </g>
    </g>
    <g id="xtick_9">
     <g id="text_9">
      <!-- 4.0 -->
      <g style="fill:#262626;" transform="translate(361.089063 199.996562)scale(0.1 -0.1)">
       <use xlink:href="#DejaVuSans-34"/>
       <use x="63.623047" xlink:href="#DejaVuSans-2e"/>
       <use x="95.410156" xlink:href="#DejaVuSans-30"/>
      </g>
     </g>
    </g>
    <g id="text_10">
     <!-- z -->
     <g style="fill:#262626;" transform="translate(199.016406 213.674688)scale(0.1 -0.1)">
      <defs>
       <path d="M 353 3500 
L 3084 3500 
L 3084 2975 
L 922 459 
L 3084 459 
L 3084 0 
L 275 0 
L 275 525 
L 2438 3041 
L 353 3041 
L 353 3500 
z
" id="DejaVuSans-7a" transform="scale(0.015625)"/>
      </defs>
      <use xlink:href="#DejaVuSans-7a"/>
     </g>
    </g>
   </g>
   <g id="matplotlib.axis_2">
    <g id="ytick_1">
     <g id="text_11">
      <!-- 0 -->
      <g style="fill:#262626;" transform="translate(20.878125 189.197344)scale(0.1 -0.1)">
       <use xlink:href="#DejaVuSans-30"/>
      </g>
     </g>
    </g>
    <g id="ytick_2">
     <g id="text_12">
      <!-- 1 -->
      <g style="fill:#262626;" transform="translate(20.878125 164.431029)scale(0.1 -0.1)">
       <use xlink:href="#DejaVuSans-31"/>
      </g>
     </g>
    </g>
    <g id="ytick_3">
     <g id="text_13">
      <!-- 2 -->
      <g style="fill:#262626;" transform="translate(20.878125 139.664714)scale(0.1 -0.1)">
       <defs>
        <path d="M 1228 531 
L 3431 531 
L 3431 0 
L 469 0 
L 469 531 
Q 828 903 1448 1529 
Q 2069 2156 2228 2338 
Q 2531 2678 2651 2914 
Q 2772 3150 2772 3378 
Q 2772 3750 2511 3984 
Q 2250 4219 1831 4219 
Q 1534 4219 1204 4116 
Q 875 4013 500 3803 
L 500 4441 
Q 881 4594 1212 4672 
Q 1544 4750 1819 4750 
Q 2544 4750 2975 4387 
Q 3406 4025 3406 3419 
Q 3406 3131 3298 2873 
Q 3191 2616 2906 2266 
Q 2828 2175 2409 1742 
Q 1991 1309 1228 531 
z
" id="DejaVuSans-32" transform="scale(0.015625)"/>
       </defs>
       <use xlink:href="#DejaVuSans-32"/>
      </g>
     </g>
    </g>
    <g id="ytick_4">
     <g id="text_14">
      <!-- 3 -->
      <g style="fill:#262626;" transform="translate(20.878125 114.898399)scale(0.1 -0.1)">
       <defs>
        <path d="M 2597 2516 
Q 3050 2419 3304 2112 
Q 3559 1806 3559 1356 
Q 3559 666 3084 287 
Q 2609 -91 1734 -91 
Q 1441 -91 1130 -33 
Q 819 25 488 141 
L 488 750 
Q 750 597 1062 519 
Q 1375 441 1716 441 
Q 2309 441 2620 675 
Q 2931 909 2931 1356 
Q 2931 1769 2642 2001 
Q 2353 2234 1838 2234 
L 1294 2234 
L 1294 2753 
L 1863 2753 
Q 2328 2753 2575 2939 
Q 2822 3125 2822 3475 
Q 2822 3834 2567 4026 
Q 2313 4219 1838 4219 
Q 1578 4219 1281 4162 
Q 984 4106 628 3988 
L 628 4550 
Q 988 4650 1302 4700 
Q 1616 4750 1894 4750 
Q 2613 4750 3031 4423 
Q 3450 4097 3450 3541 
Q 3450 3153 3228 2886 
Q 3006 2619 2597 2516 
z
" id="DejaVuSans-33" transform="scale(0.015625)"/>
       </defs>
       <use xlink:href="#DejaVuSans-33"/>
      </g>
     </g>
    </g>
    <g id="ytick_5">
     <g id="text_15">
      <!-- 4 -->
      <g style="fill:#262626;" transform="translate(20.878125 90.132084)scale(0.1 -0.1)">
       <use xlink:href="#DejaVuSans-34"/>
      </g>
     </g>
    </g>
    <g id="ytick_6">
     <g id="text_16">
      <!-- 5 -->
      <g style="fill:#262626;" transform="translate(20.878125 65.365769)scale(0.1 -0.1)">
       <use xlink:href="#DejaVuSans-35"/>
      </g>
     </g>
    </g>
    <g id="ytick_7">
     <g id="text_17">
      <!-- 6 -->
      <g style="fill:#262626;" transform="translate(20.878125 40.599454)scale(0.1 -0.1)">
       <defs>
        <path d="M 2113 2584 
Q 1688 2584 1439 2293 
Q 1191 2003 1191 1497 
Q 1191 994 1439 701 
Q 1688 409 2113 409 
Q 2538 409 2786 701 
Q 3034 994 3034 1497 
Q 3034 2003 2786 2293 
Q 2538 2584 2113 2584 
z
M 3366 4563 
L 3366 3988 
Q 3128 4100 2886 4159 
Q 2644 4219 2406 4219 
Q 1781 4219 1451 3797 
Q 1122 3375 1075 2522 
Q 1259 2794 1537 2939 
Q 1816 3084 2150 3084 
Q 2853 3084 3261 2657 
Q 3669 2231 3669 1497 
Q 3669 778 3244 343 
Q 2819 -91 2113 -91 
Q 1303 -91 875 529 
Q 447 1150 447 2328 
Q 447 3434 972 4092 
Q 1497 4750 2381 4750 
Q 2619 4750 2861 4703 
Q 3103 4656 3366 4563 
z
" id="DejaVuSans-36" transform="scale(0.015625)"/>
       </defs>
       <use xlink:href="#DejaVuSans-36"/>
      </g>
     </g>
    </g>
    <g id="text_18">
     <!-- Probability -->
     <g style="fill:#262626;" transform="translate(14.798437 130.287031)rotate(-90)scale(0.1 -0.1)">
      <defs>
       <path d="M 1259 4147 
L 1259 2394 
L 2053 2394 
Q 2494 2394 2734 2622 
Q 2975 2850 2975 3272 
Q 2975 3691 2734 3919 
Q 2494 4147 2053 4147 
L 1259 4147 
z
M 628 4666 
L 2053 4666 
Q 2838 4666 3239 4311 
Q 3641 3956 3641 3272 
Q 3641 2581 3239 2228 
Q 2838 1875 2053 1875 
L 1259 1875 
L 1259 0 
L 628 0 
L 628 4666 
z
" id="DejaVuSans-50" transform="scale(0.015625)"/>
       <path d="M 2631 2963 
Q 2534 3019 2420 3045 
Q 2306 3072 2169 3072 
Q 1681 3072 1420 2755 
Q 1159 2438 1159 1844 
L 1159 0 
L 581 0 
L 581 3500 
L 1159 3500 
L 1159 2956 
Q 1341 3275 1631 3429 
Q 1922 3584 2338 3584 
Q 2397 3584 2469 3576 
Q 2541 3569 2628 3553 
L 2631 2963 
z
" id="DejaVuSans-72" transform="scale(0.015625)"/>
       <path d="M 1959 3097 
Q 1497 3097 1228 2736 
Q 959 2375 959 1747 
Q 959 1119 1226 758 
Q 1494 397 1959 397 
Q 2419 397 2687 759 
Q 2956 1122 2956 1747 
Q 2956 2369 2687 2733 
Q 2419 3097 1959 3097 
z
M 1959 3584 
Q 2709 3584 3137 3096 
Q 3566 2609 3566 1747 
Q 3566 888 3137 398 
Q 2709 -91 1959 -91 
Q 1206 -91 779 398 
Q 353 888 353 1747 
Q 353 2609 779 3096 
Q 1206 3584 1959 3584 
z
" id="DejaVuSans-6f" transform="scale(0.015625)"/>
       <path d="M 3116 1747 
Q 3116 2381 2855 2742 
Q 2594 3103 2138 3103 
Q 1681 3103 1420 2742 
Q 1159 2381 1159 1747 
Q 1159 1113 1420 752 
Q 1681 391 2138 391 
Q 2594 391 2855 752 
Q 3116 1113 3116 1747 
z
M 1159 2969 
Q 1341 3281 1617 3432 
Q 1894 3584 2278 3584 
Q 2916 3584 3314 3078 
Q 3713 2572 3713 1747 
Q 3713 922 3314 415 
Q 2916 -91 2278 -91 
Q 1894 -91 1617 61 
Q 1341 213 1159 525 
L 1159 0 
L 581 0 
L 581 4863 
L 1159 4863 
L 1159 2969 
z
" id="DejaVuSans-62" transform="scale(0.015625)"/>
       <path d="M 2194 1759 
Q 1497 1759 1228 1600 
Q 959 1441 959 1056 
Q 959 750 1161 570 
Q 1363 391 1709 391 
Q 2188 391 2477 730 
Q 2766 1069 2766 1631 
L 2766 1759 
L 2194 1759 
z
M 3341 1997 
L 3341 0 
L 2766 0 
L 2766 531 
Q 2569 213 2275 61 
Q 1981 -91 1556 -91 
Q 1019 -91 701 211 
Q 384 513 384 1019 
Q 384 1609 779 1909 
Q 1175 2209 1959 2209 
L 2766 2209 
L 2766 2266 
Q 2766 2663 2505 2880 
Q 2244 3097 1772 3097 
Q 1472 3097 1187 3025 
Q 903 2953 641 2809 
L 641 3341 
Q 956 3463 1253 3523 
Q 1550 3584 1831 3584 
Q 2591 3584 2966 3190 
Q 3341 2797 3341 1997 
z
" id="DejaVuSans-61" transform="scale(0.015625)"/>
       <path d="M 603 3500 
L 1178 3500 
L 1178 0 
L 603 0 
L 603 3500 
z
M 603 4863 
L 1178 4863 
L 1178 4134 
L 603 4134 
L 603 4863 
z
" id="DejaVuSans-69" transform="scale(0.015625)"/>
       <path d="M 603 4863 
L 1178 4863 
L 1178 0 
L 603 0 
L 603 4863 
z
" id="DejaVuSans-6c" transform="scale(0.015625)"/>
       <path d="M 1172 4494 
L 1172 3500 
L 2356 3500 
L 2356 3053 
L 1172 3053 
L 1172 1153 
Q 1172 725 1289 603 
Q 1406 481 1766 481 
L 2356 481 
L 2356 0 
L 1766 0 
Q 1100 0 847 248 
Q 594 497 594 1153 
L 594 3053 
L 172 3053 
L 172 3500 
L 594 3500 
L 594 4494 
L 1172 4494 
z
" id="DejaVuSans-74" transform="scale(0.015625)"/>
       <path d="M 2059 -325 
Q 1816 -950 1584 -1140 
Q 1353 -1331 966 -1331 
L 506 -1331 
L 506 -850 
L 844 -850 
Q 1081 -850 1212 -737 
Q 1344 -625 1503 -206 
L 1606 56 
L 191 3500 
L 800 3500 
L 1894 763 
L 2988 3500 
L 3597 3500 
L 2059 -325 
z
" id="DejaVuSans-79" transform="scale(0.015625)"/>
      </defs>
      <use xlink:href="#DejaVuSans-50"/>
      <use x="58.552734" xlink:href="#DejaVuSans-72"/>
      <use x="97.416016" xlink:href="#DejaVuSans-6f"/>
      <use x="158.597656" xlink:href="#DejaVuSans-62"/>
      <use x="222.074219" xlink:href="#DejaVuSans-61"/>
      <use x="283.353516" xlink:href="#DejaVuSans-62"/>
      <use x="346.830078" xlink:href="#DejaVuSans-69"/>
      <use x="374.613281" xlink:href="#DejaVuSans-6c"/>
      <use x="402.396484" xlink:href="#DejaVuSans-69"/>
      <use x="430.179688" xlink:href="#DejaVuSans-74"/>
      <use x="469.388672" xlink:href="#DejaVuSans-79"/>
     </g>
    </g>
   </g>
   <g id="PolyCollection_1">
    <defs>
     <path d="M 34.240625 -37.55625 
L 34.240625 -39.655963 
L 34.659648 -39.676298 
L 35.078672 -39.696824 
L 35.497695 -39.717541 
L 35.916719 -39.738449 
L 36.335742 -39.759551 
L 36.754765 -39.780851 
L 37.173789 -39.802346 
L 37.592812 -39.824042 
L 38.011835 -39.845938 
L 38.430859 -39.868037 
L 38.849882 -39.89034 
L 39.268906 -39.912848 
L 39.687929 -39.935565 
L 40.106952 -39.958491 
L 40.525976 -39.981628 
L 40.945009 -40.004977 
L 41.364032 -40.028543 
L 41.783056 -40.052323 
L 42.202079 -40.076322 
L 42.621103 -40.10054 
L 43.040126 -40.124981 
L 43.459149 -40.149646 
L 43.878173 -40.174535 
L 44.297196 -40.199653 
L 44.716219 -40.224999 
L 45.135243 -40.250575 
L 45.554266 -40.276385 
L 45.97329 -40.302428 
L 46.392313 -40.328709 
L 46.811336 -40.355229 
L 47.23036 -40.381988 
L 47.649383 -40.40899 
L 48.068407 -40.436237 
L 48.48743 -40.463728 
L 48.906453 -40.491469 
L 49.325477 -40.519459 
L 49.7445 -40.547702 
L 50.163523 -40.576198 
L 50.582547 -40.604951 
L 51.00158 -40.633962 
L 51.420604 -40.663232 
L 51.839627 -40.692764 
L 52.25865 -40.722561 
L 52.677674 -40.752622 
L 53.096697 -40.782953 
L 53.51572 -40.813553 
L 53.934744 -40.844426 
L 54.353767 -40.875573 
L 54.772791 -40.906996 
L 55.191814 -40.938698 
L 55.610837 -40.970679 
L 56.029861 -41.002945 
L 56.448884 -41.035493 
L 56.867907 -41.068329 
L 57.286931 -41.101455 
L 57.705954 -41.134871 
L 58.124978 -41.168581 
L 58.544001 -41.202585 
L 58.963024 -41.236887 
L 59.382048 -41.27149 
L 59.801071 -41.306394 
L 60.220095 -41.341603 
L 60.639118 -41.377116 
L 61.058151 -41.41294 
L 61.477175 -41.449073 
L 61.896198 -41.48552 
L 62.315221 -41.52228 
L 62.734245 -41.559359 
L 63.153268 -41.596755 
L 63.572292 -41.634474 
L 63.991315 -41.672518 
L 64.410338 -41.710889 
L 64.829362 -41.749585 
L 65.248385 -41.788614 
L 65.667408 -41.827975 
L 66.086432 -41.867671 
L 66.505455 -41.907703 
L 66.924479 -41.948076 
L 67.343502 -41.988791 
L 67.762525 -42.029852 
L 68.181549 -42.071256 
L 68.600572 -42.113009 
L 69.019595 -42.155116 
L 69.438619 -42.197573 
L 69.857642 -42.240387 
L 70.276666 -42.283558 
L 70.695689 -42.327087 
L 71.114722 -42.370982 
L 71.533746 -42.415241 
L 71.952769 -42.459864 
L 72.371793 -42.504859 
L 72.790816 -42.550224 
L 73.209839 -42.595961 
L 73.628863 -42.642074 
L 74.047886 -42.688567 
L 74.466909 -42.735439 
L 74.885933 -42.782693 
L 75.304956 -42.830334 
L 75.72398 -42.87836 
L 76.143003 -42.926775 
L 76.562026 -42.975582 
L 76.98105 -43.024783 
L 77.400073 -43.074379 
L 77.819096 -43.124373 
L 78.23812 -43.174769 
L 78.657143 -43.225567 
L 79.076167 -43.27677 
L 79.49519 -43.32838 
L 79.914213 -43.3804 
L 80.333237 -43.43283 
L 80.75226 -43.485673 
L 81.171283 -43.538931 
L 81.590307 -43.592607 
L 82.00933 -43.646703 
L 82.428354 -43.70122 
L 82.847377 -43.756163 
L 83.2664 -43.811529 
L 83.685424 -43.867325 
L 84.104447 -43.923553 
L 84.523481 -43.980209 
L 84.942504 -44.037303 
L 85.361527 -44.09483 
L 85.780551 -44.152795 
L 86.199574 -44.211201 
L 86.618597 -44.27005 
L 87.037621 -44.329343 
L 87.456644 -44.38908 
L 87.875668 -44.449266 
L 88.294691 -44.509902 
L 88.713714 -44.570988 
L 89.132738 -44.632527 
L 89.551761 -44.69452 
L 89.970784 -44.75697 
L 90.389808 -44.81988 
L 90.808831 -44.88325 
L 91.227855 -44.94708 
L 91.646878 -45.011377 
L 92.065901 -45.076133 
L 92.484925 -45.141361 
L 92.903948 -45.207054 
L 93.322971 -45.273219 
L 93.741995 -45.339852 
L 94.161018 -45.40696 
L 94.580052 -45.474543 
L 94.999075 -45.542602 
L 95.418098 -45.611136 
L 95.837122 -45.680144 
L 96.256145 -45.749636 
L 96.675169 -45.819611 
L 97.094192 -45.890059 
L 97.513215 -45.960998 
L 97.932239 -46.032418 
L 98.351262 -46.104323 
L 98.770285 -46.176714 
L 99.189309 -46.24959 
L 99.608332 -46.322957 
L 100.027356 -46.396813 
L 100.446379 -46.471154 
L 100.865402 -46.545988 
L 101.284426 -46.621316 
L 101.703449 -46.697131 
L 102.122472 -46.773444 
L 102.541496 -46.850243 
L 102.960519 -46.92754 
L 103.379543 -47.005331 
L 103.798566 -47.083613 
L 104.217589 -47.162392 
L 104.636623 -47.241668 
L 105.055646 -47.321437 
L 105.474669 -47.401699 
L 105.893693 -47.48246 
L 106.312716 -47.563717 
L 106.73174 -47.645465 
L 107.150763 -47.727711 
L 107.569786 -47.810448 
L 107.98881 -47.893684 
L 108.407833 -47.977412 
L 108.826857 -48.061638 
L 109.24588 -48.146353 
L 109.664903 -48.231563 
L 110.083927 -48.317263 
L 110.50295 -48.403455 
L 110.921973 -48.490139 
L 111.340997 -48.577316 
L 111.76002 -48.664976 
L 112.179044 -48.753131 
L 112.598067 -48.841769 
L 113.01709 -48.930893 
L 113.436114 -49.020502 
L 113.855137 -49.110591 
L 114.27416 -49.201165 
L 114.693194 -49.292218 
L 115.112217 -49.383748 
L 115.531241 -49.475759 
L 115.950264 -49.56824 
L 116.369287 -49.661195 
L 116.788311 -49.754626 
L 117.207334 -49.848521 
L 117.626357 -49.942883 
L 118.045381 -50.037708 
L 118.464404 -50.133002 
L 118.883428 -50.228745 
L 119.302451 -50.324948 
L 119.721474 -50.421613 
L 120.140498 -50.518718 
L 120.140498 -37.55625 
L 120.140498 -37.55625 
L 119.721474 -37.55625 
L 119.302451 -37.55625 
L 118.883428 -37.55625 
L 118.464404 -37.55625 
L 118.045381 -37.55625 
L 117.626357 -37.55625 
L 117.207334 -37.55625 
L 116.788311 -37.55625 
L 116.369287 -37.55625 
L 115.950264 -37.55625 
L 115.531241 -37.55625 
L 115.112217 -37.55625 
L 114.693194 -37.55625 
L 114.27416 -37.55625 
L 113.855137 -37.55625 
L 113.436114 -37.55625 
L 113.01709 -37.55625 
L 112.598067 -37.55625 
L 112.179044 -37.55625 
L 111.76002 -37.55625 
L 111.340997 -37.55625 
L 110.921973 -37.55625 
L 110.50295 -37.55625 
L 110.083927 -37.55625 
L 109.664903 -37.55625 
L 109.24588 -37.55625 
L 108.826857 -37.55625 
L 108.407833 -37.55625 
L 107.98881 -37.55625 
L 107.569786 -37.55625 
L 107.150763 -37.55625 
L 106.73174 -37.55625 
L 106.312716 -37.55625 
L 105.893693 -37.55625 
L 105.474669 -37.55625 
L 105.055646 -37.55625 
L 104.636623 -37.55625 
L 104.217589 -37.55625 
L 103.798566 -37.55625 
L 103.379543 -37.55625 
L 102.960519 -37.55625 
L 102.541496 -37.55625 
L 102.122472 -37.55625 
L 101.703449 -37.55625 
L 101.284426 -37.55625 
L 100.865402 -37.55625 
L 100.446379 -37.55625 
L 100.027356 -37.55625 
L 99.608332 -37.55625 
L 99.189309 -37.55625 
L 98.770285 -37.55625 
L 98.351262 -37.55625 
L 97.932239 -37.55625 
L 97.513215 -37.55625 
L 97.094192 -37.55625 
L 96.675169 -37.55625 
L 96.256145 -37.55625 
L 95.837122 -37.55625 
L 95.418098 -37.55625 
L 94.999075 -37.55625 
L 94.580052 -37.55625 
L 94.161018 -37.55625 
L 93.741995 -37.55625 
L 93.322971 -37.55625 
L 92.903948 -37.55625 
L 92.484925 -37.55625 
L 92.065901 -37.55625 
L 91.646878 -37.55625 
L 91.227855 -37.55625 
L 90.808831 -37.55625 
L 90.389808 -37.55625 
L 89.970784 -37.55625 
L 89.551761 -37.55625 
L 89.132738 -37.55625 
L 88.713714 -37.55625 
L 88.294691 -37.55625 
L 87.875668 -37.55625 
L 87.456644 -37.55625 
L 87.037621 -37.55625 
L 86.618597 -37.55625 
L 86.199574 -37.55625 
L 85.780551 -37.55625 
L 85.361527 -37.55625 
L 84.942504 -37.55625 
L 84.523481 -37.55625 
L 84.104447 -37.55625 
L 83.685424 -37.55625 
L 83.2664 -37.55625 
L 82.847377 -37.55625 
L 82.428354 -37.55625 
L 82.00933 -37.55625 
L 81.590307 -37.55625 
L 81.171283 -37.55625 
L 80.75226 -37.55625 
L 80.333237 -37.55625 
L 79.914213 -37.55625 
L 79.49519 -37.55625 
L 79.076167 -37.55625 
L 78.657143 -37.55625 
L 78.23812 -37.55625 
L 77.819096 -37.55625 
L 77.400073 -37.55625 
L 76.98105 -37.55625 
L 76.562026 -37.55625 
L 76.143003 -37.55625 
L 75.72398 -37.55625 
L 75.304956 -37.55625 
L 74.885933 -37.55625 
L 74.466909 -37.55625 
L 74.047886 -37.55625 
L 73.628863 -37.55625 
L 73.209839 -37.55625 
L 72.790816 -37.55625 
L 72.371793 -37.55625 
L 71.952769 -37.55625 
L 71.533746 -37.55625 
L 71.114722 -37.55625 
L 70.695689 -37.55625 
L 70.276666 -37.55625 
L 69.857642 -37.55625 
L 69.438619 -37.55625 
L 69.019595 -37.55625 
L 68.600572 -37.55625 
L 68.181549 -37.55625 
L 67.762525 -37.55625 
L 67.343502 -37.55625 
L 66.924479 -37.55625 
L 66.505455 -37.55625 
L 66.086432 -37.55625 
L 65.667408 -37.55625 
L 65.248385 -37.55625 
L 64.829362 -37.55625 
L 64.410338 -37.55625 
L 63.991315 -37.55625 
L 63.572292 -37.55625 
L 63.153268 -37.55625 
L 62.734245 -37.55625 
L 62.315221 -37.55625 
L 61.896198 -37.55625 
L 61.477175 -37.55625 
L 61.058151 -37.55625 
L 60.639118 -37.55625 
L 60.220095 -37.55625 
L 59.801071 -37.55625 
L 59.382048 -37.55625 
L 58.963024 -37.55625 
L 58.544001 -37.55625 
L 58.124978 -37.55625 
L 57.705954 -37.55625 
L 57.286931 -37.55625 
L 56.867907 -37.55625 
L 56.448884 -37.55625 
L 56.029861 -37.55625 
L 55.610837 -37.55625 
L 55.191814 -37.55625 
L 54.772791 -37.55625 
L 54.353767 -37.55625 
L 53.934744 -37.55625 
L 53.51572 -37.55625 
L 53.096697 -37.55625 
L 52.677674 -37.55625 
L 52.25865 -37.55625 
L 51.839627 -37.55625 
L 51.420604 -37.55625 
L 51.00158 -37.55625 
L 50.582547 -37.55625 
L 50.163523 -37.55625 
L 49.7445 -37.55625 
L 49.325477 -37.55625 
L 48.906453 -37.55625 
L 48.48743 -37.55625 
L 48.068407 -37.55625 
L 47.649383 -37.55625 
L 47.23036 -37.55625 
L 46.811336 -37.55625 
L 46.392313 -37.55625 
L 45.97329 -37.55625 
L 45.554266 -37.55625 
L 45.135243 -37.55625 
L 44.716219 -37.55625 
L 44.297196 -37.55625 
L 43.878173 -37.55625 
L 43.459149 -37.55625 
L 43.040126 -37.55625 
L 42.621103 -37.55625 
L 42.202079 -37.55625 
L 41.783056 -37.55625 
L 41.364032 -37.55625 
L 40.945009 -37.55625 
L 40.525976 -37.55625 
L 40.106952 -37.55625 
L 39.687929 -37.55625 
L 39.268906 -37.55625 
L 38.849882 -37.55625 
L 38.430859 -37.55625 
L 38.011835 -37.55625 
L 37.592812 -37.55625 
L 37.173789 -37.55625 
L 36.754765 -37.55625 
L 36.335742 -37.55625 
L 35.916719 -37.55625 
L 35.497695 -37.55625 
L 35.078672 -37.55625 
L 34.659648 -37.55625 
L 34.240625 -37.55625 
z
" id="m3973dcd2c6" style="stroke:#1f77b4;stroke-opacity:0.5;"/>
    </defs>
    <g clip-path="url(#pc3cad3a820)">
     <use style="fill:#1f77b4;fill-opacity:0.5;stroke:#1f77b4;stroke-opacity:0.5;" x="0" xlink:href="#m3973dcd2c6" y="222.954375"/>
    </g>
   </g>
   <g id="PolyCollection_2">
    <defs>
     <path d="M 120.559521 -37.55625 
L 120.559521 -72.382988 
L 120.978549 -72.644339 
L 121.397573 -72.906859 
L 121.816596 -73.170547 
L 122.23562 -73.435396 
L 122.654643 -73.701388 
L 123.073666 -73.968536 
L 123.49269 -74.2368 
L 123.911713 -74.506215 
L 124.330742 -74.776719 
L 124.74976 -75.048328 
L 125.168783 -75.321019 
L 125.587807 -75.594787 
L 126.00683 -75.869627 
L 126.425853 -76.14553 
L 126.844877 -76.422458 
L 127.2639 -76.70042 
L 127.682929 -76.979394 
L 128.101952 -77.259371 
L 128.520975 -77.540333 
L 128.939999 -77.822259 
L 129.359022 -78.105158 
L 129.778045 -78.388992 
L 130.197069 -78.673752 
L 130.616092 -78.959424 
L 131.035121 -79.245988 
L 131.454144 -79.533455 
L 131.873167 -79.821753 
L 132.292191 -80.110916 
L 132.711214 -80.400896 
L 133.130237 -80.691693 
L 133.549261 -80.983284 
L 133.968284 -81.275645 
L 134.387313 -81.568766 
L 134.806331 -81.86261 
L 135.225354 -82.157172 
L 135.644378 -82.452423 
L 136.063401 -82.748365 
L 136.482425 -83.044948 
L 136.901448 -83.342165 
L 137.320471 -83.639996 
L 137.7395 -83.938432 
L 138.158523 -84.237415 
L 138.577546 -84.536946 
L 138.99657 -84.836993 
L 139.415593 -85.137535 
L 139.834617 -85.438564 
L 140.25364 -85.740037 
L 140.672663 -86.041925 
L 141.091692 -86.344225 
L 141.51071 -86.646888 
L 141.929733 -86.949892 
L 142.348757 -87.253235 
L 142.76778 -87.556857 
L 143.186804 -87.860763 
L 143.605827 -88.1649 
L 144.02485 -88.469245 
L 144.443879 -88.773793 
L 144.862902 -89.078488 
L 145.281925 -89.383315 
L 145.700949 -89.688241 
L 146.119972 -89.993223 
L 146.538996 -90.298253 
L 146.958019 -90.603302 
L 147.377042 -90.908318 
L 147.796071 -91.213282 
L 148.215094 -91.518165 
L 148.634118 -91.82293 
L 149.053141 -92.127559 
L 149.472164 -92.431989 
L 149.891188 -92.73622 
L 150.310211 -93.040206 
L 150.729234 -93.343909 
L 151.148263 -93.647304 
L 151.567281 -93.95036 
L 151.986305 -94.253032 
L 152.405328 -94.55528 
L 152.824351 -94.857084 
L 153.243375 -95.158401 
L 153.662398 -95.459207 
L 154.081421 -95.759457 
L 154.50045 -96.059106 
L 154.919473 -96.358137 
L 155.338497 -96.656497 
L 155.75752 -96.954163 
L 155.75752 -37.55625 
L 155.75752 -37.55625 
L 155.338497 -37.55625 
L 154.919473 -37.55625 
L 154.50045 -37.55625 
L 154.081421 -37.55625 
L 153.662398 -37.55625 
L 153.243375 -37.55625 
L 152.824351 -37.55625 
L 152.405328 -37.55625 
L 151.986305 -37.55625 
L 151.567281 -37.55625 
L 151.148263 -37.55625 
L 150.729234 -37.55625 
L 150.310211 -37.55625 
L 149.891188 -37.55625 
L 149.472164 -37.55625 
L 149.053141 -37.55625 
L 148.634118 -37.55625 
L 148.215094 -37.55625 
L 147.796071 -37.55625 
L 147.377042 -37.55625 
L 146.958019 -37.55625 
L 146.538996 -37.55625 
L 146.119972 -37.55625 
L 145.700949 -37.55625 
L 145.281925 -37.55625 
L 144.862902 -37.55625 
L 144.443879 -37.55625 
L 144.02485 -37.55625 
L 143.605827 -37.55625 
L 143.186804 -37.55625 
L 142.76778 -37.55625 
L 142.348757 -37.55625 
L 141.929733 -37.55625 
L 141.51071 -37.55625 
L 141.091692 -37.55625 
L 140.672663 -37.55625 
L 140.25364 -37.55625 
L 139.834617 -37.55625 
L 139.415593 -37.55625 
L 138.99657 -37.55625 
L 138.577546 -37.55625 
L 138.158523 -37.55625 
L 137.7395 -37.55625 
L 137.320471 -37.55625 
L 136.901448 -37.55625 
L 136.482425 -37.55625 
L 136.063401 -37.55625 
L 135.644378 -37.55625 
L 135.225354 -37.55625 
L 134.806331 -37.55625 
L 134.387313 -37.55625 
L 133.968284 -37.55625 
L 133.549261 -37.55625 
L 133.130237 -37.55625 
L 132.711214 -37.55625 
L 132.292191 -37.55625 
L 131.873167 -37.55625 
L 131.454144 -37.55625 
L 131.035121 -37.55625 
L 130.616092 -37.55625 
L 130.197069 -37.55625 
L 129.778045 -37.55625 
L 129.359022 -37.55625 
L 128.939999 -37.55625 
L 128.520975 -37.55625 
L 128.101952 -37.55625 
L 127.682929 -37.55625 
L 127.2639 -37.55625 
L 126.844877 -37.55625 
L 126.425853 -37.55625 
L 126.00683 -37.55625 
L 125.587807 -37.55625 
L 125.168783 -37.55625 
L 124.74976 -37.55625 
L 124.330742 -37.55625 
L 123.911713 -37.55625 
L 123.49269 -37.55625 
L 123.073666 -37.55625 
L 122.654643 -37.55625 
L 122.23562 -37.55625 
L 121.816596 -37.55625 
L 121.397573 -37.55625 
L 120.978549 -37.55625 
L 120.559521 -37.55625 
z
" id="mf5ad059a5d" style="stroke:#ff7f0e;stroke-opacity:0.5;"/>
    </defs>
    <g clip-path="url(#pc3cad3a820)">
     <use style="fill:#ff7f0e;fill-opacity:0.5;stroke:#ff7f0e;stroke-opacity:0.5;" x="0" xlink:href="#mf5ad059a5d" y="222.954375"/>
    </g>
   </g>
   <g id="PolyCollection_3">
    <defs>
     <path d="M 156.176543 -37.55625 
L 156.176543 -156.945904 
L 156.595567 -157.538212 
L 157.01459 -158.128885 
L 157.433613 -158.717839 
L 157.852642 -159.305045 
L 158.271665 -159.89039 
L 158.690689 -160.473798 
L 159.109712 -161.055194 
L 159.528735 -161.63454 
L 159.947761 -162.211703 
L 160.366785 -162.786627 
L 160.785808 -163.359218 
L 161.204831 -163.929428 
L 161.623855 -164.497172 
L 162.042878 -165.062318 
L 162.461902 -165.624866 
L 162.880925 -166.184702 
L 163.299951 -166.741732 
L 163.718974 -167.295872 
L 164.137998 -167.847083 
L 164.557021 -168.395232 
L 164.976044 -168.940302 
L 165.395068 -169.482141 
L 165.814091 -170.020711 
L 166.233114 -170.555936 
L 166.65214 -171.087704 
L 167.071164 -171.615928 
L 167.490187 -172.140591 
L 167.90921 -172.66157 
L 168.328234 -173.178788 
L 168.747257 -173.692133 
L 169.166281 -174.201557 
L 169.585304 -174.706975 
L 170.00433 -175.20835 
L 170.423353 -175.70553 
L 170.842377 -176.198458 
L 171.2614 -176.687079 
L 171.680423 -177.171259 
L 172.099447 -177.650979 
L 172.51847 -178.126146 
L 172.937494 -178.596637 
L 173.356519 -179.062432 
L 173.775543 -179.523427 
L 174.194566 -179.979548 
L 174.61359 -180.43069 
L 175.032615 -180.876824 
L 175.451639 -181.317819 
L 175.870662 -181.753675 
L 176.289686 -182.184259 
L 176.708711 -182.609476 
L 177.127735 -183.029337 
L 177.546758 -183.443699 
L 177.965782 -183.852516 
L 178.384805 -184.255683 
L 178.803828 -184.6532 
L 179.222852 -185.044926 
L 179.641875 -185.430794 
L 180.060901 -185.810795 
L 180.060901 -37.55625 
L 180.060901 -37.55625 
L 179.641875 -37.55625 
L 179.222852 -37.55625 
L 178.803828 -37.55625 
L 178.384805 -37.55625 
L 177.965782 -37.55625 
L 177.546758 -37.55625 
L 177.127735 -37.55625 
L 176.708711 -37.55625 
L 176.289686 -37.55625 
L 175.870662 -37.55625 
L 175.451639 -37.55625 
L 175.032615 -37.55625 
L 174.61359 -37.55625 
L 174.194566 -37.55625 
L 173.775543 -37.55625 
L 173.356519 -37.55625 
L 172.937494 -37.55625 
L 172.51847 -37.55625 
L 172.099447 -37.55625 
L 171.680423 -37.55625 
L 171.2614 -37.55625 
L 170.842377 -37.55625 
L 170.423353 -37.55625 
L 170.00433 -37.55625 
L 169.585304 -37.55625 
L 169.166281 -37.55625 
L 168.747257 -37.55625 
L 168.328234 -37.55625 
L 167.90921 -37.55625 
L 167.490187 -37.55625 
L 167.071164 -37.55625 
L 166.65214 -37.55625 
L 166.233114 -37.55625 
L 165.814091 -37.55625 
L 165.395068 -37.55625 
L 164.976044 -37.55625 
L 164.557021 -37.55625 
L 164.137998 -37.55625 
L 163.718974 -37.55625 
L 163.299951 -37.55625 
L 162.880925 -37.55625 
L 162.461902 -37.55625 
L 162.042878 -37.55625 
L 161.623855 -37.55625 
L 161.204831 -37.55625 
L 160.785808 -37.55625 
L 160.366785 -37.55625 
L 159.947761 -37.55625 
L 159.528735 -37.55625 
L 159.109712 -37.55625 
L 158.690689 -37.55625 
L 158.271665 -37.55625 
L 157.852642 -37.55625 
L 157.433613 -37.55625 
L 157.01459 -37.55625 
L 156.595567 -37.55625 
L 156.176543 -37.55625 
z
" id="m7b056d433b" style="stroke:#2ca02c;stroke-opacity:0.5;"/>
    </defs>
    <g clip-path="url(#pc3cad3a820)">
     <use style="fill:#2ca02c;fill-opacity:0.5;stroke:#2ca02c;stroke-opacity:0.5;" x="0" xlink:href="#m7b056d433b" y="222.954375"/>
    </g>
   </g>
   <g id="PolyCollection_4">
    <defs>
     <path d="M 180.479924 -37.55625 
L 180.479924 -111.870524 
L 180.898948 -112.054502 
L 181.317971 -112.235428 
L 181.736996 -112.413274 
L 182.156019 -112.587993 
L 182.575044 -112.759548 
L 182.994067 -112.927937 
L 183.413091 -113.093119 
L 183.832115 -113.255036 
L 184.251139 -113.413671 
L 184.670162 -113.569018 
L 185.089185 -113.72103 
L 185.508209 -113.869669 
L 185.927233 -114.014926 
L 186.346257 -114.156763 
L 186.76528 -114.295146 
L 187.184305 -114.430063 
L 187.603328 -114.561493 
L 188.022351 -114.68939 
L 188.441376 -114.813734 
L 188.860399 -114.934513 
L 189.279424 -115.051696 
L 189.698447 -115.165261 
L 190.117471 -115.275193 
L 190.536495 -115.38146 
L 190.955519 -115.484042 
L 191.374542 -115.58293 
L 191.793566 -115.678095 
L 192.21259 -115.769524 
L 192.631614 -115.857189 
L 193.050638 -115.941083 
L 193.469662 -116.021194 
L 193.888685 -116.097484 
L 194.307709 -116.169966 
L 194.726732 -116.238607 
L 195.145756 -116.303399 
L 195.56478 -116.364326 
L 195.983804 -116.421385 
L 196.402828 -116.474556 
L 196.821851 -116.52383 
L 197.240875 -116.569212 
L 197.659899 -116.610654 
L 198.078923 -116.648189 
L 198.497947 -116.681789 
L 198.91697 -116.711455 
L 199.335994 -116.737162 
L 199.755018 -116.758938 
L 200.174042 -116.776757 
L 200.593065 -116.79063 
L 201.012089 -116.800532 
L 201.431113 -116.806474 
L 201.431113 -37.55625 
L 201.431113 -37.55625 
L 201.012089 -37.55625 
L 200.593065 -37.55625 
L 200.174042 -37.55625 
L 199.755018 -37.55625 
L 199.335994 -37.55625 
L 198.91697 -37.55625 
L 198.497947 -37.55625 
L 198.078923 -37.55625 
L 197.659899 -37.55625 
L 197.240875 -37.55625 
L 196.821851 -37.55625 
L 196.402828 -37.55625 
L 195.983804 -37.55625 
L 195.56478 -37.55625 
L 195.145756 -37.55625 
L 194.726732 -37.55625 
L 194.307709 -37.55625 
L 193.888685 -37.55625 
L 193.469662 -37.55625 
L 193.050638 -37.55625 
L 192.631614 -37.55625 
L 192.21259 -37.55625 
L 191.793566 -37.55625 
L 191.374542 -37.55625 
L 190.955519 -37.55625 
L 190.536495 -37.55625 
L 190.117471 -37.55625 
L 189.698447 -37.55625 
L 189.279424 -37.55625 
L 188.860399 -37.55625 
L 188.441376 -37.55625 
L 188.022351 -37.55625 
L 187.603328 -37.55625 
L 187.184305 -37.55625 
L 186.76528 -37.55625 
L 186.346257 -37.55625 
L 185.927233 -37.55625 
L 185.508209 -37.55625 
L 185.089185 -37.55625 
L 184.670162 -37.55625 
L 184.251139 -37.55625 
L 183.832115 -37.55625 
L 183.413091 -37.55625 
L 182.994067 -37.55625 
L 182.575044 -37.55625 
L 182.156019 -37.55625 
L 181.736996 -37.55625 
L 181.317971 -37.55625 
L 180.898948 -37.55625 
L 180.479924 -37.55625 
z
" id="m0e574ac3dc" style="stroke:#d62728;stroke-opacity:0.5;"/>
    </defs>
    <g clip-path="url(#pc3cad3a820)">
     <use style="fill:#d62728;fill-opacity:0.5;stroke:#d62728;stroke-opacity:0.5;" x="0" xlink:href="#m0e574ac3dc" y="222.954375"/>
    </g>
   </g>
   <g id="PolyCollection_5">
    <defs>
     <path d="M 201.850137 -37.55625 
L 201.850137 -67.275828 
L 202.26916 -67.275084 
L 202.688184 -67.272856 
L 203.107208 -67.269143 
L 203.526232 -67.263944 
L 203.945256 -67.257262 
L 204.364279 -67.249099 
L 204.783303 -67.239452 
L 205.202327 -67.228327 
L 205.621351 -67.215727 
L 206.040375 -67.201651 
L 206.459398 -67.186107 
L 206.878422 -67.169093 
L 207.297446 -67.150615 
L 207.71647 -67.130676 
L 208.135493 -67.109279 
L 208.554517 -67.086434 
L 208.973541 -67.062134 
L 209.392564 -67.036393 
L 209.811588 -67.009213 
L 210.230612 -66.980601 
L 210.649636 -66.950563 
L 211.06866 -66.919102 
L 211.487683 -66.886224 
L 211.906707 -66.851942 
L 212.325731 -66.816255 
L 212.744755 -66.779172 
L 213.163778 -66.740704 
L 213.582803 -66.700854 
L 214.001826 -66.659629 
L 214.420849 -66.617042 
L 214.839874 -66.573098 
L 215.258897 -66.527807 
L 215.677921 -66.481177 
L 216.096945 -66.433213 
L 216.515969 -66.383933 
L 216.934992 -66.333336 
L 217.354017 -66.281442 
L 217.77304 -66.228253 
L 218.192063 -66.173782 
L 218.611088 -66.118042 
L 219.030111 -66.06104 
L 219.449136 -66.002786 
L 219.868159 -65.943295 
L 220.287183 -65.882572 
L 220.706208 -65.820633 
L 221.125231 -65.75749 
L 221.544254 -65.693152 
L 221.963278 -65.627634 
L 222.382301 -65.560942 
L 222.801326 -65.493094 
L 223.220349 -65.424103 
L 223.220349 -37.55625 
L 223.220349 -37.55625 
L 222.801326 -37.55625 
L 222.382301 -37.55625 
L 221.963278 -37.55625 
L 221.544254 -37.55625 
L 221.125231 -37.55625 
L 220.706208 -37.55625 
L 220.287183 -37.55625 
L 219.868159 -37.55625 
L 219.449136 -37.55625 
L 219.030111 -37.55625 
L 218.611088 -37.55625 
L 218.192063 -37.55625 
L 217.77304 -37.55625 
L 217.354017 -37.55625 
L 216.934992 -37.55625 
L 216.515969 -37.55625 
L 216.096945 -37.55625 
L 215.677921 -37.55625 
L 215.258897 -37.55625 
L 214.839874 -37.55625 
L 214.420849 -37.55625 
L 214.001826 -37.55625 
L 213.582803 -37.55625 
L 213.163778 -37.55625 
L 212.744755 -37.55625 
L 212.325731 -37.55625 
L 211.906707 -37.55625 
L 211.487683 -37.55625 
L 211.06866 -37.55625 
L 210.649636 -37.55625 
L 210.230612 -37.55625 
L 209.811588 -37.55625 
L 209.392564 -37.55625 
L 208.973541 -37.55625 
L 208.554517 -37.55625 
L 208.135493 -37.55625 
L 207.71647 -37.55625 
L 207.297446 -37.55625 
L 206.878422 -37.55625 
L 206.459398 -37.55625 
L 206.040375 -37.55625 
L 205.621351 -37.55625 
L 205.202327 -37.55625 
L 204.783303 -37.55625 
L 204.364279 -37.55625 
L 203.945256 -37.55625 
L 203.526232 -37.55625 
L 203.107208 -37.55625 
L 202.688184 -37.55625 
L 202.26916 -37.55625 
L 201.850137 -37.55625 
z
" id="m0c56dc103d" style="stroke:#9467bd;stroke-opacity:0.5;"/>
    </defs>
    <g clip-path="url(#pc3cad3a820)">
     <use style="fill:#9467bd;fill-opacity:0.5;stroke:#9467bd;stroke-opacity:0.5;" x="0" xlink:href="#m0c56dc103d" y="222.954375"/>
    </g>
   </g>
   <g id="PolyCollection_6">
    <defs>
     <path d="M 223.639372 -37.55625 
L 223.639372 -46.822158 
L 224.058396 -46.798409 
L 224.477419 -46.774292 
L 224.896445 -46.749809 
L 225.315468 -46.724966 
L 225.734492 -46.699767 
L 226.153515 -46.674216 
L 226.572539 -46.648318 
L 226.991564 -46.622079 
L 227.410588 -46.595499 
L 227.829611 -46.568589 
L 228.248635 -46.541349 
L 228.667658 -46.513785 
L 229.086681 -46.485902 
L 229.505705 -46.457705 
L 229.924728 -46.429197 
L 230.343754 -46.400386 
L 230.762777 -46.371274 
L 231.181801 -46.341867 
L 231.600824 -46.312171 
L 232.01985 -46.282188 
L 232.438873 -46.251926 
L 232.857897 -46.221388 
L 233.27692 -46.19058 
L 233.695946 -46.159506 
L 234.114969 -46.128172 
L 234.533993 -46.096582 
L 234.953016 -46.064743 
L 235.37204 -46.032659 
L 235.791063 -46.000332 
L 236.210086 -45.967773 
L 236.62911 -45.934982 
L 237.048136 -45.901966 
L 237.467159 -45.86873 
L 237.886182 -45.835278 
L 238.305206 -45.801618 
L 238.724229 -45.767753 
L 239.143252 -45.733688 
L 239.562276 -45.699426 
L 239.981299 -45.664976 
L 240.400325 -45.630342 
L 240.819348 -45.595527 
L 241.238372 -45.560538 
L 241.657395 -45.525379 
L 242.076419 -45.490055 
L 242.495442 -45.454574 
L 242.914465 -45.418935 
L 243.333489 -45.383147 
L 243.752515 -45.347215 
L 244.171538 -45.311142 
L 244.590561 -45.274935 
L 245.009585 -45.238597 
L 245.428608 -45.202134 
L 245.847632 -45.16555 
L 246.266655 -45.12885 
L 246.685678 -45.09204 
L 247.104702 -45.055123 
L 247.523725 -45.018104 
L 247.523725 -37.55625 
L 247.523725 -37.55625 
L 247.104702 -37.55625 
L 246.685678 -37.55625 
L 246.266655 -37.55625 
L 245.847632 -37.55625 
L 245.428608 -37.55625 
L 245.009585 -37.55625 
L 244.590561 -37.55625 
L 244.171538 -37.55625 
L 243.752515 -37.55625 
L 243.333489 -37.55625 
L 242.914465 -37.55625 
L 242.495442 -37.55625 
L 242.076419 -37.55625 
L 241.657395 -37.55625 
L 241.238372 -37.55625 
L 240.819348 -37.55625 
L 240.400325 -37.55625 
L 239.981299 -37.55625 
L 239.562276 -37.55625 
L 239.143252 -37.55625 
L 238.724229 -37.55625 
L 238.305206 -37.55625 
L 237.886182 -37.55625 
L 237.467159 -37.55625 
L 237.048136 -37.55625 
L 236.62911 -37.55625 
L 236.210086 -37.55625 
L 235.791063 -37.55625 
L 235.37204 -37.55625 
L 234.953016 -37.55625 
L 234.533993 -37.55625 
L 234.114969 -37.55625 
L 233.695946 -37.55625 
L 233.27692 -37.55625 
L 232.857897 -37.55625 
L 232.438873 -37.55625 
L 232.01985 -37.55625 
L 231.600824 -37.55625 
L 231.181801 -37.55625 
L 230.762777 -37.55625 
L 230.343754 -37.55625 
L 229.924728 -37.55625 
L 229.505705 -37.55625 
L 229.086681 -37.55625 
L 228.667658 -37.55625 
L 228.248635 -37.55625 
L 227.829611 -37.55625 
L 227.410588 -37.55625 
L 226.991564 -37.55625 
L 226.572539 -37.55625 
L 226.153515 -37.55625 
L 225.734492 -37.55625 
L 225.315468 -37.55625 
L 224.896445 -37.55625 
L 224.477419 -37.55625 
L 224.058396 -37.55625 
L 223.639372 -37.55625 
z
" id="ma6d5cacbb5" style="stroke:#8c564b;stroke-opacity:0.5;"/>
    </defs>
    <g clip-path="url(#pc3cad3a820)">
     <use style="fill:#8c564b;fill-opacity:0.5;stroke:#8c564b;stroke-opacity:0.5;" x="0" xlink:href="#ma6d5cacbb5" y="222.954375"/>
    </g>
   </g>
   <g id="PolyCollection_7">
    <defs>
     <path d="M 247.942748 -37.55625 
L 247.942748 -41.26862 
L 248.361777 -41.250015 
L 248.7808 -41.231368 
L 249.199824 -41.212678 
L 249.618847 -41.19395 
L 250.03787 -41.175185 
L 250.456894 -41.156385 
L 250.875917 -41.137552 
L 251.29494 -41.11869 
L 251.713969 -41.099799 
L 252.132992 -41.080882 
L 252.552016 -41.061941 
L 252.971039 -41.042979 
L 253.390062 -41.023998 
L 253.809086 -41.004998 
L 254.228109 -40.985985 
L 254.647132 -40.966957 
L 255.066161 -40.947918 
L 255.485179 -40.92887 
L 255.904203 -40.909815 
L 256.323226 -40.890754 
L 256.742249 -40.871691 
L 257.161273 -40.852625 
L 257.580296 -40.833561 
L 257.99932 -40.814499 
L 258.418348 -40.795442 
L 258.837371 -40.77639 
L 259.256395 -40.757346 
L 259.675418 -40.738313 
L 260.094441 -40.719291 
L 260.513465 -40.700282 
L 260.932488 -40.681289 
L 261.351512 -40.662312 
L 261.77054 -40.643353 
L 262.189563 -40.624415 
L 262.608587 -40.605498 
L 263.02761 -40.586605 
L 263.446633 -40.567736 
L 263.865657 -40.548895 
L 264.28468 -40.53008 
L 264.703704 -40.511296 
L 265.122732 -40.492543 
L 265.54175 -40.473823 
L 265.960774 -40.455136 
L 266.379797 -40.436484 
L 266.79882 -40.417871 
L 267.217844 -40.399294 
L 267.636867 -40.380757 
L 268.055891 -40.362261 
L 268.474919 -40.343807 
L 268.893942 -40.325397 
L 269.312966 -40.307032 
L 269.731989 -40.288712 
L 270.151013 -40.270439 
L 270.570036 -40.252215 
L 270.989059 -40.23404 
L 271.408083 -40.215917 
L 271.827111 -40.197844 
L 272.246129 -40.179825 
L 272.665153 -40.161859 
L 273.084176 -40.143948 
L 273.5032 -40.126094 
L 273.922223 -40.108296 
L 274.341246 -40.090557 
L 274.76027 -40.072876 
L 275.179298 -40.055255 
L 275.598321 -40.037695 
L 276.017345 -40.020196 
L 276.436368 -40.002761 
L 276.855392 -39.985388 
L 277.274415 -39.96808 
L 277.693438 -39.950836 
L 278.112462 -39.933659 
L 278.53149 -39.916548 
L 278.950513 -39.899505 
L 279.369537 -39.882529 
L 279.78856 -39.865623 
L 280.207584 -39.848785 
L 280.626607 -39.832018 
L 281.04563 -39.815322 
L 281.464654 -39.798697 
L 281.883682 -39.782143 
L 282.302701 -39.765663 
L 282.721724 -39.749255 
L 283.140747 -39.732922 
L 283.140747 -37.55625 
L 283.140747 -37.55625 
L 282.721724 -37.55625 
L 282.302701 -37.55625 
L 281.883682 -37.55625 
L 281.464654 -37.55625 
L 281.04563 -37.55625 
L 280.626607 -37.55625 
L 280.207584 -37.55625 
L 279.78856 -37.55625 
L 279.369537 -37.55625 
L 278.950513 -37.55625 
L 278.53149 -37.55625 
L 278.112462 -37.55625 
L 277.693438 -37.55625 
L 277.274415 -37.55625 
L 276.855392 -37.55625 
L 276.436368 -37.55625 
L 276.017345 -37.55625 
L 275.598321 -37.55625 
L 275.179298 -37.55625 
L 274.76027 -37.55625 
L 274.341246 -37.55625 
L 273.922223 -37.55625 
L 273.5032 -37.55625 
L 273.084176 -37.55625 
L 272.665153 -37.55625 
L 272.246129 -37.55625 
L 271.827111 -37.55625 
L 271.408083 -37.55625 
L 270.989059 -37.55625 
L 270.570036 -37.55625 
L 270.151013 -37.55625 
L 269.731989 -37.55625 
L 269.312966 -37.55625 
L 268.893942 -37.55625 
L 268.474919 -37.55625 
L 268.055891 -37.55625 
L 267.636867 -37.55625 
L 267.217844 -37.55625 
L 266.79882 -37.55625 
L 266.379797 -37.55625 
L 265.960774 -37.55625 
L 265.54175 -37.55625 
L 265.122732 -37.55625 
L 264.703704 -37.55625 
L 264.28468 -37.55625 
L 263.865657 -37.55625 
L 263.446633 -37.55625 
L 263.02761 -37.55625 
L 262.608587 -37.55625 
L 262.189563 -37.55625 
L 261.77054 -37.55625 
L 261.351512 -37.55625 
L 260.932488 -37.55625 
L 260.513465 -37.55625 
L 260.094441 -37.55625 
L 259.675418 -37.55625 
L 259.256395 -37.55625 
L 258.837371 -37.55625 
L 258.418348 -37.55625 
L 257.99932 -37.55625 
L 257.580296 -37.55625 
L 257.161273 -37.55625 
L 256.742249 -37.55625 
L 256.323226 -37.55625 
L 255.904203 -37.55625 
L 255.485179 -37.55625 
L 255.066161 -37.55625 
L 254.647132 -37.55625 
L 254.228109 -37.55625 
L 253.809086 -37.55625 
L 253.390062 -37.55625 
L 252.971039 -37.55625 
L 252.552016 -37.55625 
L 252.132992 -37.55625 
L 251.713969 -37.55625 
L 251.29494 -37.55625 
L 250.875917 -37.55625 
L 250.456894 -37.55625 
L 250.03787 -37.55625 
L 249.618847 -37.55625 
L 249.199824 -37.55625 
L 248.7808 -37.55625 
L 248.361777 -37.55625 
L 247.942748 -37.55625 
z
" id="m5a6d6b4c56" style="stroke:#e377c2;stroke-opacity:0.5;"/>
    </defs>
    <g clip-path="url(#pc3cad3a820)">
     <use style="fill:#e377c2;fill-opacity:0.5;stroke:#e377c2;stroke-opacity:0.5;" x="0" xlink:href="#m5a6d6b4c56" y="222.954375"/>
    </g>
   </g>
   <g id="PolyCollection_8">
    <defs>
     <path d="M 283.559771 -37.55625 
L 283.559771 -39.716662 
L 283.978794 -39.700477 
L 284.397817 -39.684367 
L 284.816841 -39.668333 
L 285.235869 -39.652375 
L 285.654893 -39.636494 
L 286.073916 -39.620689 
L 286.492939 -39.604962 
L 286.911963 -39.589313 
L 287.330986 -39.573741 
L 287.750009 -39.558249 
L 288.169033 -39.542835 
L 288.588056 -39.5275 
L 289.00708 -39.512245 
L 289.426103 -39.497069 
L 289.845126 -39.481974 
L 290.26415 -39.466959 
L 290.683173 -39.452024 
L 291.102196 -39.43717 
L 291.52122 -39.422397 
L 291.940243 -39.407705 
L 292.359277 -39.393094 
L 292.7783 -39.378565 
L 293.197323 -39.364118 
L 293.616347 -39.349752 
L 294.03537 -39.335468 
L 294.454393 -39.321267 
L 294.873417 -39.307148 
L 295.29244 -39.29311 
L 295.711464 -39.279156 
L 296.130487 -39.265283 
L 296.54951 -39.251493 
L 296.968534 -39.237786 
L 297.387557 -39.224161 
L 297.806581 -39.210618 
L 298.225604 -39.197159 
L 298.644627 -39.183781 
L 299.063651 -39.170486 
L 299.482674 -39.157274 
L 299.901697 -39.144144 
L 300.320721 -39.131097 
L 300.739744 -39.118132 
L 301.158768 -39.105249 
L 301.577791 -39.092449 
L 301.996814 -39.07973 
L 302.415848 -39.067094 
L 302.834871 -39.05454 
L 303.253894 -39.042067 
L 303.672918 -39.029677 
L 304.091941 -39.017368 
L 304.510965 -39.00514 
L 304.929988 -38.992994 
L 305.349011 -38.980929 
L 305.768035 -38.968945 
L 306.187058 -38.957041 
L 306.606081 -38.945219 
L 307.025105 -38.933476 
L 307.444128 -38.921815 
L 307.863152 -38.910233 
L 308.282175 -38.898731 
L 308.701198 -38.887308 
L 309.120222 -38.875966 
L 309.539245 -38.864702 
L 309.958269 -38.853518 
L 310.377292 -38.842412 
L 310.796315 -38.831385 
L 311.215339 -38.820435 
L 311.634362 -38.809564 
L 312.053385 -38.798771 
L 312.472419 -38.788055 
L 312.891442 -38.777417 
L 313.310466 -38.766855 
L 313.729489 -38.75637 
L 314.148512 -38.745962 
L 314.567536 -38.735629 
L 314.986559 -38.725373 
L 315.405582 -38.715192 
L 315.824606 -38.705086 
L 316.243629 -38.695055 
L 316.662653 -38.685099 
L 317.081676 -38.675217 
L 317.500699 -38.665409 
L 317.919723 -38.655674 
L 318.338746 -38.646013 
L 318.757769 -38.636425 
L 319.176793 -38.62691 
L 319.595816 -38.617467 
L 320.01484 -38.608096 
L 320.433863 -38.598797 
L 320.852886 -38.589569 
L 321.27191 -38.580412 
L 321.690933 -38.571326 
L 322.109957 -38.56231 
L 322.52899 -38.553364 
L 322.948013 -38.544487 
L 323.367037 -38.53568 
L 323.78606 -38.526941 
L 324.205083 -38.518272 
L 324.624107 -38.50967 
L 325.04313 -38.501136 
L 325.462154 -38.49267 
L 325.881177 -38.484271 
L 326.3002 -38.475938 
L 326.719224 -38.467672 
L 327.138247 -38.459472 
L 327.55727 -38.451338 
L 327.976294 -38.443268 
L 328.395317 -38.435264 
L 328.814341 -38.427324 
L 329.233364 -38.419448 
L 329.652387 -38.411636 
L 330.071411 -38.403887 
L 330.490434 -38.396202 
L 330.909457 -38.388579 
L 331.328481 -38.381018 
L 331.747504 -38.373519 
L 332.166528 -38.366082 
L 332.585551 -38.358705 
L 333.004574 -38.35139 
L 333.423598 -38.344135 
L 333.842621 -38.33694 
L 334.261645 -38.329804 
L 334.680668 -38.322728 
L 335.099691 -38.31571 
L 335.518715 -38.308751 
L 335.937748 -38.30185 
L 336.356771 -38.295007 
L 336.775795 -38.288221 
L 337.194818 -38.281492 
L 337.613842 -38.27482 
L 338.032865 -38.268204 
L 338.451888 -38.261644 
L 338.870912 -38.255139 
L 339.289935 -38.24869 
L 339.708958 -38.242295 
L 340.127982 -38.235954 
L 340.547005 -38.229668 
L 340.966029 -38.223435 
L 341.385052 -38.217255 
L 341.804075 -38.211128 
L 342.223099 -38.205054 
L 342.642122 -38.199032 
L 343.061145 -38.193061 
L 343.480169 -38.187142 
L 343.899192 -38.181274 
L 344.318216 -38.175457 
L 344.737239 -38.16969 
L 345.156262 -38.163973 
L 345.575286 -38.158305 
L 345.994319 -38.152687 
L 346.413343 -38.147118 
L 346.832366 -38.141597 
L 347.251389 -38.136124 
L 347.670413 -38.130699 
L 348.089436 -38.125322 
L 348.508459 -38.119991 
L 348.927483 -38.114708 
L 349.346506 -38.10947 
L 349.76553 -38.104279 
L 350.184553 -38.099134 
L 350.603576 -38.094034 
L 351.0226 -38.088979 
L 351.441623 -38.083968 
L 351.860646 -38.079002 
L 352.27967 -38.07408 
L 352.698693 -38.069202 
L 353.117717 -38.064367 
L 353.53674 -38.059575 
L 353.955763 -38.054825 
L 354.374787 -38.050118 
L 354.79381 -38.045453 
L 355.212833 -38.04083 
L 355.631857 -38.036248 
L 356.05089 -38.031707 
L 356.469914 -38.027206 
L 356.888937 -38.022746 
L 357.30796 -38.018327 
L 357.726984 -38.013946 
L 358.146007 -38.009606 
L 358.565031 -38.005304 
L 358.984054 -38.001041 
L 359.403077 -37.996817 
L 359.822101 -37.992631 
L 360.241124 -37.988483 
L 360.660147 -37.984372 
L 361.079171 -37.980299 
L 361.498194 -37.976262 
L 361.917218 -37.972262 
L 362.336241 -37.968299 
L 362.755264 -37.964371 
L 363.174288 -37.96048 
L 363.593311 -37.956624 
L 364.012334 -37.952803 
L 364.431358 -37.949017 
L 364.850381 -37.945265 
L 365.269405 -37.941548 
L 365.688428 -37.937865 
L 366.107461 -37.934215 
L 366.526485 -37.930599 
L 366.945508 -37.927017 
L 367.364531 -37.923467 
L 367.783555 -37.91995 
L 368.202578 -37.916465 
L 368.621602 -37.913012 
L 369.040625 -37.909591 
L 369.040625 -37.55625 
L 369.040625 -37.55625 
L 368.621602 -37.55625 
L 368.202578 -37.55625 
L 367.783555 -37.55625 
L 367.364531 -37.55625 
L 366.945508 -37.55625 
L 366.526485 -37.55625 
L 366.107461 -37.55625 
L 365.688428 -37.55625 
L 365.269405 -37.55625 
L 364.850381 -37.55625 
L 364.431358 -37.55625 
L 364.012334 -37.55625 
L 363.593311 -37.55625 
L 363.174288 -37.55625 
L 362.755264 -37.55625 
L 362.336241 -37.55625 
L 361.917218 -37.55625 
L 361.498194 -37.55625 
L 361.079171 -37.55625 
L 360.660147 -37.55625 
L 360.241124 -37.55625 
L 359.822101 -37.55625 
L 359.403077 -37.55625 
L 358.984054 -37.55625 
L 358.565031 -37.55625 
L 358.146007 -37.55625 
L 357.726984 -37.55625 
L 357.30796 -37.55625 
L 356.888937 -37.55625 
L 356.469914 -37.55625 
L 356.05089 -37.55625 
L 355.631857 -37.55625 
L 355.212833 -37.55625 
L 354.79381 -37.55625 
L 354.374787 -37.55625 
L 353.955763 -37.55625 
L 353.53674 -37.55625 
L 353.117717 -37.55625 
L 352.698693 -37.55625 
L 352.27967 -37.55625 
L 351.860646 -37.55625 
L 351.441623 -37.55625 
L 351.0226 -37.55625 
L 350.603576 -37.55625 
L 350.184553 -37.55625 
L 349.76553 -37.55625 
L 349.346506 -37.55625 
L 348.927483 -37.55625 
L 348.508459 -37.55625 
L 348.089436 -37.55625 
L 347.670413 -37.55625 
L 347.251389 -37.55625 
L 346.832366 -37.55625 
L 346.413343 -37.55625 
L 345.994319 -37.55625 
L 345.575286 -37.55625 
L 345.156262 -37.55625 
L 344.737239 -37.55625 
L 344.318216 -37.55625 
L 343.899192 -37.55625 
L 343.480169 -37.55625 
L 343.061145 -37.55625 
L 342.642122 -37.55625 
L 342.223099 -37.55625 
L 341.804075 -37.55625 
L 341.385052 -37.55625 
L 340.966029 -37.55625 
L 340.547005 -37.55625 
L 340.127982 -37.55625 
L 339.708958 -37.55625 
L 339.289935 -37.55625 
L 338.870912 -37.55625 
L 338.451888 -37.55625 
L 338.032865 -37.55625 
L 337.613842 -37.55625 
L 337.194818 -37.55625 
L 336.775795 -37.55625 
L 336.356771 -37.55625 
L 335.937748 -37.55625 
L 335.518715 -37.55625 
L 335.099691 -37.55625 
L 334.680668 -37.55625 
L 334.261645 -37.55625 
L 333.842621 -37.55625 
L 333.423598 -37.55625 
L 333.004574 -37.55625 
L 332.585551 -37.55625 
L 332.166528 -37.55625 
L 331.747504 -37.55625 
L 331.328481 -37.55625 
L 330.909457 -37.55625 
L 330.490434 -37.55625 
L 330.071411 -37.55625 
L 329.652387 -37.55625 
L 329.233364 -37.55625 
L 328.814341 -37.55625 
L 328.395317 -37.55625 
L 327.976294 -37.55625 
L 327.55727 -37.55625 
L 327.138247 -37.55625 
L 326.719224 -37.55625 
L 326.3002 -37.55625 
L 325.881177 -37.55625 
L 325.462154 -37.55625 
L 325.04313 -37.55625 
L 324.624107 -37.55625 
L 324.205083 -37.55625 
L 323.78606 -37.55625 
L 323.367037 -37.55625 
L 322.948013 -37.55625 
L 322.52899 -37.55625 
L 322.109957 -37.55625 
L 321.690933 -37.55625 
L 321.27191 -37.55625 
L 320.852886 -37.55625 
L 320.433863 -37.55625 
L 320.01484 -37.55625 
L 319.595816 -37.55625 
L 319.176793 -37.55625 
L 318.757769 -37.55625 
L 318.338746 -37.55625 
L 317.919723 -37.55625 
L 317.500699 -37.55625 
L 317.081676 -37.55625 
L 316.662653 -37.55625 
L 316.243629 -37.55625 
L 315.824606 -37.55625 
L 315.405582 -37.55625 
L 314.986559 -37.55625 
L 314.567536 -37.55625 
L 314.148512 -37.55625 
L 313.729489 -37.55625 
L 313.310466 -37.55625 
L 312.891442 -37.55625 
L 312.472419 -37.55625 
L 312.053385 -37.55625 
L 311.634362 -37.55625 
L 311.215339 -37.55625 
L 310.796315 -37.55625 
L 310.377292 -37.55625 
L 309.958269 -37.55625 
L 309.539245 -37.55625 
L 309.120222 -37.55625 
L 308.701198 -37.55625 
L 308.282175 -37.55625 
L 307.863152 -37.55625 
L 307.444128 -37.55625 
L 307.025105 -37.55625 
L 306.606081 -37.55625 
L 306.187058 -37.55625 
L 305.768035 -37.55625 
L 305.349011 -37.55625 
L 304.929988 -37.55625 
L 304.510965 -37.55625 
L 304.091941 -37.55625 
L 303.672918 -37.55625 
L 303.253894 -37.55625 
L 302.834871 -37.55625 
L 302.415848 -37.55625 
L 301.996814 -37.55625 
L 301.577791 -37.55625 
L 301.158768 -37.55625 
L 300.739744 -37.55625 
L 300.320721 -37.55625 
L 299.901697 -37.55625 
L 299.482674 -37.55625 
L 299.063651 -37.55625 
L 298.644627 -37.55625 
L 298.225604 -37.55625 
L 297.806581 -37.55625 
L 297.387557 -37.55625 
L 296.968534 -37.55625 
L 296.54951 -37.55625 
L 296.130487 -37.55625 
L 295.711464 -37.55625 
L 295.29244 -37.55625 
L 294.873417 -37.55625 
L 294.454393 -37.55625 
L 294.03537 -37.55625 
L 293.616347 -37.55625 
L 293.197323 -37.55625 
L 292.7783 -37.55625 
L 292.359277 -37.55625 
L 291.940243 -37.55625 
L 291.52122 -37.55625 
L 291.102196 -37.55625 
L 290.683173 -37.55625 
L 290.26415 -37.55625 
L 289.845126 -37.55625 
L 289.426103 -37.55625 
L 289.00708 -37.55625 
L 288.588056 -37.55625 
L 288.169033 -37.55625 
L 287.750009 -37.55625 
L 287.330986 -37.55625 
L 286.911963 -37.55625 
L 286.492939 -37.55625 
L 286.073916 -37.55625 
L 285.654893 -37.55625 
L 285.235869 -37.55625 
L 284.816841 -37.55625 
L 284.397817 -37.55625 
L 283.978794 -37.55625 
L 283.559771 -37.55625 
z
" id="m764ac662c6" style="stroke:#7f7f7f;stroke-opacity:0.5;"/>
    </defs>
    <g clip-path="url(#pc3cad3a820)">
     <use style="fill:#7f7f7f;fill-opacity:0.5;stroke:#7f7f7f;stroke-opacity:0.5;" x="0" xlink:href="#m764ac662c6" y="222.954375"/>
    </g>
   </g>
   <g id="line2d_1">
    <path clip-path="url(#pc3cad3a820)" d="M 34.240625 185.398125 
L 34.240625 183.298412 
" style="fill:none;stroke:#1f77b4;stroke-linecap:round;stroke-width:1.5;"/>
   </g>
   <g id="line2d_2">
    <path clip-path="url(#pc3cad3a820)" d="M 120.140498 185.398125 
L 120.140498 172.435657 
" style="fill:none;stroke:#1f77b4;stroke-linecap:round;stroke-width:1.5;"/>
   </g>
   <g id="line2d_3">
    <path clip-path="url(#pc3cad3a820)" d="M 120.559521 185.398125 
L 120.559521 150.571387 
" style="fill:none;stroke:#ff7f0e;stroke-linecap:round;stroke-width:1.5;"/>
   </g>
   <g id="line2d_4">
    <path clip-path="url(#pc3cad3a820)" d="M 155.75752 185.398125 
L 155.75752 126.000212 
" style="fill:none;stroke:#ff7f0e;stroke-linecap:round;stroke-width:1.5;"/>
   </g>
   <g id="line2d_5">
    <path clip-path="url(#pc3cad3a820)" d="M 156.176543 185.398125 
L 156.176543 66.008471 
" style="fill:none;stroke:#2ca02c;stroke-linecap:round;stroke-width:1.5;"/>
   </g>
   <g id="line2d_6">
    <path clip-path="url(#pc3cad3a820)" d="M 180.060901 185.398125 
L 180.060901 37.14358 
" style="fill:none;stroke:#2ca02c;stroke-linecap:round;stroke-width:1.5;"/>
   </g>
   <g id="line2d_7">
    <path clip-path="url(#pc3cad3a820)" d="M 180.479924 185.398125 
L 180.479924 111.083851 
" style="fill:none;stroke:#d62728;stroke-linecap:round;stroke-width:1.5;"/>
   </g>
   <g id="line2d_8">
    <path clip-path="url(#pc3cad3a820)" d="M 201.431113 185.398125 
L 201.431113 106.147901 
" style="fill:none;stroke:#d62728;stroke-linecap:round;stroke-width:1.5;"/>
   </g>
   <g id="line2d_9">
    <path clip-path="url(#pc3cad3a820)" d="M 201.850137 185.398125 
L 201.850137 155.678547 
" style="fill:none;stroke:#9467bd;stroke-linecap:round;stroke-width:1.5;"/>
   </g>
   <g id="line2d_10">
    <path clip-path="url(#pc3cad3a820)" d="M 223.220349 185.398125 
L 223.220349 157.530272 
" style="fill:none;stroke:#9467bd;stroke-linecap:round;stroke-width:1.5;"/>
   </g>
   <g id="line2d_11">
    <path clip-path="url(#pc3cad3a820)" d="M 223.639372 185.398125 
L 223.639372 176.132217 
" style="fill:none;stroke:#8c564b;stroke-linecap:round;stroke-width:1.5;"/>
   </g>
   <g id="line2d_12">
    <path clip-path="url(#pc3cad3a820)" d="M 247.523725 185.398125 
L 247.523725 177.936271 
" style="fill:none;stroke:#8c564b;stroke-linecap:round;stroke-width:1.5;"/>
   </g>
   <g id="line2d_13">
    <path clip-path="url(#pc3cad3a820)" d="M 247.942748 185.398125 
L 247.942748 181.685755 
" style="fill:none;stroke:#e377c2;stroke-linecap:round;stroke-width:1.5;"/>
   </g>
   <g id="line2d_14">
    <path clip-path="url(#pc3cad3a820)" d="M 283.140747 185.398125 
L 283.140747 183.221453 
" style="fill:none;stroke:#e377c2;stroke-linecap:round;stroke-width:1.5;"/>
   </g>
   <g id="line2d_15">
    <path clip-path="url(#pc3cad3a820)" d="M 283.559771 185.398125 
L 283.559771 183.237713 
" style="fill:none;stroke:#7f7f7f;stroke-linecap:round;stroke-width:1.5;"/>
   </g>
   <g id="line2d_16">
    <path clip-path="url(#pc3cad3a820)" d="M 369.040625 185.398125 
L 369.040625 185.044784 
" style="fill:none;stroke:#7f7f7f;stroke-linecap:round;stroke-width:1.5;"/>
   </g>
   <g id="line2d_17">
    <path clip-path="url(#pc3cad3a820)" d="M 34.240625 183.298412 
L 48.068407 182.518138 
L 60.220095 181.612772 
L 71.114722 180.583393 
L 81.171283 179.415444 
L 90.808831 178.071125 
L 100.027356 176.557562 
L 108.826857 174.892737 
L 118.045381 172.916667 
L 120.140498 172.435657 
L 120.559521 150.571387 
L 126.844877 146.531917 
L 133.968284 141.67873 
L 142.76778 135.397518 
L 155.75752 126.000212 
L 156.176543 66.008471 
L 162.042878 57.892057 
L 166.65214 51.866671 
L 170.842377 46.755917 
L 174.61359 42.523685 
L 177.965782 39.101859 
L 180.060901 37.14358 
L 180.479924 111.083851 
L 184.251139 109.540704 
L 187.603328 108.392882 
L 190.955519 107.470333 
L 194.307709 106.784409 
L 197.659899 106.343721 
L 201.012089 106.153843 
L 201.431113 106.147901 
L 201.850137 155.678547 
L 206.878422 155.785282 
L 211.906707 156.102433 
L 217.354017 156.672933 
L 222.801326 157.461281 
L 223.220349 157.530272 
L 223.639372 176.132217 
L 234.533993 176.857793 
L 247.523725 177.936271 
L 247.942748 181.685755 
L 293.616347 183.604623 
L 315.405582 184.239183 
L 339.289935 184.705685 
L 368.202578 185.03791 
L 369.040625 185.044784 
L 369.040625 185.044784 
" style="fill:none;stroke:#000000;stroke-linecap:round;stroke-width:1.5;"/>
   </g>
   <g id="patch_3">
    <path d="M 34.240625 185.398125 
L 34.240625 22.318125 
" style="fill:none;stroke:#262626;stroke-linecap:square;stroke-linejoin:miter;stroke-width:0.8;"/>
   </g>
   <g id="patch_4">
    <path d="M 369.040625 185.398125 
L 369.040625 22.318125 
" style="fill:none;stroke:#262626;stroke-linecap:square;stroke-linejoin:miter;stroke-width:0.8;"/>
   </g>
   <g id="patch_5">
    <path d="M 34.240625 185.398125 
L 369.040625 185.398125 
" style="fill:none;stroke:#262626;stroke-linecap:square;stroke-linejoin:miter;stroke-width:0.8;"/>
   </g>
   <g id="patch_6">
    <path d="M 34.240625 22.318125 
L 369.040625 22.318125 
" style="fill:none;stroke:#262626;stroke-linecap:square;stroke-linejoin:miter;stroke-width:0.8;"/>
   </g>
   <g id="text_19">
    <!-- Dequantization distribution for 8 discrete values -->
    <g style="fill:#262626;" transform="translate(56.623438 16.318125)scale(0.12 -0.12)">
     <defs>
      <path d="M 1259 4147 
L 1259 519 
L 2022 519 
Q 2988 519 3436 956 
Q 3884 1394 3884 2338 
Q 3884 3275 3436 3711 
Q 2988 4147 2022 4147 
L 1259 4147 
z
M 628 4666 
L 1925 4666 
Q 3281 4666 3915 4102 
Q 4550 3538 4550 2338 
Q 4550 1131 3912 565 
Q 3275 0 1925 0 
L 628 0 
L 628 4666 
z
" id="DejaVuSans-44" transform="scale(0.015625)"/>
      <path d="M 3597 1894 
L 3597 1613 
L 953 1613 
Q 991 1019 1311 708 
Q 1631 397 2203 397 
Q 2534 397 2845 478 
Q 3156 559 3463 722 
L 3463 178 
Q 3153 47 2828 -22 
Q 2503 -91 2169 -91 
Q 1331 -91 842 396 
Q 353 884 353 1716 
Q 353 2575 817 3079 
Q 1281 3584 2069 3584 
Q 2775 3584 3186 3129 
Q 3597 2675 3597 1894 
z
M 3022 2063 
Q 3016 2534 2758 2815 
Q 2500 3097 2075 3097 
Q 1594 3097 1305 2825 
Q 1016 2553 972 2059 
L 3022 2063 
z
" id="DejaVuSans-65" transform="scale(0.015625)"/>
      <path d="M 947 1747 
Q 947 1113 1208 752 
Q 1469 391 1925 391 
Q 2381 391 2643 752 
Q 2906 1113 2906 1747 
Q 2906 2381 2643 2742 
Q 2381 3103 1925 3103 
Q 1469 3103 1208 2742 
Q 947 2381 947 1747 
z
M 2906 525 
Q 2725 213 2448 61 
Q 2172 -91 1784 -91 
Q 1150 -91 751 415 
Q 353 922 353 1747 
Q 353 2572 751 3078 
Q 1150 3584 1784 3584 
Q 2172 3584 2448 3432 
Q 2725 3281 2906 2969 
L 2906 3500 
L 3481 3500 
L 3481 -1331 
L 2906 -1331 
L 2906 525 
z
" id="DejaVuSans-71" transform="scale(0.015625)"/>
      <path d="M 544 1381 
L 544 3500 
L 1119 3500 
L 1119 1403 
Q 1119 906 1312 657 
Q 1506 409 1894 409 
Q 2359 409 2629 706 
Q 2900 1003 2900 1516 
L 2900 3500 
L 3475 3500 
L 3475 0 
L 2900 0 
L 2900 538 
Q 2691 219 2414 64 
Q 2138 -91 1772 -91 
Q 1169 -91 856 284 
Q 544 659 544 1381 
z
M 1991 3584 
L 1991 3584 
z
" id="DejaVuSans-75" transform="scale(0.015625)"/>
      <path d="M 3513 2113 
L 3513 0 
L 2938 0 
L 2938 2094 
Q 2938 2591 2744 2837 
Q 2550 3084 2163 3084 
Q 1697 3084 1428 2787 
Q 1159 2491 1159 1978 
L 1159 0 
L 581 0 
L 581 3500 
L 1159 3500 
L 1159 2956 
Q 1366 3272 1645 3428 
Q 1925 3584 2291 3584 
Q 2894 3584 3203 3211 
Q 3513 2838 3513 2113 
z
" id="DejaVuSans-6e" transform="scale(0.015625)"/>
      <path id="DejaVuSans-20" transform="scale(0.015625)"/>
      <path d="M 2906 2969 
L 2906 4863 
L 3481 4863 
L 3481 0 
L 2906 0 
L 2906 525 
Q 2725 213 2448 61 
Q 2172 -91 1784 -91 
Q 1150 -91 751 415 
Q 353 922 353 1747 
Q 353 2572 751 3078 
Q 1150 3584 1784 3584 
Q 2172 3584 2448 3432 
Q 2725 3281 2906 2969 
z
M 947 1747 
Q 947 1113 1208 752 
Q 1469 391 1925 391 
Q 2381 391 2643 752 
Q 2906 1113 2906 1747 
Q 2906 2381 2643 2742 
Q 2381 3103 1925 3103 
Q 1469 3103 1208 2742 
Q 947 2381 947 1747 
z
" id="DejaVuSans-64" transform="scale(0.015625)"/>
      <path d="M 2834 3397 
L 2834 2853 
Q 2591 2978 2328 3040 
Q 2066 3103 1784 3103 
Q 1356 3103 1142 2972 
Q 928 2841 928 2578 
Q 928 2378 1081 2264 
Q 1234 2150 1697 2047 
L 1894 2003 
Q 2506 1872 2764 1633 
Q 3022 1394 3022 966 
Q 3022 478 2636 193 
Q 2250 -91 1575 -91 
Q 1294 -91 989 -36 
Q 684 19 347 128 
L 347 722 
Q 666 556 975 473 
Q 1284 391 1588 391 
Q 1994 391 2212 530 
Q 2431 669 2431 922 
Q 2431 1156 2273 1281 
Q 2116 1406 1581 1522 
L 1381 1569 
Q 847 1681 609 1914 
Q 372 2147 372 2553 
Q 372 3047 722 3315 
Q 1072 3584 1716 3584 
Q 2034 3584 2315 3537 
Q 2597 3491 2834 3397 
z
" id="DejaVuSans-73" transform="scale(0.015625)"/>
      <path d="M 2375 4863 
L 2375 4384 
L 1825 4384 
Q 1516 4384 1395 4259 
Q 1275 4134 1275 3809 
L 1275 3500 
L 2222 3500 
L 2222 3053 
L 1275 3053 
L 1275 0 
L 697 0 
L 697 3053 
L 147 3053 
L 147 3500 
L 697 3500 
L 697 3744 
Q 697 4328 969 4595 
Q 1241 4863 1831 4863 
L 2375 4863 
z
" id="DejaVuSans-66" transform="scale(0.015625)"/>
      <path d="M 2034 2216 
Q 1584 2216 1326 1975 
Q 1069 1734 1069 1313 
Q 1069 891 1326 650 
Q 1584 409 2034 409 
Q 2484 409 2743 651 
Q 3003 894 3003 1313 
Q 3003 1734 2745 1975 
Q 2488 2216 2034 2216 
z
M 1403 2484 
Q 997 2584 770 2862 
Q 544 3141 544 3541 
Q 544 4100 942 4425 
Q 1341 4750 2034 4750 
Q 2731 4750 3128 4425 
Q 3525 4100 3525 3541 
Q 3525 3141 3298 2862 
Q 3072 2584 2669 2484 
Q 3125 2378 3379 2068 
Q 3634 1759 3634 1313 
Q 3634 634 3220 271 
Q 2806 -91 2034 -91 
Q 1263 -91 848 271 
Q 434 634 434 1313 
Q 434 1759 690 2068 
Q 947 2378 1403 2484 
z
M 1172 3481 
Q 1172 3119 1398 2916 
Q 1625 2713 2034 2713 
Q 2441 2713 2670 2916 
Q 2900 3119 2900 3481 
Q 2900 3844 2670 4047 
Q 2441 4250 2034 4250 
Q 1625 4250 1398 4047 
Q 1172 3844 1172 3481 
z
" id="DejaVuSans-38" transform="scale(0.015625)"/>
      <path d="M 3122 3366 
L 3122 2828 
Q 2878 2963 2633 3030 
Q 2388 3097 2138 3097 
Q 1578 3097 1268 2742 
Q 959 2388 959 1747 
Q 959 1106 1268 751 
Q 1578 397 2138 397 
Q 2388 397 2633 464 
Q 2878 531 3122 666 
L 3122 134 
Q 2881 22 2623 -34 
Q 2366 -91 2075 -91 
Q 1284 -91 818 406 
Q 353 903 353 1747 
Q 353 2603 823 3093 
Q 1294 3584 2113 3584 
Q 2378 3584 2631 3529 
Q 2884 3475 3122 3366 
z
" id="DejaVuSans-63" transform="scale(0.015625)"/>
      <path d="M 191 3500 
L 800 3500 
L 1894 563 
L 2988 3500 
L 3597 3500 
L 2284 0 
L 1503 0 
L 191 3500 
z
" id="DejaVuSans-76" transform="scale(0.015625)"/>
     </defs>
     <use xlink:href="#DejaVuSans-44"/>
     <use x="77.001953" xlink:href="#DejaVuSans-65"/>
     <use x="138.525391" xlink:href="#DejaVuSans-71"/>
     <use x="202.001953" xlink:href="#DejaVuSans-75"/>
     <use x="265.380859" xlink:href="#DejaVuSans-61"/>
     <use x="326.660156" xlink:href="#DejaVuSans-6e"/>
     <use x="390.039062" xlink:href="#DejaVuSans-74"/>
     <use x="429.248047" xlink:href="#DejaVuSans-69"/>
     <use x="457.03125" xlink:href="#DejaVuSans-7a"/>
     <use x="509.521484" xlink:href="#DejaVuSans-61"/>
     <use x="570.800781" xlink:href="#DejaVuSans-74"/>
     <use x="610.009766" xlink:href="#DejaVuSans-69"/>
     <use x="637.792969" xlink:href="#DejaVuSans-6f"/>
     <use x="698.974609" xlink:href="#DejaVuSans-6e"/>
     <use x="762.353516" xlink:href="#DejaVuSans-20"/>
     <use x="794.140625" xlink:href="#DejaVuSans-64"/>
     <use x="857.617188" xlink:href="#DejaVuSans-69"/>
     <use x="885.400391" xlink:href="#DejaVuSans-73"/>
     <use x="937.5" xlink:href="#DejaVuSans-74"/>
     <use x="976.708984" xlink:href="#DejaVuSans-72"/>
     <use x="1017.822266" xlink:href="#DejaVuSans-69"/>
     <use x="1045.605469" xlink:href="#DejaVuSans-62"/>
     <use x="1109.082031" xlink:href="#DejaVuSans-75"/>
     <use x="1172.460938" xlink:href="#DejaVuSans-74"/>
     <use x="1211.669922" xlink:href="#DejaVuSans-69"/>
     <use x="1239.453125" xlink:href="#DejaVuSans-6f"/>
     <use x="1300.634766" xlink:href="#DejaVuSans-6e"/>
     <use x="1364.013672" xlink:href="#DejaVuSans-20"/>
     <use x="1395.800781" xlink:href="#DejaVuSans-66"/>
     <use x="1431.005859" xlink:href="#DejaVuSans-6f"/>
     <use x="1492.1875" xlink:href="#DejaVuSans-72"/>
     <use x="1533.300781" xlink:href="#DejaVuSans-20"/>
     <use x="1565.087891" xlink:href="#DejaVuSans-38"/>
     <use x="1628.710938" xlink:href="#DejaVuSans-20"/>
     <use x="1660.498047" xlink:href="#DejaVuSans-64"/>
     <use x="1723.974609" xlink:href="#DejaVuSans-69"/>
     <use x="1751.757812" xlink:href="#DejaVuSans-73"/>
     <use x="1803.857422" xlink:href="#DejaVuSans-63"/>
     <use x="1858.837891" xlink:href="#DejaVuSans-72"/>
     <use x="1897.701172" xlink:href="#DejaVuSans-65"/>
     <use x="1959.224609" xlink:href="#DejaVuSans-74"/>
     <use x="1998.433594" xlink:href="#DejaVuSans-65"/>
     <use x="2059.957031" xlink:href="#DejaVuSans-20"/>
     <use x="2091.744141" xlink:href="#DejaVuSans-76"/>
     <use x="2150.923828" xlink:href="#DejaVuSans-61"/>
     <use x="2212.203125" xlink:href="#DejaVuSans-6c"/>
     <use x="2239.986328" xlink:href="#DejaVuSans-75"/>
     <use x="2303.365234" xlink:href="#DejaVuSans-65"/>
     <use x="2364.888672" xlink:href="#DejaVuSans-73"/>
    </g>
   </g>
   <g id="legend_1">
    <g id="patch_7">
     <path d="M 323.678125 147.743125 
L 362.040625 147.743125 
Q 364.040625 147.743125 364.040625 145.743125 
L 364.040625 29.318125 
Q 364.040625 27.318125 362.040625 27.318125 
L 323.678125 27.318125 
Q 321.678125 27.318125 321.678125 29.318125 
L 321.678125 145.743125 
Q 321.678125 147.743125 323.678125 147.743125 
z
" style="fill:#ffffff;opacity:0.8;stroke:#cccccc;stroke-linejoin:miter;"/>
    </g>
    <g id="patch_8">
     <path d="M 325.678125 38.916562 
L 345.678125 38.916562 
L 345.678125 31.916562 
L 325.678125 31.916562 
z
" style="fill:#1f77b4;fill-opacity:0.5;stroke:#1f77b4;stroke-linejoin:miter;stroke-opacity:0.5;"/>
    </g>
    <g id="text_20">
     <!-- 0 -->
     <g style="fill:#262626;" transform="translate(353.678125 38.916562)scale(0.1 -0.1)">
      <use xlink:href="#DejaVuSans-30"/>
     </g>
    </g>
    <g id="patch_9">
     <path d="M 325.678125 53.594687 
L 345.678125 53.594687 
L 345.678125 46.594687 
L 325.678125 46.594687 
z
" style="fill:#ff7f0e;fill-opacity:0.5;stroke:#ff7f0e;stroke-linejoin:miter;stroke-opacity:0.5;"/>
    </g>
    <g id="text_21">
     <!-- 1 -->
     <g style="fill:#262626;" transform="translate(353.678125 53.594687)scale(0.1 -0.1)">
      <use xlink:href="#DejaVuSans-31"/>
     </g>
    </g>
    <g id="patch_10">
     <path d="M 325.678125 68.272812 
L 345.678125 68.272812 
L 345.678125 61.272812 
L 325.678125 61.272812 
z
" style="fill:#2ca02c;fill-opacity:0.5;stroke:#2ca02c;stroke-linejoin:miter;stroke-opacity:0.5;"/>
    </g>
    <g id="text_22">
     <!-- 2 -->
     <g style="fill:#262626;" transform="translate(353.678125 68.272812)scale(0.1 -0.1)">
      <use xlink:href="#DejaVuSans-32"/>
     </g>
    </g>
    <g id="patch_11">
     <path d="M 325.678125 82.950937 
L 345.678125 82.950937 
L 345.678125 75.950937 
L 325.678125 75.950937 
z
" style="fill:#d62728;fill-opacity:0.5;stroke:#d62728;stroke-linejoin:miter;stroke-opacity:0.5;"/>
    </g>
    <g id="text_23">
     <!-- 3 -->
     <g style="fill:#262626;" transform="translate(353.678125 82.950937)scale(0.1 -0.1)">
      <use xlink:href="#DejaVuSans-33"/>
     </g>
    </g>
    <g id="patch_12">
     <path d="M 325.678125 97.629062 
L 345.678125 97.629062 
L 345.678125 90.629062 
L 325.678125 90.629062 
z
" style="fill:#9467bd;fill-opacity:0.5;stroke:#9467bd;stroke-linejoin:miter;stroke-opacity:0.5;"/>
    </g>
    <g id="text_24">
     <!-- 4 -->
     <g style="fill:#262626;" transform="translate(353.678125 97.629062)scale(0.1 -0.1)">
      <use xlink:href="#DejaVuSans-34"/>
     </g>
    </g>
    <g id="patch_13">
     <path d="M 325.678125 112.307187 
L 345.678125 112.307187 
L 345.678125 105.307187 
L 325.678125 105.307187 
z
" style="fill:#8c564b;fill-opacity:0.5;stroke:#8c564b;stroke-linejoin:miter;stroke-opacity:0.5;"/>
    </g>
    <g id="text_25">
     <!-- 5 -->
     <g style="fill:#262626;" transform="translate(353.678125 112.307187)scale(0.1 -0.1)">
      <use xlink:href="#DejaVuSans-35"/>
     </g>
    </g>
    <g id="patch_14">
     <path d="M 325.678125 126.985312 
L 345.678125 126.985312 
L 345.678125 119.985312 
L 325.678125 119.985312 
z
" style="fill:#e377c2;fill-opacity:0.5;stroke:#e377c2;stroke-linejoin:miter;stroke-opacity:0.5;"/>
    </g>
    <g id="text_26">
     <!-- 6 -->
     <g style="fill:#262626;" transform="translate(353.678125 126.985312)scale(0.1 -0.1)">
      <use xlink:href="#DejaVuSans-36"/>
     </g>
    </g>
    <g id="patch_15">
     <path d="M 325.678125 141.663437 
L 345.678125 141.663437 
L 345.678125 134.663437 
L 325.678125 134.663437 
z
" style="fill:#7f7f7f;fill-opacity:0.5;stroke:#7f7f7f;stroke-linejoin:miter;stroke-opacity:0.5;"/>
    </g>
    <g id="text_27">
     <!-- 7 -->
     <g style="fill:#262626;" transform="translate(353.678125 141.663437)scale(0.1 -0.1)">
      <defs>
       <path d="M 525 4666 
L 3525 4666 
L 3525 4397 
L 1831 0 
L 1172 0 
L 2766 4134 
L 525 4134 
L 525 4666 
z
" id="DejaVuSans-37" transform="scale(0.015625)"/>
      </defs>
      <use xlink:href="#DejaVuSans-37"/>
     </g>
    </g>
   </g>
  </g>
 </g>
 <defs>
  <clipPath id="pc3cad3a820">
   <rect height="163.08" width="334.8" x="34.240625" y="22.318125"/>
  </clipPath>
 </defs>
</svg>
