<?xml version="1.0" encoding="utf-8" standalone="no"?>
<!DOCTYPE svg PUBLIC "-//W3C//DTD SVG 1.1//EN"
  "http://www.w3.org/Graphics/SVG/1.1/DTD/svg11.dtd">
<svg height="222.954375pt" version="1.1" viewBox="0 0 393.732813 222.954375" width="393.732813pt" xmlns="http://www.w3.org/2000/svg" xmlns:xlink="http://www.w3.org/1999/xlink">
 <metadata>
  <rdf:RDF xmlns:cc="http://creativecommons.org/ns#" xmlns:dc="http://purl.org/dc/elements/1.1/" xmlns:rdf="http://www.w3.org/1999/02/22-rdf-syntax-ns#">
   <cc:Work>
    <dc:type rdf:resource="http://purl.org/dc/dcmitype/StillImage"/>
    <dc:date>2021-09-16T14:41:55.273989</dc:date>
    <dc:format>image/svg+xml</dc:format>
    <dc:creator>
     <cc:Agent>
      <dc:title>Matplotlib v3.4.3, https://matplotlib.org/</dc:title>
     </cc:Agent>
    </dc:creator>
   </cc:Work>
  </rdf:RDF>
 </metadata>
 <defs>
  <style type="text/css">*{stroke-linecap:butt;stroke-linejoin:round;}</style>
 </defs>
 <g id="figure_1">
  <g id="patch_1">
   <path d="M 0 222.954375 
L 393.732813 222.954375 
L 393.732813 0 
L 0 0 
z
" style="fill:#ffffff;"/>
  </g>
  <g id="axes_1">
   <g id="patch_2">
    <path d="M 43.78125 185.398125 
L 378.58125 185.398125 
L 378.58125 22.318125 
L 43.78125 22.318125 
z
" style="fill:#ffffff;"/>
   </g>
   <g id="matplotlib.axis_1">
    <g id="xtick_1">
     <g id="text_1">
      <!-- -4.0 -->
      <g style="fill:#262626;" transform="translate(34.025781 199.996562)scale(0.1 -0.1)">
       <defs>
        <path d="M 313 2009 
L 1997 2009 
L 1997 1497 
L 313 1497 
L 313 2009 
z
" id="DejaVuSans-2d" transform="scale(0.015625)"/>
        <path d="M 2419 4116 
L 825 1625 
L 2419 1625 
L 2419 4116 
z
M 2253 4666 
L 3047 4666 
L 3047 1625 
L 3713 1625 
L 3713 1100 
L 3047 1100 
L 3047 0 
L 2419 0 
L 2419 1100 
L 313 1100 
L 313 1709 
L 2253 4666 
z
" id="DejaVuSans-34" transform="scale(0.015625)"/>
        <path d="M 684 794 
L 1344 794 
L 1344 0 
L 684 0 
L 684 794 
z
" id="DejaVuSans-2e" transform="scale(0.015625)"/>
        <path d="M 2034 4250 
Q 1547 4250 1301 3770 
Q 1056 3291 1056 2328 
Q 1056 1369 1301 889 
Q 1547 409 2034 409 
Q 2525 409 2770 889 
Q 3016 1369 3016 2328 
Q 3016 3291 2770 3770 
Q 2525 4250 2034 4250 
z
M 2034 4750 
Q 2819 4750 3233 4129 
Q 3647 3509 3647 2328 
Q 3647 1150 3233 529 
Q 2819 -91 2034 -91 
Q 1250 -91 836 529 
Q 422 1150 422 2328 
Q 422 3509 836 4129 
Q 1250 4750 2034 4750 
z
" id="DejaVuSans-30" transform="scale(0.015625)"/>
       </defs>
       <use xlink:href="#DejaVuSans-2d"/>
       <use x="36.083984" xlink:href="#DejaVuSans-34"/>
       <use x="99.707031" xlink:href="#DejaVuSans-2e"/>
       <use x="131.494141" xlink:href="#DejaVuSans-30"/>
      </g>
     </g>
    </g>
    <g id="xtick_2">
     <g id="text_2">
      <!-- -1.9 -->
      <g style="fill:#262626;" transform="translate(120.344677 199.996562)scale(0.1 -0.1)">
       <defs>
        <path d="M 794 531 
L 1825 531 
L 1825 4091 
L 703 3866 
L 703 4441 
L 1819 4666 
L 2450 4666 
L 2450 531 
L 3481 531 
L 3481 0 
L 794 0 
L 794 531 
z
" id="DejaVuSans-31" transform="scale(0.015625)"/>
        <path d="M 703 97 
L 703 672 
Q 941 559 1184 500 
Q 1428 441 1663 441 
Q 2288 441 2617 861 
Q 2947 1281 2994 2138 
Q 2813 1869 2534 1725 
Q 2256 1581 1919 1581 
Q 1219 1581 811 2004 
Q 403 2428 403 3163 
Q 403 3881 828 4315 
Q 1253 4750 1959 4750 
Q 2769 4750 3195 4129 
Q 3622 3509 3622 2328 
Q 3622 1225 3098 567 
Q 2575 -91 1691 -91 
Q 1453 -91 1209 -44 
Q 966 3 703 97 
z
M 1959 2075 
Q 2384 2075 2632 2365 
Q 2881 2656 2881 3163 
Q 2881 3666 2632 3958 
Q 2384 4250 1959 4250 
Q 1534 4250 1286 3958 
Q 1038 3666 1038 3163 
Q 1038 2656 1286 2365 
Q 1534 2075 1959 2075 
z
" id="DejaVuSans-39" transform="scale(0.015625)"/>
       </defs>
       <use xlink:href="#DejaVuSans-2d"/>
       <use x="36.083984" xlink:href="#DejaVuSans-31"/>
       <use x="99.707031" xlink:href="#DejaVuSans-2e"/>
       <use x="131.494141" xlink:href="#DejaVuSans-39"/>
      </g>
     </g>
    </g>
    <g id="xtick_3">
     <g id="text_3">
      <!-- -1.1 -->
      <g style="fill:#262626;" transform="translate(155.9617 199.996562)scale(0.1 -0.1)">
       <use xlink:href="#DejaVuSans-2d"/>
       <use x="36.083984" xlink:href="#DejaVuSans-31"/>
       <use x="99.707031" xlink:href="#DejaVuSans-2e"/>
       <use x="131.494141" xlink:href="#DejaVuSans-31"/>
      </g>
     </g>
    </g>
    <g id="xtick_4">
     <g id="text_4">
      <!-- -0.5 -->
      <g style="fill:#262626;" transform="translate(180.265081 199.996562)scale(0.1 -0.1)">
       <defs>
        <path d="M 691 4666 
L 3169 4666 
L 3169 4134 
L 1269 4134 
L 1269 2991 
Q 1406 3038 1543 3061 
Q 1681 3084 1819 3084 
Q 2600 3084 3056 2656 
Q 3513 2228 3513 1497 
Q 3513 744 3044 326 
Q 2575 -91 1722 -91 
Q 1428 -91 1123 -41 
Q 819 9 494 109 
L 494 744 
Q 775 591 1075 516 
Q 1375 441 1709 441 
Q 2250 441 2565 725 
Q 2881 1009 2881 1497 
Q 2881 1984 2565 2268 
Q 2250 2553 1709 2553 
Q 1456 2553 1204 2497 
Q 953 2441 691 2322 
L 691 4666 
z
" id="DejaVuSans-35" transform="scale(0.015625)"/>
       </defs>
       <use xlink:href="#DejaVuSans-2d"/>
       <use x="36.083984" xlink:href="#DejaVuSans-30"/>
       <use x="99.707031" xlink:href="#DejaVuSans-2e"/>
       <use x="131.494141" xlink:href="#DejaVuSans-35"/>
      </g>
     </g>
    </g>
    <g id="xtick_5">
     <g id="text_5">
      <!-- 0.0 -->
      <g style="fill:#262626;" transform="translate(203.439199 199.996562)scale(0.1 -0.1)">
       <use xlink:href="#DejaVuSans-30"/>
       <use x="63.623047" xlink:href="#DejaVuSans-2e"/>
       <use x="95.410156" xlink:href="#DejaVuSans-30"/>
      </g>
     </g>
    </g>
    <g id="xtick_6">
     <g id="text_6">
      <!-- 0.5 -->
      <g style="fill:#262626;" transform="translate(225.228435 199.996562)scale(0.1 -0.1)">
       <use xlink:href="#DejaVuSans-30"/>
       <use x="63.623047" xlink:href="#DejaVuSans-2e"/>
       <use x="95.410156" xlink:href="#DejaVuSans-35"/>
      </g>
     </g>
    </g>
    <g id="xtick_7">
     <g id="text_7">
      <!-- 1.1 -->
      <g style="fill:#262626;" transform="translate(249.531811 199.996562)scale(0.1 -0.1)">
       <use xlink:href="#DejaVuSans-31"/>
       <use x="63.623047" xlink:href="#DejaVuSans-2e"/>
       <use x="95.410156" xlink:href="#DejaVuSans-31"/>
      </g>
     </g>
    </g>
    <g id="xtick_8">
     <g id="text_8">
      <!-- 1.9 -->
      <g style="fill:#262626;" transform="translate(285.148833 199.996562)scale(0.1 -0.1)">
       <use xlink:href="#DejaVuSans-31"/>
       <use x="63.623047" xlink:href="#DejaVuSans-2e"/>
       <use x="95.410156" xlink:href="#DejaVuSans-39"/>
      </g>
     </g>
    </g>
    <g id="xtick_9">
     <g id="text_9">
      <!-- 4.0 -->
      <g style="fill:#262626;" transform="translate(370.629688 199.996562)scale(0.1 -0.1)">
       <use xlink:href="#DejaVuSans-34"/>
       <use x="63.623047" xlink:href="#DejaVuSans-2e"/>
       <use x="95.410156" xlink:href="#DejaVuSans-30"/>
      </g>
     </g>
    </g>
    <g id="text_10">
     <!-- z -->
     <g style="fill:#262626;" transform="translate(208.557031 213.674688)scale(0.1 -0.1)">
      <defs>
       <path d="M 353 3500 
L 3084 3500 
L 3084 2975 
L 922 459 
L 3084 459 
L 3084 0 
L 275 0 
L 275 525 
L 2438 3041 
L 353 3041 
L 353 3500 
z
" id="DejaVuSans-7a" transform="scale(0.015625)"/>
      </defs>
      <use xlink:href="#DejaVuSans-7a"/>
     </g>
    </g>
   </g>
   <g id="matplotlib.axis_2">
    <g id="ytick_1">
     <g id="text_11">
      <!-- 0.0 -->
      <g style="fill:#262626;" transform="translate(20.878125 189.197344)scale(0.1 -0.1)">
       <use xlink:href="#DejaVuSans-30"/>
       <use x="63.623047" xlink:href="#DejaVuSans-2e"/>
       <use x="95.410156" xlink:href="#DejaVuSans-30"/>
      </g>
     </g>
    </g>
    <g id="ytick_2">
     <g id="text_12">
      <!-- 0.5 -->
      <g style="fill:#262626;" transform="translate(20.878125 152.133707)scale(0.1 -0.1)">
       <use xlink:href="#DejaVuSans-30"/>
       <use x="63.623047" xlink:href="#DejaVuSans-2e"/>
       <use x="95.410156" xlink:href="#DejaVuSans-35"/>
      </g>
     </g>
    </g>
    <g id="ytick_3">
     <g id="text_13">
      <!-- 1.0 -->
      <g style="fill:#262626;" transform="translate(20.878125 115.070071)scale(0.1 -0.1)">
       <use xlink:href="#DejaVuSans-31"/>
       <use x="63.623047" xlink:href="#DejaVuSans-2e"/>
       <use x="95.410156" xlink:href="#DejaVuSans-30"/>
      </g>
     </g>
    </g>
    <g id="ytick_4">
     <g id="text_14">
      <!-- 1.5 -->
      <g style="fill:#262626;" transform="translate(20.878125 78.006435)scale(0.1 -0.1)">
       <use xlink:href="#DejaVuSans-31"/>
       <use x="63.623047" xlink:href="#DejaVuSans-2e"/>
       <use x="95.410156" xlink:href="#DejaVuSans-35"/>
      </g>
     </g>
    </g>
    <g id="ytick_5">
     <g id="text_15">
      <!-- 2.0 -->
      <g style="fill:#262626;" transform="translate(20.878125 40.942798)scale(0.1 -0.1)">
       <defs>
        <path d="M 1228 531 
L 3431 531 
L 3431 0 
L 469 0 
L 469 531 
Q 828 903 1448 1529 
Q 2069 2156 2228 2338 
Q 2531 2678 2651 2914 
Q 2772 3150 2772 3378 
Q 2772 3750 2511 3984 
Q 2250 4219 1831 4219 
Q 1534 4219 1204 4116 
Q 875 4013 500 3803 
L 500 4441 
Q 881 4594 1212 4672 
Q 1544 4750 1819 4750 
Q 2544 4750 2975 4387 
Q 3406 4025 3406 3419 
Q 3406 3131 3298 2873 
Q 3191 2616 2906 2266 
Q 2828 2175 2409 1742 
Q 1991 1309 1228 531 
z
" id="DejaVuSans-32" transform="scale(0.015625)"/>
       </defs>
       <use xlink:href="#DejaVuSans-32"/>
       <use x="63.623047" xlink:href="#DejaVuSans-2e"/>
       <use x="95.410156" xlink:href="#DejaVuSans-30"/>
      </g>
     </g>
    </g>
    <g id="text_16">
     <!-- Probability -->
     <g style="fill:#262626;" transform="translate(14.798438 130.287031)rotate(-90)scale(0.1 -0.1)">
      <defs>
       <path d="M 1259 4147 
L 1259 2394 
L 2053 2394 
Q 2494 2394 2734 2622 
Q 2975 2850 2975 3272 
Q 2975 3691 2734 3919 
Q 2494 4147 2053 4147 
L 1259 4147 
z
M 628 4666 
L 2053 4666 
Q 2838 4666 3239 4311 
Q 3641 3956 3641 3272 
Q 3641 2581 3239 2228 
Q 2838 1875 2053 1875 
L 1259 1875 
L 1259 0 
L 628 0 
L 628 4666 
z
" id="DejaVuSans-50" transform="scale(0.015625)"/>
       <path d="M 2631 2963 
Q 2534 3019 2420 3045 
Q 2306 3072 2169 3072 
Q 1681 3072 1420 2755 
Q 1159 2438 1159 1844 
L 1159 0 
L 581 0 
L 581 3500 
L 1159 3500 
L 1159 2956 
Q 1341 3275 1631 3429 
Q 1922 3584 2338 3584 
Q 2397 3584 2469 3576 
Q 2541 3569 2628 3553 
L 2631 2963 
z
" id="DejaVuSans-72" transform="scale(0.015625)"/>
       <path d="M 1959 3097 
Q 1497 3097 1228 2736 
Q 959 2375 959 1747 
Q 959 1119 1226 758 
Q 1494 397 1959 397 
Q 2419 397 2687 759 
Q 2956 1122 2956 1747 
Q 2956 2369 2687 2733 
Q 2419 3097 1959 3097 
z
M 1959 3584 
Q 2709 3584 3137 3096 
Q 3566 2609 3566 1747 
Q 3566 888 3137 398 
Q 2709 -91 1959 -91 
Q 1206 -91 779 398 
Q 353 888 353 1747 
Q 353 2609 779 3096 
Q 1206 3584 1959 3584 
z
" id="DejaVuSans-6f" transform="scale(0.015625)"/>
       <path d="M 3116 1747 
Q 3116 2381 2855 2742 
Q 2594 3103 2138 3103 
Q 1681 3103 1420 2742 
Q 1159 2381 1159 1747 
Q 1159 1113 1420 752 
Q 1681 391 2138 391 
Q 2594 391 2855 752 
Q 3116 1113 3116 1747 
z
M 1159 2969 
Q 1341 3281 1617 3432 
Q 1894 3584 2278 3584 
Q 2916 3584 3314 3078 
Q 3713 2572 3713 1747 
Q 3713 922 3314 415 
Q 2916 -91 2278 -91 
Q 1894 -91 1617 61 
Q 1341 213 1159 525 
L 1159 0 
L 581 0 
L 581 4863 
L 1159 4863 
L 1159 2969 
z
" id="DejaVuSans-62" transform="scale(0.015625)"/>
       <path d="M 2194 1759 
Q 1497 1759 1228 1600 
Q 959 1441 959 1056 
Q 959 750 1161 570 
Q 1363 391 1709 391 
Q 2188 391 2477 730 
Q 2766 1069 2766 1631 
L 2766 1759 
L 2194 1759 
z
M 3341 1997 
L 3341 0 
L 2766 0 
L 2766 531 
Q 2569 213 2275 61 
Q 1981 -91 1556 -91 
Q 1019 -91 701 211 
Q 384 513 384 1019 
Q 384 1609 779 1909 
Q 1175 2209 1959 2209 
L 2766 2209 
L 2766 2266 
Q 2766 2663 2505 2880 
Q 2244 3097 1772 3097 
Q 1472 3097 1187 3025 
Q 903 2953 641 2809 
L 641 3341 
Q 956 3463 1253 3523 
Q 1550 3584 1831 3584 
Q 2591 3584 2966 3190 
Q 3341 2797 3341 1997 
z
" id="DejaVuSans-61" transform="scale(0.015625)"/>
       <path d="M 603 3500 
L 1178 3500 
L 1178 0 
L 603 0 
L 603 3500 
z
M 603 4863 
L 1178 4863 
L 1178 4134 
L 603 4134 
L 603 4863 
z
" id="DejaVuSans-69" transform="scale(0.015625)"/>
       <path d="M 603 4863 
L 1178 4863 
L 1178 0 
L 603 0 
L 603 4863 
z
" id="DejaVuSans-6c" transform="scale(0.015625)"/>
       <path d="M 1172 4494 
L 1172 3500 
L 2356 3500 
L 2356 3053 
L 1172 3053 
L 1172 1153 
Q 1172 725 1289 603 
Q 1406 481 1766 481 
L 2356 481 
L 2356 0 
L 1766 0 
Q 1100 0 847 248 
Q 594 497 594 1153 
L 594 3053 
L 172 3053 
L 172 3500 
L 594 3500 
L 594 4494 
L 1172 4494 
z
" id="DejaVuSans-74" transform="scale(0.015625)"/>
       <path d="M 2059 -325 
Q 1816 -950 1584 -1140 
Q 1353 -1331 966 -1331 
L 506 -1331 
L 506 -850 
L 844 -850 
Q 1081 -850 1212 -737 
Q 1344 -625 1503 -206 
L 1606 56 
L 191 3500 
L 800 3500 
L 1894 763 
L 2988 3500 
L 3597 3500 
L 2059 -325 
z
" id="DejaVuSans-79" transform="scale(0.015625)"/>
      </defs>
      <use xlink:href="#DejaVuSans-50"/>
      <use x="58.552734" xlink:href="#DejaVuSans-72"/>
      <use x="97.416016" xlink:href="#DejaVuSans-6f"/>
      <use x="158.597656" xlink:href="#DejaVuSans-62"/>
      <use x="222.074219" xlink:href="#DejaVuSans-61"/>
      <use x="283.353516" xlink:href="#DejaVuSans-62"/>
      <use x="346.830078" xlink:href="#DejaVuSans-69"/>
      <use x="374.613281" xlink:href="#DejaVuSans-6c"/>
      <use x="402.396484" xlink:href="#DejaVuSans-69"/>
      <use x="430.179688" xlink:href="#DejaVuSans-74"/>
      <use x="469.388672" xlink:href="#DejaVuSans-79"/>
     </g>
    </g>
   </g>
   <g id="PolyCollection_1">
    <defs>
     <path d="M 43.78125 -37.55625 
L 43.78125 -48.030558 
L 44.200273 -48.131995 
L 44.619297 -48.23439 
L 45.03832 -48.337735 
L 45.457344 -48.442033 
L 45.876367 -48.5473 
L 46.29539 -48.653555 
L 46.714414 -48.760783 
L 47.133437 -48.869009 
L 47.55246 -48.978238 
L 47.971484 -49.088476 
L 48.390507 -49.199734 
L 48.809531 -49.312015 
L 49.228554 -49.42534 
L 49.647577 -49.539705 
L 50.066601 -49.65512 
L 50.485634 -49.771597 
L 50.904657 -49.889153 
L 51.323681 -50.007779 
L 51.742704 -50.127498 
L 52.161728 -50.248309 
L 52.580751 -50.370231 
L 52.999774 -50.49327 
L 53.418798 -50.617427 
L 53.837821 -50.742725 
L 54.256844 -50.869162 
L 54.675868 -50.996747 
L 55.094891 -51.125497 
L 55.513915 -51.255415 
L 55.932938 -51.386517 
L 56.351961 -51.518807 
L 56.770985 -51.652296 
L 57.190008 -51.786992 
L 57.609032 -51.922914 
L 58.028055 -52.060051 
L 58.447078 -52.198436 
L 58.866102 -52.338063 
L 59.285125 -52.478949 
L 59.704148 -52.6211 
L 60.123172 -52.764532 
L 60.542205 -52.909253 
L 60.961229 -53.055266 
L 61.380252 -53.202586 
L 61.799275 -53.351223 
L 62.218299 -53.501181 
L 62.637322 -53.652486 
L 63.056345 -53.805134 
L 63.475369 -53.959142 
L 63.894392 -54.114517 
L 64.313416 -54.271268 
L 64.732439 -54.429413 
L 65.151462 -54.588949 
L 65.570486 -54.749904 
L 65.989509 -54.912272 
L 66.408532 -55.076073 
L 66.827556 -55.241318 
L 67.246579 -55.408013 
L 67.665603 -55.576175 
L 68.084626 -55.745799 
L 68.503649 -55.916915 
L 68.922673 -56.089526 
L 69.341696 -56.263644 
L 69.76072 -56.439281 
L 70.179743 -56.616439 
L 70.598776 -56.795145 
L 71.0178 -56.975393 
L 71.436823 -57.157205 
L 71.855846 -57.340581 
L 72.27487 -57.525547 
L 72.693893 -57.712098 
L 73.112917 -57.900257 
L 73.53194 -58.090035 
L 73.950963 -58.281446 
L 74.369987 -58.474481 
L 74.78901 -58.669172 
L 75.208033 -58.865523 
L 75.627057 -59.063548 
L 76.04608 -59.263246 
L 76.465104 -59.464642 
L 76.884127 -59.667748 
L 77.30315 -59.872577 
L 77.722174 -60.079121 
L 78.141197 -60.287403 
L 78.56022 -60.497449 
L 78.979244 -60.709246 
L 79.398267 -60.922821 
L 79.817291 -61.138175 
L 80.236314 -61.35532 
L 80.655347 -61.574288 
L 81.074371 -61.795068 
L 81.493394 -62.017668 
L 81.912418 -62.242123 
L 82.331441 -62.468424 
L 82.750464 -62.696584 
L 83.169488 -62.926615 
L 83.588511 -63.158545 
L 84.007534 -63.39236 
L 84.426558 -63.628087 
L 84.845581 -63.865738 
L 85.264605 -64.105315 
L 85.683628 -64.346832 
L 86.102651 -64.5903 
L 86.521675 -64.835736 
L 86.940698 -65.083147 
L 87.359721 -65.33254 
L 87.778745 -65.583936 
L 88.197768 -65.83734 
L 88.616792 -66.092762 
L 89.035815 -66.350216 
L 89.454838 -66.609715 
L 89.873862 -66.87126 
L 90.292885 -67.134862 
L 90.711908 -67.400539 
L 91.130932 -67.668298 
L 91.549955 -67.938155 
L 91.968979 -68.210109 
L 92.388002 -68.484189 
L 92.807025 -68.760377 
L 93.226049 -69.038714 
L 93.645072 -69.319203 
L 94.064106 -69.60183 
L 94.483129 -69.886642 
L 94.902152 -70.173611 
L 95.321176 -70.462766 
L 95.740199 -70.754122 
L 96.159222 -71.047689 
L 96.578246 -71.343465 
L 96.997269 -71.641464 
L 97.416293 -71.941698 
L 97.835316 -72.244177 
L 98.254339 -72.548903 
L 98.673363 -72.855884 
L 99.092386 -73.165134 
L 99.511409 -73.476663 
L 99.930433 -73.790486 
L 100.349456 -74.1066 
L 100.76848 -74.425014 
L 101.187503 -74.745756 
L 101.606526 -75.068789 
L 102.02555 -75.394177 
L 102.444573 -75.72188 
L 102.863596 -76.051942 
L 103.28262 -76.384338 
L 103.701643 -76.719101 
L 104.120677 -77.056237 
L 104.5397 -77.395746 
L 104.958723 -77.737623 
L 105.377747 -78.081869 
L 105.79677 -78.428522 
L 106.215794 -78.777588 
L 106.634817 -79.129017 
L 107.05384 -79.48289 
L 107.472864 -79.839167 
L 107.891887 -80.19786 
L 108.31091 -80.558979 
L 108.729934 -80.922519 
L 109.148957 -81.288507 
L 109.567981 -81.656929 
L 109.987004 -82.027777 
L 110.406027 -82.401082 
L 110.825051 -82.776852 
L 111.244074 -83.155052 
L 111.663097 -83.535736 
L 112.082121 -83.918845 
L 112.501144 -84.304437 
L 112.920168 -84.69249 
L 113.339191 -85.082995 
L 113.758214 -85.475983 
L 114.177248 -85.871446 
L 114.596271 -86.269369 
L 115.015294 -86.669754 
L 115.434318 -87.072626 
L 115.853341 -87.477968 
L 116.272365 -87.885767 
L 116.691388 -88.296049 
L 117.110411 -88.708774 
L 117.529435 -89.123995 
L 117.948458 -89.541668 
L 118.367482 -89.961825 
L 118.786505 -90.384421 
L 119.205528 -90.809486 
L 119.624552 -91.236995 
L 120.043575 -91.66696 
L 120.462598 -92.099378 
L 120.881622 -92.534256 
L 121.300645 -92.971543 
L 121.719669 -93.411299 
L 122.138692 -93.853468 
L 122.557715 -94.298058 
L 122.976739 -94.745065 
L 123.395762 -95.194471 
L 123.814785 -95.646294 
L 124.233819 -96.100507 
L 124.652842 -96.557101 
L 125.071866 -97.016091 
L 125.490889 -97.477426 
L 125.909912 -97.94113 
L 126.328936 -98.407206 
L 126.747959 -98.875593 
L 127.166982 -99.346313 
L 127.586006 -99.819344 
L 128.005029 -100.294712 
L 128.424053 -100.77232 
L 128.843076 -101.252226 
L 129.262099 -101.734434 
L 129.681123 -102.218837 
L 129.681123 -37.55625 
L 129.681123 -37.55625 
L 129.262099 -37.55625 
L 128.843076 -37.55625 
L 128.424053 -37.55625 
L 128.005029 -37.55625 
L 127.586006 -37.55625 
L 127.166982 -37.55625 
L 126.747959 -37.55625 
L 126.328936 -37.55625 
L 125.909912 -37.55625 
L 125.490889 -37.55625 
L 125.071866 -37.55625 
L 124.652842 -37.55625 
L 124.233819 -37.55625 
L 123.814785 -37.55625 
L 123.395762 -37.55625 
L 122.976739 -37.55625 
L 122.557715 -37.55625 
L 122.138692 -37.55625 
L 121.719669 -37.55625 
L 121.300645 -37.55625 
L 120.881622 -37.55625 
L 120.462598 -37.55625 
L 120.043575 -37.55625 
L 119.624552 -37.55625 
L 119.205528 -37.55625 
L 118.786505 -37.55625 
L 118.367482 -37.55625 
L 117.948458 -37.55625 
L 117.529435 -37.55625 
L 117.110411 -37.55625 
L 116.691388 -37.55625 
L 116.272365 -37.55625 
L 115.853341 -37.55625 
L 115.434318 -37.55625 
L 115.015294 -37.55625 
L 114.596271 -37.55625 
L 114.177248 -37.55625 
L 113.758214 -37.55625 
L 113.339191 -37.55625 
L 112.920168 -37.55625 
L 112.501144 -37.55625 
L 112.082121 -37.55625 
L 111.663097 -37.55625 
L 111.244074 -37.55625 
L 110.825051 -37.55625 
L 110.406027 -37.55625 
L 109.987004 -37.55625 
L 109.567981 -37.55625 
L 109.148957 -37.55625 
L 108.729934 -37.55625 
L 108.31091 -37.55625 
L 107.891887 -37.55625 
L 107.472864 -37.55625 
L 107.05384 -37.55625 
L 106.634817 -37.55625 
L 106.215794 -37.55625 
L 105.79677 -37.55625 
L 105.377747 -37.55625 
L 104.958723 -37.55625 
L 104.5397 -37.55625 
L 104.120677 -37.55625 
L 103.701643 -37.55625 
L 103.28262 -37.55625 
L 102.863596 -37.55625 
L 102.444573 -37.55625 
L 102.02555 -37.55625 
L 101.606526 -37.55625 
L 101.187503 -37.55625 
L 100.76848 -37.55625 
L 100.349456 -37.55625 
L 99.930433 -37.55625 
L 99.511409 -37.55625 
L 99.092386 -37.55625 
L 98.673363 -37.55625 
L 98.254339 -37.55625 
L 97.835316 -37.55625 
L 97.416293 -37.55625 
L 96.997269 -37.55625 
L 96.578246 -37.55625 
L 96.159222 -37.55625 
L 95.740199 -37.55625 
L 95.321176 -37.55625 
L 94.902152 -37.55625 
L 94.483129 -37.55625 
L 94.064106 -37.55625 
L 93.645072 -37.55625 
L 93.226049 -37.55625 
L 92.807025 -37.55625 
L 92.388002 -37.55625 
L 91.968979 -37.55625 
L 91.549955 -37.55625 
L 91.130932 -37.55625 
L 90.711908 -37.55625 
L 90.292885 -37.55625 
L 89.873862 -37.55625 
L 89.454838 -37.55625 
L 89.035815 -37.55625 
L 88.616792 -37.55625 
L 88.197768 -37.55625 
L 87.778745 -37.55625 
L 87.359721 -37.55625 
L 86.940698 -37.55625 
L 86.521675 -37.55625 
L 86.102651 -37.55625 
L 85.683628 -37.55625 
L 85.264605 -37.55625 
L 84.845581 -37.55625 
L 84.426558 -37.55625 
L 84.007534 -37.55625 
L 83.588511 -37.55625 
L 83.169488 -37.55625 
L 82.750464 -37.55625 
L 82.331441 -37.55625 
L 81.912418 -37.55625 
L 81.493394 -37.55625 
L 81.074371 -37.55625 
L 80.655347 -37.55625 
L 80.236314 -37.55625 
L 79.817291 -37.55625 
L 79.398267 -37.55625 
L 78.979244 -37.55625 
L 78.56022 -37.55625 
L 78.141197 -37.55625 
L 77.722174 -37.55625 
L 77.30315 -37.55625 
L 76.884127 -37.55625 
L 76.465104 -37.55625 
L 76.04608 -37.55625 
L 75.627057 -37.55625 
L 75.208033 -37.55625 
L 74.78901 -37.55625 
L 74.369987 -37.55625 
L 73.950963 -37.55625 
L 73.53194 -37.55625 
L 73.112917 -37.55625 
L 72.693893 -37.55625 
L 72.27487 -37.55625 
L 71.855846 -37.55625 
L 71.436823 -37.55625 
L 71.0178 -37.55625 
L 70.598776 -37.55625 
L 70.179743 -37.55625 
L 69.76072 -37.55625 
L 69.341696 -37.55625 
L 68.922673 -37.55625 
L 68.503649 -37.55625 
L 68.084626 -37.55625 
L 67.665603 -37.55625 
L 67.246579 -37.55625 
L 66.827556 -37.55625 
L 66.408532 -37.55625 
L 65.989509 -37.55625 
L 65.570486 -37.55625 
L 65.151462 -37.55625 
L 64.732439 -37.55625 
L 64.313416 -37.55625 
L 63.894392 -37.55625 
L 63.475369 -37.55625 
L 63.056345 -37.55625 
L 62.637322 -37.55625 
L 62.218299 -37.55625 
L 61.799275 -37.55625 
L 61.380252 -37.55625 
L 60.961229 -37.55625 
L 60.542205 -37.55625 
L 60.123172 -37.55625 
L 59.704148 -37.55625 
L 59.285125 -37.55625 
L 58.866102 -37.55625 
L 58.447078 -37.55625 
L 58.028055 -37.55625 
L 57.609032 -37.55625 
L 57.190008 -37.55625 
L 56.770985 -37.55625 
L 56.351961 -37.55625 
L 55.932938 -37.55625 
L 55.513915 -37.55625 
L 55.094891 -37.55625 
L 54.675868 -37.55625 
L 54.256844 -37.55625 
L 53.837821 -37.55625 
L 53.418798 -37.55625 
L 52.999774 -37.55625 
L 52.580751 -37.55625 
L 52.161728 -37.55625 
L 51.742704 -37.55625 
L 51.323681 -37.55625 
L 50.904657 -37.55625 
L 50.485634 -37.55625 
L 50.066601 -37.55625 
L 49.647577 -37.55625 
L 49.228554 -37.55625 
L 48.809531 -37.55625 
L 48.390507 -37.55625 
L 47.971484 -37.55625 
L 47.55246 -37.55625 
L 47.133437 -37.55625 
L 46.714414 -37.55625 
L 46.29539 -37.55625 
L 45.876367 -37.55625 
L 45.457344 -37.55625 
L 45.03832 -37.55625 
L 44.619297 -37.55625 
L 44.200273 -37.55625 
L 43.78125 -37.55625 
z
" id="ma83f1ea1fd" style="stroke:#1f77b4;stroke-opacity:0.5;"/>
    </defs>
    <g clip-path="url(#pc2de68d1cf)">
     <use style="fill:#1f77b4;fill-opacity:0.5;stroke:#1f77b4;stroke-opacity:0.5;" x="0" xlink:href="#ma83f1ea1fd" y="222.954375"/>
    </g>
   </g>
   <g id="PolyCollection_2">
    <defs>
     <path d="M 130.100146 -37.55625 
L 130.100146 -102.705503 
L 130.519174 -103.194405 
L 130.938198 -103.685493 
L 131.357221 -104.178764 
L 131.776245 -104.674209 
L 132.195268 -105.171793 
L 132.614291 -105.671537 
L 133.033315 -106.173371 
L 133.452338 -106.677356 
L 133.871367 -107.183379 
L 134.290385 -107.691469 
L 134.709408 -108.201583 
L 135.128432 -108.713711 
L 135.547455 -109.227846 
L 135.966478 -109.743969 
L 136.385502 -110.262009 
L 136.804525 -110.781985 
L 137.223554 -111.303851 
L 137.642577 -111.827596 
L 138.0616 -112.353182 
L 138.480624 -112.880572 
L 138.899647 -113.409782 
L 139.31867 -113.940741 
L 139.737694 -114.473433 
L 140.156717 -115.00783 
L 140.575746 -115.543897 
L 140.994769 -116.081652 
L 141.413792 -116.620962 
L 141.832816 -117.161889 
L 142.251839 -117.704345 
L 142.670862 -118.24833 
L 143.089886 -118.793799 
L 143.508909 -119.340709 
L 143.927938 -119.889042 
L 144.346956 -120.438726 
L 144.765979 -120.989753 
L 145.185003 -121.542071 
L 145.604026 -122.095679 
L 146.02305 -122.650489 
L 146.442073 -123.206483 
L 146.861096 -123.763625 
L 147.280125 -124.321899 
L 147.699148 -124.881197 
L 148.118171 -125.441521 
L 148.537195 -126.002808 
L 148.956218 -126.565023 
L 149.375242 -127.128148 
L 149.794265 -127.692103 
L 150.213288 -128.256837 
L 150.632317 -128.822339 
L 151.051335 -129.388521 
L 151.470358 -129.95534 
L 151.889382 -130.522795 
L 152.308405 -131.090771 
L 152.727429 -131.659278 
L 153.146452 -132.228217 
L 153.565475 -132.797545 
L 153.984504 -133.367254 
L 154.403527 -133.937236 
L 154.82255 -134.507465 
L 155.241574 -135.077881 
L 155.660597 -135.648402 
L 156.079621 -136.219012 
L 156.498644 -136.789657 
L 156.917667 -137.36024 
L 157.336696 -137.930726 
L 157.755719 -138.501061 
L 158.174743 -139.071176 
L 158.593766 -139.641034 
L 159.012789 -140.210522 
L 159.431813 -140.779638 
L 159.850836 -141.348295 
L 160.269859 -141.916421 
L 160.688888 -142.483973 
L 161.107906 -143.050889 
L 161.52693 -143.617089 
L 161.945953 -144.182494 
L 162.364976 -144.747068 
L 162.784 -145.310732 
L 163.203023 -145.873442 
L 163.622046 -146.435109 
L 164.041075 -146.995654 
L 164.460098 -147.555041 
L 164.879122 -148.113173 
L 165.298145 -148.670006 
L 165.298145 -37.55625 
L 165.298145 -37.55625 
L 164.879122 -37.55625 
L 164.460098 -37.55625 
L 164.041075 -37.55625 
L 163.622046 -37.55625 
L 163.203023 -37.55625 
L 162.784 -37.55625 
L 162.364976 -37.55625 
L 161.945953 -37.55625 
L 161.52693 -37.55625 
L 161.107906 -37.55625 
L 160.688888 -37.55625 
L 160.269859 -37.55625 
L 159.850836 -37.55625 
L 159.431813 -37.55625 
L 159.012789 -37.55625 
L 158.593766 -37.55625 
L 158.174743 -37.55625 
L 157.755719 -37.55625 
L 157.336696 -37.55625 
L 156.917667 -37.55625 
L 156.498644 -37.55625 
L 156.079621 -37.55625 
L 155.660597 -37.55625 
L 155.241574 -37.55625 
L 154.82255 -37.55625 
L 154.403527 -37.55625 
L 153.984504 -37.55625 
L 153.565475 -37.55625 
L 153.146452 -37.55625 
L 152.727429 -37.55625 
L 152.308405 -37.55625 
L 151.889382 -37.55625 
L 151.470358 -37.55625 
L 151.051335 -37.55625 
L 150.632317 -37.55625 
L 150.213288 -37.55625 
L 149.794265 -37.55625 
L 149.375242 -37.55625 
L 148.956218 -37.55625 
L 148.537195 -37.55625 
L 148.118171 -37.55625 
L 147.699148 -37.55625 
L 147.280125 -37.55625 
L 146.861096 -37.55625 
L 146.442073 -37.55625 
L 146.02305 -37.55625 
L 145.604026 -37.55625 
L 145.185003 -37.55625 
L 144.765979 -37.55625 
L 144.346956 -37.55625 
L 143.927938 -37.55625 
L 143.508909 -37.55625 
L 143.089886 -37.55625 
L 142.670862 -37.55625 
L 142.251839 -37.55625 
L 141.832816 -37.55625 
L 141.413792 -37.55625 
L 140.994769 -37.55625 
L 140.575746 -37.55625 
L 140.156717 -37.55625 
L 139.737694 -37.55625 
L 139.31867 -37.55625 
L 138.899647 -37.55625 
L 138.480624 -37.55625 
L 138.0616 -37.55625 
L 137.642577 -37.55625 
L 137.223554 -37.55625 
L 136.804525 -37.55625 
L 136.385502 -37.55625 
L 135.966478 -37.55625 
L 135.547455 -37.55625 
L 135.128432 -37.55625 
L 134.709408 -37.55625 
L 134.290385 -37.55625 
L 133.871367 -37.55625 
L 133.452338 -37.55625 
L 133.033315 -37.55625 
L 132.614291 -37.55625 
L 132.195268 -37.55625 
L 131.776245 -37.55625 
L 131.357221 -37.55625 
L 130.938198 -37.55625 
L 130.519174 -37.55625 
L 130.100146 -37.55625 
z
" id="m8dac915b22" style="stroke:#ff7f0e;stroke-opacity:0.5;"/>
    </defs>
    <g clip-path="url(#pc2de68d1cf)">
     <use style="fill:#ff7f0e;fill-opacity:0.5;stroke:#ff7f0e;stroke-opacity:0.5;" x="0" xlink:href="#m8dac915b22" y="222.954375"/>
    </g>
   </g>
   <g id="PolyCollection_3">
    <defs>
     <path d="M 165.717168 -37.55625 
L 165.717168 -149.225434 
L 166.136192 -149.77944 
L 166.555215 -150.331917 
L 166.974238 -150.882785 
L 167.393267 -151.432019 
L 167.81229 -151.979512 
L 168.231314 -152.525193 
L 168.650337 -153.068993 
L 169.06936 -153.610874 
L 169.488386 -154.150715 
L 169.90741 -154.688461 
L 170.326433 -155.224024 
L 170.745456 -155.757361 
L 171.16448 -156.288391 
L 171.583503 -156.816991 
L 172.002527 -157.343161 
L 172.42155 -157.866795 
L 172.840576 -158.387804 
L 173.259599 -158.90611 
L 173.678623 -159.421676 
L 174.097646 -159.934379 
L 174.516669 -160.444201 
L 174.935693 -160.951001 
L 175.354716 -161.454744 
L 175.773739 -161.955358 
L 176.192765 -162.452738 
L 176.611789 -162.946805 
L 177.030812 -163.43754 
L 177.449835 -163.924829 
L 177.868859 -164.408601 
L 178.287882 -164.888749 
L 178.706906 -165.365231 
L 179.125929 -165.837966 
L 179.544955 -166.306918 
L 179.963978 -166.771947 
L 180.383002 -167.233 
L 180.802025 -167.690023 
L 181.221048 -168.142893 
L 181.640072 -168.591592 
L 182.059095 -169.036032 
L 182.478119 -169.476098 
L 182.897144 -169.911772 
L 183.316168 -170.342956 
L 183.735191 -170.769581 
L 184.154215 -171.19155 
L 184.57324 -171.608834 
L 184.992264 -172.021312 
L 185.411287 -172.428982 
L 185.830311 -172.831722 
L 186.249336 -173.229442 
L 186.66836 -173.622152 
L 187.087383 -174.009719 
L 187.506407 -174.392099 
L 187.92543 -174.769195 
L 188.344453 -175.141006 
L 188.763477 -175.507401 
L 189.1825 -175.868316 
L 189.601526 -176.223744 
L 189.601526 -37.55625 
L 189.601526 -37.55625 
L 189.1825 -37.55625 
L 188.763477 -37.55625 
L 188.344453 -37.55625 
L 187.92543 -37.55625 
L 187.506407 -37.55625 
L 187.087383 -37.55625 
L 186.66836 -37.55625 
L 186.249336 -37.55625 
L 185.830311 -37.55625 
L 185.411287 -37.55625 
L 184.992264 -37.55625 
L 184.57324 -37.55625 
L 184.154215 -37.55625 
L 183.735191 -37.55625 
L 183.316168 -37.55625 
L 182.897144 -37.55625 
L 182.478119 -37.55625 
L 182.059095 -37.55625 
L 181.640072 -37.55625 
L 181.221048 -37.55625 
L 180.802025 -37.55625 
L 180.383002 -37.55625 
L 179.963978 -37.55625 
L 179.544955 -37.55625 
L 179.125929 -37.55625 
L 178.706906 -37.55625 
L 178.287882 -37.55625 
L 177.868859 -37.55625 
L 177.449835 -37.55625 
L 177.030812 -37.55625 
L 176.611789 -37.55625 
L 176.192765 -37.55625 
L 175.773739 -37.55625 
L 175.354716 -37.55625 
L 174.935693 -37.55625 
L 174.516669 -37.55625 
L 174.097646 -37.55625 
L 173.678623 -37.55625 
L 173.259599 -37.55625 
L 172.840576 -37.55625 
L 172.42155 -37.55625 
L 172.002527 -37.55625 
L 171.583503 -37.55625 
L 171.16448 -37.55625 
L 170.745456 -37.55625 
L 170.326433 -37.55625 
L 169.90741 -37.55625 
L 169.488386 -37.55625 
L 169.06936 -37.55625 
L 168.650337 -37.55625 
L 168.231314 -37.55625 
L 167.81229 -37.55625 
L 167.393267 -37.55625 
L 166.974238 -37.55625 
L 166.555215 -37.55625 
L 166.136192 -37.55625 
L 165.717168 -37.55625 
z
" id="md4dbbbcbbe" style="stroke:#2ca02c;stroke-opacity:0.5;"/>
    </defs>
    <g clip-path="url(#pc2de68d1cf)">
     <use style="fill:#2ca02c;fill-opacity:0.5;stroke:#2ca02c;stroke-opacity:0.5;" x="0" xlink:href="#md4dbbbcbbe" y="222.954375"/>
    </g>
   </g>
   <g id="PolyCollection_4">
    <defs>
     <path d="M 190.020549 -37.55625 
L 190.020549 -176.573561 
L 190.439573 -176.917723 
L 190.858596 -177.256176 
L 191.277621 -177.588867 
L 191.696644 -177.915709 
L 192.115669 -178.236629 
L 192.534692 -178.55163 
L 192.953716 -178.86063 
L 193.37274 -179.163524 
L 193.791764 -179.460277 
L 194.210787 -179.750879 
L 194.62981 -180.035243 
L 195.048834 -180.313297 
L 195.467858 -180.585025 
L 195.886882 -180.850354 
L 196.305905 -181.109224 
L 196.72493 -181.361608 
L 197.143953 -181.60747 
L 197.562976 -181.846723 
L 197.982001 -182.07933 
L 198.401024 -182.305266 
L 198.820049 -182.524477 
L 199.239072 -182.736919 
L 199.658096 -182.942566 
L 200.07712 -183.141355 
L 200.496144 -183.333252 
L 200.915167 -183.518239 
L 201.334191 -183.696262 
L 201.753215 -183.867296 
L 202.172239 -184.031287 
L 202.591263 -184.188226 
L 203.010287 -184.338087 
L 203.42931 -184.480799 
L 203.848334 -184.616388 
L 204.267357 -184.744794 
L 204.686381 -184.865997 
L 205.105405 -184.979973 
L 205.524429 -185.086711 
L 205.943453 -185.186176 
L 206.362476 -185.278351 
L 206.7815 -185.363245 
L 207.200524 -185.440769 
L 207.619548 -185.510985 
L 208.038572 -185.57384 
L 208.457595 -185.629335 
L 208.876619 -185.677424 
L 209.295643 -185.718161 
L 209.714667 -185.751493 
L 210.13369 -185.777446 
L 210.552714 -185.795968 
L 210.971738 -185.807084 
L 210.971738 -37.55625 
L 210.971738 -37.55625 
L 210.552714 -37.55625 
L 210.13369 -37.55625 
L 209.714667 -37.55625 
L 209.295643 -37.55625 
L 208.876619 -37.55625 
L 208.457595 -37.55625 
L 208.038572 -37.55625 
L 207.619548 -37.55625 
L 207.200524 -37.55625 
L 206.7815 -37.55625 
L 206.362476 -37.55625 
L 205.943453 -37.55625 
L 205.524429 -37.55625 
L 205.105405 -37.55625 
L 204.686381 -37.55625 
L 204.267357 -37.55625 
L 203.848334 -37.55625 
L 203.42931 -37.55625 
L 203.010287 -37.55625 
L 202.591263 -37.55625 
L 202.172239 -37.55625 
L 201.753215 -37.55625 
L 201.334191 -37.55625 
L 200.915167 -37.55625 
L 200.496144 -37.55625 
L 200.07712 -37.55625 
L 199.658096 -37.55625 
L 199.239072 -37.55625 
L 198.820049 -37.55625 
L 198.401024 -37.55625 
L 197.982001 -37.55625 
L 197.562976 -37.55625 
L 197.143953 -37.55625 
L 196.72493 -37.55625 
L 196.305905 -37.55625 
L 195.886882 -37.55625 
L 195.467858 -37.55625 
L 195.048834 -37.55625 
L 194.62981 -37.55625 
L 194.210787 -37.55625 
L 193.791764 -37.55625 
L 193.37274 -37.55625 
L 192.953716 -37.55625 
L 192.534692 -37.55625 
L 192.115669 -37.55625 
L 191.696644 -37.55625 
L 191.277621 -37.55625 
L 190.858596 -37.55625 
L 190.439573 -37.55625 
L 190.020549 -37.55625 
z
" id="m1489731fd2" style="stroke:#d62728;stroke-opacity:0.5;"/>
    </defs>
    <g clip-path="url(#pc2de68d1cf)">
     <use style="fill:#d62728;fill-opacity:0.5;stroke:#d62728;stroke-opacity:0.5;" x="0" xlink:href="#m1489731fd2" y="222.954375"/>
    </g>
   </g>
   <g id="PolyCollection_5">
    <defs>
     <path d="M 211.390762 -37.55625 
L 211.390762 -185.810795 
L 211.809785 -185.807084 
L 212.228809 -185.795968 
L 212.647833 -185.777446 
L 213.066857 -185.75151 
L 213.485881 -185.718178 
L 213.904904 -185.677459 
L 214.323928 -185.629335 
L 214.742952 -185.57384 
L 215.161976 -185.510985 
L 215.581 -185.440769 
L 216.000023 -185.363227 
L 216.419047 -185.278351 
L 216.838071 -185.186176 
L 217.257095 -185.086711 
L 217.676118 -184.979973 
L 218.095142 -184.866015 
L 218.514166 -184.744794 
L 218.933189 -184.616388 
L 219.352213 -184.480799 
L 219.771237 -184.338069 
L 220.190261 -184.188226 
L 220.609285 -184.031287 
L 221.028308 -183.867278 
L 221.447332 -183.696262 
L 221.866356 -183.518239 
L 222.28538 -183.333252 
L 222.704403 -183.141355 
L 223.123428 -182.942566 
L 223.542451 -182.736919 
L 223.961474 -182.524477 
L 224.380499 -182.305266 
L 224.799522 -182.07933 
L 225.218546 -181.846723 
L 225.63757 -181.607453 
L 226.056594 -181.361626 
L 226.475617 -181.109224 
L 226.894642 -180.850354 
L 227.313665 -180.585025 
L 227.732688 -180.313297 
L 228.151713 -180.035243 
L 228.570736 -179.750888 
L 228.989761 -179.460295 
L 229.408784 -179.163524 
L 229.827808 -178.860613 
L 230.246833 -178.55163 
L 230.665856 -178.236647 
L 231.084879 -177.9157 
L 231.503903 -177.588867 
L 231.922926 -177.256176 
L 232.341951 -176.917723 
L 232.760974 -176.573561 
L 232.760974 -37.55625 
L 232.760974 -37.55625 
L 232.341951 -37.55625 
L 231.922926 -37.55625 
L 231.503903 -37.55625 
L 231.084879 -37.55625 
L 230.665856 -37.55625 
L 230.246833 -37.55625 
L 229.827808 -37.55625 
L 229.408784 -37.55625 
L 228.989761 -37.55625 
L 228.570736 -37.55625 
L 228.151713 -37.55625 
L 227.732688 -37.55625 
L 227.313665 -37.55625 
L 226.894642 -37.55625 
L 226.475617 -37.55625 
L 226.056594 -37.55625 
L 225.63757 -37.55625 
L 225.218546 -37.55625 
L 224.799522 -37.55625 
L 224.380499 -37.55625 
L 223.961474 -37.55625 
L 223.542451 -37.55625 
L 223.123428 -37.55625 
L 222.704403 -37.55625 
L 222.28538 -37.55625 
L 221.866356 -37.55625 
L 221.447332 -37.55625 
L 221.028308 -37.55625 
L 220.609285 -37.55625 
L 220.190261 -37.55625 
L 219.771237 -37.55625 
L 219.352213 -37.55625 
L 218.933189 -37.55625 
L 218.514166 -37.55625 
L 218.095142 -37.55625 
L 217.676118 -37.55625 
L 217.257095 -37.55625 
L 216.838071 -37.55625 
L 216.419047 -37.55625 
L 216.000023 -37.55625 
L 215.581 -37.55625 
L 215.161976 -37.55625 
L 214.742952 -37.55625 
L 214.323928 -37.55625 
L 213.904904 -37.55625 
L 213.485881 -37.55625 
L 213.066857 -37.55625 
L 212.647833 -37.55625 
L 212.228809 -37.55625 
L 211.809785 -37.55625 
L 211.390762 -37.55625 
z
" id="mc86e92d64a" style="stroke:#9467bd;stroke-opacity:0.5;"/>
    </defs>
    <g clip-path="url(#pc2de68d1cf)">
     <use style="fill:#9467bd;fill-opacity:0.5;stroke:#9467bd;stroke-opacity:0.5;" x="0" xlink:href="#mc86e92d64a" y="222.954375"/>
    </g>
   </g>
   <g id="PolyCollection_6">
    <defs>
     <path d="M 233.179997 -37.55625 
L 233.179997 -176.223727 
L 233.599021 -175.868316 
L 234.018044 -175.507392 
L 234.43707 -175.141006 
L 234.856093 -174.769213 
L 235.275117 -174.392099 
L 235.69414 -174.009719 
L 236.113164 -173.622152 
L 236.532189 -173.229478 
L 236.951213 -172.831704 
L 237.370236 -172.428982 
L 237.78926 -172.021321 
L 238.208283 -171.608817 
L 238.627306 -171.19155 
L 239.04633 -170.769564 
L 239.465353 -170.342939 
L 239.884379 -169.911772 
L 240.303402 -169.476098 
L 240.722426 -169.036014 
L 241.141449 -168.591592 
L 241.560475 -168.142893 
L 241.979498 -167.690006 
L 242.398522 -167.233 
L 242.817545 -166.771947 
L 243.236571 -166.306918 
L 243.655594 -165.837992 
L 244.074618 -165.365231 
L 244.493641 -164.888749 
L 244.912665 -164.408601 
L 245.331688 -163.924829 
L 245.750711 -163.437558 
L 246.169735 -162.946831 
L 246.588761 -162.452738 
L 247.007784 -161.955349 
L 247.426807 -161.454735 
L 247.845831 -160.951001 
L 248.264854 -160.444192 
L 248.683877 -159.934397 
L 249.102901 -159.421658 
L 249.521924 -158.90611 
L 249.94095 -158.387796 
L 250.359973 -157.866777 
L 250.778997 -157.343161 
L 251.19802 -156.816991 
L 251.617044 -156.288355 
L 252.036067 -155.757361 
L 252.45509 -155.224024 
L 252.874114 -154.688443 
L 253.29314 -154.150697 
L 253.712163 -153.610856 
L 254.131186 -153.069001 
L 254.55021 -152.525193 
L 254.969233 -151.979512 
L 255.388257 -151.432019 
L 255.80728 -150.882803 
L 256.226303 -150.331917 
L 256.645327 -149.77944 
L 257.06435 -149.225443 
L 257.06435 -37.55625 
L 257.06435 -37.55625 
L 256.645327 -37.55625 
L 256.226303 -37.55625 
L 255.80728 -37.55625 
L 255.388257 -37.55625 
L 254.969233 -37.55625 
L 254.55021 -37.55625 
L 254.131186 -37.55625 
L 253.712163 -37.55625 
L 253.29314 -37.55625 
L 252.874114 -37.55625 
L 252.45509 -37.55625 
L 252.036067 -37.55625 
L 251.617044 -37.55625 
L 251.19802 -37.55625 
L 250.778997 -37.55625 
L 250.359973 -37.55625 
L 249.94095 -37.55625 
L 249.521924 -37.55625 
L 249.102901 -37.55625 
L 248.683877 -37.55625 
L 248.264854 -37.55625 
L 247.845831 -37.55625 
L 247.426807 -37.55625 
L 247.007784 -37.55625 
L 246.588761 -37.55625 
L 246.169735 -37.55625 
L 245.750711 -37.55625 
L 245.331688 -37.55625 
L 244.912665 -37.55625 
L 244.493641 -37.55625 
L 244.074618 -37.55625 
L 243.655594 -37.55625 
L 243.236571 -37.55625 
L 242.817545 -37.55625 
L 242.398522 -37.55625 
L 241.979498 -37.55625 
L 241.560475 -37.55625 
L 241.141449 -37.55625 
L 240.722426 -37.55625 
L 240.303402 -37.55625 
L 239.884379 -37.55625 
L 239.465353 -37.55625 
L 239.04633 -37.55625 
L 238.627306 -37.55625 
L 238.208283 -37.55625 
L 237.78926 -37.55625 
L 237.370236 -37.55625 
L 236.951213 -37.55625 
L 236.532189 -37.55625 
L 236.113164 -37.55625 
L 235.69414 -37.55625 
L 235.275117 -37.55625 
L 234.856093 -37.55625 
L 234.43707 -37.55625 
L 234.018044 -37.55625 
L 233.599021 -37.55625 
L 233.179997 -37.55625 
z
" id="ma74cbecda5" style="stroke:#8c564b;stroke-opacity:0.5;"/>
    </defs>
    <g clip-path="url(#pc2de68d1cf)">
     <use style="fill:#8c564b;fill-opacity:0.5;stroke:#8c564b;stroke-opacity:0.5;" x="0" xlink:href="#ma74cbecda5" y="222.954375"/>
    </g>
   </g>
   <g id="PolyCollection_7">
    <defs>
     <path d="M 257.483373 -37.55625 
L 257.483373 -148.670006 
L 257.902402 -148.113164 
L 258.321425 -147.555032 
L 258.740449 -146.995645 
L 259.159472 -146.435109 
L 259.578495 -145.873442 
L 259.997519 -145.31075 
L 260.416542 -144.747068 
L 260.835565 -144.182503 
L 261.254594 -143.617081 
L 261.673617 -143.050889 
L 262.092641 -142.483991 
L 262.511664 -141.916439 
L 262.930687 -141.348304 
L 263.349711 -140.779647 
L 263.768734 -140.210548 
L 264.187757 -139.641026 
L 264.606786 -139.071176 
L 265.025804 -138.501061 
L 265.444828 -137.930734 
L 265.863851 -137.36024 
L 266.282874 -136.789657 
L 266.701898 -136.21902 
L 267.120921 -135.648411 
L 267.539945 -135.077881 
L 267.958973 -134.507465 
L 268.377996 -133.937245 
L 268.79702 -133.367254 
L 269.216043 -132.797572 
L 269.635066 -132.228226 
L 270.05409 -131.659278 
L 270.473113 -131.090789 
L 270.892137 -130.522795 
L 271.311165 -129.955349 
L 271.730188 -129.388512 
L 272.149212 -128.82233 
L 272.568235 -128.256837 
L 272.987258 -127.692086 
L 273.406282 -127.128148 
L 273.825305 -126.565023 
L 274.244329 -126.002808 
L 274.663357 -125.441504 
L 275.082375 -124.881197 
L 275.501399 -124.32189 
L 275.920422 -123.763634 
L 276.339445 -123.206509 
L 276.758469 -122.650498 
L 277.177492 -122.095679 
L 277.596516 -121.542089 
L 278.015544 -120.989745 
L 278.434567 -120.438708 
L 278.853591 -119.889024 
L 279.272614 -119.340709 
L 279.691638 -118.793791 
L 280.110661 -118.248339 
L 280.529684 -117.704345 
L 280.948708 -117.161889 
L 281.367736 -116.620962 
L 281.786754 -116.081634 
L 282.205778 -115.543915 
L 282.624801 -115.00783 
L 283.043825 -114.473433 
L 283.462848 -113.940741 
L 283.881871 -113.409782 
L 284.300895 -112.88059 
L 284.719923 -112.353165 
L 285.138946 -111.827596 
L 285.55797 -111.303851 
L 285.976993 -110.781985 
L 286.396017 -110.262009 
L 286.81504 -109.743969 
L 287.234063 -109.227859 
L 287.653087 -108.713729 
L 288.072115 -108.201583 
L 288.491138 -107.691469 
L 288.910162 -107.183379 
L 289.329185 -106.677356 
L 289.748209 -106.173388 
L 290.167232 -105.671537 
L 290.586255 -105.17181 
L 291.005279 -104.674209 
L 291.424307 -104.178747 
L 291.843326 -103.68548 
L 292.262349 -103.194387 
L 292.681372 -102.705516 
L 292.681372 -37.55625 
L 292.681372 -37.55625 
L 292.262349 -37.55625 
L 291.843326 -37.55625 
L 291.424307 -37.55625 
L 291.005279 -37.55625 
L 290.586255 -37.55625 
L 290.167232 -37.55625 
L 289.748209 -37.55625 
L 289.329185 -37.55625 
L 288.910162 -37.55625 
L 288.491138 -37.55625 
L 288.072115 -37.55625 
L 287.653087 -37.55625 
L 287.234063 -37.55625 
L 286.81504 -37.55625 
L 286.396017 -37.55625 
L 285.976993 -37.55625 
L 285.55797 -37.55625 
L 285.138946 -37.55625 
L 284.719923 -37.55625 
L 284.300895 -37.55625 
L 283.881871 -37.55625 
L 283.462848 -37.55625 
L 283.043825 -37.55625 
L 282.624801 -37.55625 
L 282.205778 -37.55625 
L 281.786754 -37.55625 
L 281.367736 -37.55625 
L 280.948708 -37.55625 
L 280.529684 -37.55625 
L 280.110661 -37.55625 
L 279.691638 -37.55625 
L 279.272614 -37.55625 
L 278.853591 -37.55625 
L 278.434567 -37.55625 
L 278.015544 -37.55625 
L 277.596516 -37.55625 
L 277.177492 -37.55625 
L 276.758469 -37.55625 
L 276.339445 -37.55625 
L 275.920422 -37.55625 
L 275.501399 -37.55625 
L 275.082375 -37.55625 
L 274.663357 -37.55625 
L 274.244329 -37.55625 
L 273.825305 -37.55625 
L 273.406282 -37.55625 
L 272.987258 -37.55625 
L 272.568235 -37.55625 
L 272.149212 -37.55625 
L 271.730188 -37.55625 
L 271.311165 -37.55625 
L 270.892137 -37.55625 
L 270.473113 -37.55625 
L 270.05409 -37.55625 
L 269.635066 -37.55625 
L 269.216043 -37.55625 
L 268.79702 -37.55625 
L 268.377996 -37.55625 
L 267.958973 -37.55625 
L 267.539945 -37.55625 
L 267.120921 -37.55625 
L 266.701898 -37.55625 
L 266.282874 -37.55625 
L 265.863851 -37.55625 
L 265.444828 -37.55625 
L 265.025804 -37.55625 
L 264.606786 -37.55625 
L 264.187757 -37.55625 
L 263.768734 -37.55625 
L 263.349711 -37.55625 
L 262.930687 -37.55625 
L 262.511664 -37.55625 
L 262.092641 -37.55625 
L 261.673617 -37.55625 
L 261.254594 -37.55625 
L 260.835565 -37.55625 
L 260.416542 -37.55625 
L 259.997519 -37.55625 
L 259.578495 -37.55625 
L 259.159472 -37.55625 
L 258.740449 -37.55625 
L 258.321425 -37.55625 
L 257.902402 -37.55625 
L 257.483373 -37.55625 
z
" id="m8fe2bc06c6" style="stroke:#e377c2;stroke-opacity:0.5;"/>
    </defs>
    <g clip-path="url(#pc2de68d1cf)">
     <use style="fill:#e377c2;fill-opacity:0.5;stroke:#e377c2;stroke-opacity:0.5;" x="0" xlink:href="#m8fe2bc06c6" y="222.954375"/>
    </g>
   </g>
   <g id="PolyCollection_8">
    <defs>
     <path d="M 293.100396 -37.55625 
L 293.100396 -102.218855 
L 293.519419 -101.734434 
L 293.938442 -101.252244 
L 294.357466 -100.772334 
L 294.776494 -100.294695 
L 295.195518 -99.819362 
L 295.614541 -99.346313 
L 296.033564 -98.875593 
L 296.452588 -98.407206 
L 296.871611 -97.941147 
L 297.290634 -97.477439 
L 297.709658 -97.016091 
L 298.128681 -96.557115 
L 298.547705 -96.10052 
L 298.966728 -95.646294 
L 299.385751 -95.194484 
L 299.804775 -94.745065 
L 300.223798 -94.298058 
L 300.642821 -93.853468 
L 301.061845 -93.411299 
L 301.480868 -92.971556 
L 301.899902 -92.534243 
L 302.318925 -92.099391 
L 302.737948 -91.666973 
L 303.156972 -91.236995 
L 303.575995 -90.809473 
L 303.995018 -90.384407 
L 304.414042 -89.961812 
L 304.833065 -89.541668 
L 305.252089 -89.123995 
L 305.671112 -88.708774 
L 306.090135 -88.29604 
L 306.509159 -87.885767 
L 306.928182 -87.477959 
L 307.347206 -87.072626 
L 307.766229 -86.669767 
L 308.185252 -86.269369 
L 308.604276 -85.871446 
L 309.023299 -85.475992 
L 309.442322 -85.083017 
L 309.861346 -84.692503 
L 310.280369 -84.304445 
L 310.699393 -83.918858 
L 311.118416 -83.535736 
L 311.537439 -83.155061 
L 311.956473 -82.776852 
L 312.375496 -82.401091 
L 312.794519 -82.027777 
L 313.213543 -81.65692 
L 313.632566 -81.288507 
L 314.05159 -80.922519 
L 314.470613 -80.55897 
L 314.889636 -80.19786 
L 315.30866 -79.839167 
L 315.727683 -79.48289 
L 316.146706 -79.12903 
L 316.56573 -78.777574 
L 316.984753 -78.428531 
L 317.403777 -78.081877 
L 317.8228 -77.737623 
L 318.241823 -77.395737 
L 318.660847 -77.056246 
L 319.07987 -76.719114 
L 319.498894 -76.38436 
L 319.917917 -76.051951 
L 320.33694 -75.721897 
L 320.755964 -75.394185 
L 321.174987 -75.068806 
L 321.59401 -74.745756 
L 322.013044 -74.425023 
L 322.432067 -74.1066 
L 322.851091 -73.790486 
L 323.270114 -73.476672 
L 323.689137 -73.165134 
L 324.108161 -72.855884 
L 324.527184 -72.548894 
L 324.946207 -72.24417 
L 325.365231 -71.941698 
L 325.784254 -71.641464 
L 326.203278 -71.343465 
L 326.622301 -71.047689 
L 327.041324 -70.754131 
L 327.460348 -70.462775 
L 327.879371 -70.173611 
L 328.298394 -69.886634 
L 328.717418 -69.601839 
L 329.136441 -69.319203 
L 329.555465 -69.038723 
L 329.974488 -68.76039 
L 330.393511 -68.484189 
L 330.812535 -68.210118 
L 331.231558 -67.938155 
L 331.650582 -67.668305 
L 332.069615 -67.400539 
L 332.488638 -67.134856 
L 332.907662 -66.871254 
L 333.326685 -66.609709 
L 333.745708 -66.350216 
L 334.164732 -66.092768 
L 334.583755 -65.837347 
L 335.002779 -65.583945 
L 335.421802 -65.332546 
L 335.840825 -65.083154 
L 336.259849 -64.83574 
L 336.678872 -64.5903 
L 337.097895 -64.346832 
L 337.516919 -64.105309 
L 337.935942 -63.865731 
L 338.354966 -63.628087 
L 338.773989 -63.39236 
L 339.193012 -63.158538 
L 339.612036 -62.926615 
L 340.031059 -62.696577 
L 340.450082 -62.468417 
L 340.869106 -62.242117 
L 341.288129 -62.017672 
L 341.707153 -61.795061 
L 342.126176 -61.574288 
L 342.545199 -61.355331 
L 342.964223 -61.138179 
L 343.383246 -60.922821 
L 343.80227 -60.709252 
L 344.221293 -60.497449 
L 344.640316 -60.287414 
L 345.05934 -60.079126 
L 345.478373 -59.872571 
L 345.897396 -59.667753 
L 346.31642 -59.464646 
L 346.735443 -59.26325 
L 347.154467 -59.063548 
L 347.57349 -58.865523 
L 347.992513 -58.669172 
L 348.411537 -58.474481 
L 348.83056 -58.28144 
L 349.249583 -58.090035 
L 349.668607 -57.900262 
L 350.08763 -57.712098 
L 350.506654 -57.525543 
L 350.925677 -57.340581 
L 351.3447 -57.1572 
L 351.763724 -56.975393 
L 352.182747 -56.795145 
L 352.60177 -56.616443 
L 353.020794 -56.439286 
L 353.439817 -56.263648 
L 353.858841 -56.089535 
L 354.277864 -55.916924 
L 354.696887 -55.745808 
L 355.115911 -55.576175 
L 355.534944 -55.408013 
L 355.953968 -55.241318 
L 356.372991 -55.076073 
L 356.792014 -54.912272 
L 357.211038 -54.749904 
L 357.630061 -54.588953 
L 358.049084 -54.42941 
L 358.468108 -54.271268 
L 358.887131 -54.114517 
L 359.306155 -53.959142 
L 359.725178 -53.805134 
L 360.144201 -53.652486 
L 360.563225 -53.501185 
L 360.982248 -53.351219 
L 361.401271 -53.202586 
L 361.820295 -53.055263 
L 362.239318 -52.909253 
L 362.658342 -52.764535 
L 363.077365 -52.621106 
L 363.496388 -52.478952 
L 363.915412 -52.338066 
L 364.334435 -52.198439 
L 364.753458 -52.060059 
L 365.172482 -51.922914 
L 365.591515 -51.786995 
L 366.010539 -51.652296 
L 366.429562 -51.518807 
L 366.848585 -51.386517 
L 367.267609 -51.255418 
L 367.686632 -51.125497 
L 368.105656 -50.996747 
L 368.524679 -50.869159 
L 368.943702 -50.742722 
L 369.362726 -50.617427 
L 369.781749 -50.493266 
L 370.200772 -50.370231 
L 370.619796 -50.248312 
L 371.038819 -50.127496 
L 371.457843 -50.007779 
L 371.876866 -49.889149 
L 372.295889 -49.771601 
L 372.714913 -49.65512 
L 373.133936 -49.539705 
L 373.552959 -49.42534 
L 373.971983 -49.312022 
L 374.391006 -49.199737 
L 374.81003 -49.088478 
L 375.229053 -48.97824 
L 375.648086 -48.869009 
L 376.06711 -48.760785 
L 376.486133 -48.653552 
L 376.905156 -48.547304 
L 377.32418 -48.442033 
L 377.743203 -48.337729 
L 378.162227 -48.23439 
L 378.58125 -48.132001 
L 378.58125 -37.55625 
L 378.58125 -37.55625 
L 378.162227 -37.55625 
L 377.743203 -37.55625 
L 377.32418 -37.55625 
L 376.905156 -37.55625 
L 376.486133 -37.55625 
L 376.06711 -37.55625 
L 375.648086 -37.55625 
L 375.229053 -37.55625 
L 374.81003 -37.55625 
L 374.391006 -37.55625 
L 373.971983 -37.55625 
L 373.552959 -37.55625 
L 373.133936 -37.55625 
L 372.714913 -37.55625 
L 372.295889 -37.55625 
L 371.876866 -37.55625 
L 371.457843 -37.55625 
L 371.038819 -37.55625 
L 370.619796 -37.55625 
L 370.200772 -37.55625 
L 369.781749 -37.55625 
L 369.362726 -37.55625 
L 368.943702 -37.55625 
L 368.524679 -37.55625 
L 368.105656 -37.55625 
L 367.686632 -37.55625 
L 367.267609 -37.55625 
L 366.848585 -37.55625 
L 366.429562 -37.55625 
L 366.010539 -37.55625 
L 365.591515 -37.55625 
L 365.172482 -37.55625 
L 364.753458 -37.55625 
L 364.334435 -37.55625 
L 363.915412 -37.55625 
L 363.496388 -37.55625 
L 363.077365 -37.55625 
L 362.658342 -37.55625 
L 362.239318 -37.55625 
L 361.820295 -37.55625 
L 361.401271 -37.55625 
L 360.982248 -37.55625 
L 360.563225 -37.55625 
L 360.144201 -37.55625 
L 359.725178 -37.55625 
L 359.306155 -37.55625 
L 358.887131 -37.55625 
L 358.468108 -37.55625 
L 358.049084 -37.55625 
L 357.630061 -37.55625 
L 357.211038 -37.55625 
L 356.792014 -37.55625 
L 356.372991 -37.55625 
L 355.953968 -37.55625 
L 355.534944 -37.55625 
L 355.115911 -37.55625 
L 354.696887 -37.55625 
L 354.277864 -37.55625 
L 353.858841 -37.55625 
L 353.439817 -37.55625 
L 353.020794 -37.55625 
L 352.60177 -37.55625 
L 352.182747 -37.55625 
L 351.763724 -37.55625 
L 351.3447 -37.55625 
L 350.925677 -37.55625 
L 350.506654 -37.55625 
L 350.08763 -37.55625 
L 349.668607 -37.55625 
L 349.249583 -37.55625 
L 348.83056 -37.55625 
L 348.411537 -37.55625 
L 347.992513 -37.55625 
L 347.57349 -37.55625 
L 347.154467 -37.55625 
L 346.735443 -37.55625 
L 346.31642 -37.55625 
L 345.897396 -37.55625 
L 345.478373 -37.55625 
L 345.05934 -37.55625 
L 344.640316 -37.55625 
L 344.221293 -37.55625 
L 343.80227 -37.55625 
L 343.383246 -37.55625 
L 342.964223 -37.55625 
L 342.545199 -37.55625 
L 342.126176 -37.55625 
L 341.707153 -37.55625 
L 341.288129 -37.55625 
L 340.869106 -37.55625 
L 340.450082 -37.55625 
L 340.031059 -37.55625 
L 339.612036 -37.55625 
L 339.193012 -37.55625 
L 338.773989 -37.55625 
L 338.354966 -37.55625 
L 337.935942 -37.55625 
L 337.516919 -37.55625 
L 337.097895 -37.55625 
L 336.678872 -37.55625 
L 336.259849 -37.55625 
L 335.840825 -37.55625 
L 335.421802 -37.55625 
L 335.002779 -37.55625 
L 334.583755 -37.55625 
L 334.164732 -37.55625 
L 333.745708 -37.55625 
L 333.326685 -37.55625 
L 332.907662 -37.55625 
L 332.488638 -37.55625 
L 332.069615 -37.55625 
L 331.650582 -37.55625 
L 331.231558 -37.55625 
L 330.812535 -37.55625 
L 330.393511 -37.55625 
L 329.974488 -37.55625 
L 329.555465 -37.55625 
L 329.136441 -37.55625 
L 328.717418 -37.55625 
L 328.298394 -37.55625 
L 327.879371 -37.55625 
L 327.460348 -37.55625 
L 327.041324 -37.55625 
L 326.622301 -37.55625 
L 326.203278 -37.55625 
L 325.784254 -37.55625 
L 325.365231 -37.55625 
L 324.946207 -37.55625 
L 324.527184 -37.55625 
L 324.108161 -37.55625 
L 323.689137 -37.55625 
L 323.270114 -37.55625 
L 322.851091 -37.55625 
L 322.432067 -37.55625 
L 322.013044 -37.55625 
L 321.59401 -37.55625 
L 321.174987 -37.55625 
L 320.755964 -37.55625 
L 320.33694 -37.55625 
L 319.917917 -37.55625 
L 319.498894 -37.55625 
L 319.07987 -37.55625 
L 318.660847 -37.55625 
L 318.241823 -37.55625 
L 317.8228 -37.55625 
L 317.403777 -37.55625 
L 316.984753 -37.55625 
L 316.56573 -37.55625 
L 316.146706 -37.55625 
L 315.727683 -37.55625 
L 315.30866 -37.55625 
L 314.889636 -37.55625 
L 314.470613 -37.55625 
L 314.05159 -37.55625 
L 313.632566 -37.55625 
L 313.213543 -37.55625 
L 312.794519 -37.55625 
L 312.375496 -37.55625 
L 311.956473 -37.55625 
L 311.537439 -37.55625 
L 311.118416 -37.55625 
L 310.699393 -37.55625 
L 310.280369 -37.55625 
L 309.861346 -37.55625 
L 309.442322 -37.55625 
L 309.023299 -37.55625 
L 308.604276 -37.55625 
L 308.185252 -37.55625 
L 307.766229 -37.55625 
L 307.347206 -37.55625 
L 306.928182 -37.55625 
L 306.509159 -37.55625 
L 306.090135 -37.55625 
L 305.671112 -37.55625 
L 305.252089 -37.55625 
L 304.833065 -37.55625 
L 304.414042 -37.55625 
L 303.995018 -37.55625 
L 303.575995 -37.55625 
L 303.156972 -37.55625 
L 302.737948 -37.55625 
L 302.318925 -37.55625 
L 301.899902 -37.55625 
L 301.480868 -37.55625 
L 301.061845 -37.55625 
L 300.642821 -37.55625 
L 300.223798 -37.55625 
L 299.804775 -37.55625 
L 299.385751 -37.55625 
L 298.966728 -37.55625 
L 298.547705 -37.55625 
L 298.128681 -37.55625 
L 297.709658 -37.55625 
L 297.290634 -37.55625 
L 296.871611 -37.55625 
L 296.452588 -37.55625 
L 296.033564 -37.55625 
L 295.614541 -37.55625 
L 295.195518 -37.55625 
L 294.776494 -37.55625 
L 294.357466 -37.55625 
L 293.938442 -37.55625 
L 293.519419 -37.55625 
L 293.100396 -37.55625 
z
" id="md213cf5f60" style="stroke:#7f7f7f;stroke-opacity:0.5;"/>
    </defs>
    <g clip-path="url(#pc2de68d1cf)">
     <use style="fill:#7f7f7f;fill-opacity:0.5;stroke:#7f7f7f;stroke-opacity:0.5;" x="0" xlink:href="#md213cf5f60" y="222.954375"/>
    </g>
   </g>
   <g id="line2d_1">
    <path clip-path="url(#pc2de68d1cf)" d="M 43.78125 185.398125 
L 43.78125 174.923817 
" style="fill:none;stroke:#1f77b4;stroke-linecap:round;stroke-width:1.5;"/>
   </g>
   <g id="line2d_2">
    <path clip-path="url(#pc2de68d1cf)" d="M 129.681123 185.398125 
L 129.681123 120.735538 
" style="fill:none;stroke:#1f77b4;stroke-linecap:round;stroke-width:1.5;"/>
   </g>
   <g id="line2d_3">
    <path clip-path="url(#pc2de68d1cf)" d="M 130.100146 185.398125 
L 130.100146 120.248872 
" style="fill:none;stroke:#ff7f0e;stroke-linecap:round;stroke-width:1.5;"/>
   </g>
   <g id="line2d_4">
    <path clip-path="url(#pc2de68d1cf)" d="M 165.298145 185.398125 
L 165.298145 74.284369 
" style="fill:none;stroke:#ff7f0e;stroke-linecap:round;stroke-width:1.5;"/>
   </g>
   <g id="line2d_5">
    <path clip-path="url(#pc2de68d1cf)" d="M 165.717168 185.398125 
L 165.717168 73.728941 
" style="fill:none;stroke:#2ca02c;stroke-linecap:round;stroke-width:1.5;"/>
   </g>
   <g id="line2d_6">
    <path clip-path="url(#pc2de68d1cf)" d="M 189.601526 185.398125 
L 189.601526 46.730631 
" style="fill:none;stroke:#2ca02c;stroke-linecap:round;stroke-width:1.5;"/>
   </g>
   <g id="line2d_7">
    <path clip-path="url(#pc2de68d1cf)" d="M 190.020549 185.398125 
L 190.020549 46.380814 
" style="fill:none;stroke:#d62728;stroke-linecap:round;stroke-width:1.5;"/>
   </g>
   <g id="line2d_8">
    <path clip-path="url(#pc2de68d1cf)" d="M 210.971738 185.398125 
L 210.971738 37.147291 
" style="fill:none;stroke:#d62728;stroke-linecap:round;stroke-width:1.5;"/>
   </g>
   <g id="line2d_9">
    <path clip-path="url(#pc2de68d1cf)" d="M 211.390762 185.398125 
L 211.390762 37.14358 
" style="fill:none;stroke:#9467bd;stroke-linecap:round;stroke-width:1.5;"/>
   </g>
   <g id="line2d_10">
    <path clip-path="url(#pc2de68d1cf)" d="M 232.760974 185.398125 
L 232.760974 46.380814 
" style="fill:none;stroke:#9467bd;stroke-linecap:round;stroke-width:1.5;"/>
   </g>
   <g id="line2d_11">
    <path clip-path="url(#pc2de68d1cf)" d="M 233.179997 185.398125 
L 233.179997 46.730648 
" style="fill:none;stroke:#8c564b;stroke-linecap:round;stroke-width:1.5;"/>
   </g>
   <g id="line2d_12">
    <path clip-path="url(#pc2de68d1cf)" d="M 257.06435 185.398125 
L 257.06435 73.728932 
" style="fill:none;stroke:#8c564b;stroke-linecap:round;stroke-width:1.5;"/>
   </g>
   <g id="line2d_13">
    <path clip-path="url(#pc2de68d1cf)" d="M 257.483373 185.398125 
L 257.483373 74.284369 
" style="fill:none;stroke:#e377c2;stroke-linecap:round;stroke-width:1.5;"/>
   </g>
   <g id="line2d_14">
    <path clip-path="url(#pc2de68d1cf)" d="M 292.681372 185.398125 
L 292.681372 120.248859 
" style="fill:none;stroke:#e377c2;stroke-linecap:round;stroke-width:1.5;"/>
   </g>
   <g id="line2d_15">
    <path clip-path="url(#pc2de68d1cf)" d="M 293.100396 185.398125 
L 293.100396 120.73552 
" style="fill:none;stroke:#7f7f7f;stroke-linecap:round;stroke-width:1.5;"/>
   </g>
   <g id="line2d_16">
    <path clip-path="url(#pc2de68d1cf)" d="M 378.58125 185.398125 
L 378.58125 174.822374 
" style="fill:none;stroke:#7f7f7f;stroke-linecap:round;stroke-width:1.5;"/>
   </g>
   <g id="line2d_17">
    <path clip-path="url(#pc2de68d1cf)" d="M 43.78125 174.923817 
L 50.066601 173.299255 
L 55.932938 171.567858 
L 61.799275 169.603152 
L 67.246579 167.546362 
L 72.693893 165.242277 
L 77.722174 162.875254 
L 82.750464 160.257791 
L 87.359721 157.621835 
L 91.968979 154.744266 
L 96.578246 151.61091 
L 101.187503 148.208619 
L 105.79677 144.525853 
L 110.406027 140.553293 
L 115.015294 136.284621 
L 119.624552 131.71738 
L 124.233819 126.853868 
L 129.262099 121.219941 
L 134.290385 115.262906 
L 140.156717 107.946545 
L 146.861096 99.19075 
L 156.079621 86.735363 
L 166.974238 72.07159 
L 172.42155 65.08758 
L 177.030812 59.516835 
L 181.221048 54.811482 
L 184.992264 50.933063 
L 188.344453 47.813369 
L 191.277621 45.365508 
L 194.210787 43.203496 
L 197.143953 41.346905 
L 199.658096 40.011809 
L 202.172239 38.923088 
L 204.686381 38.088378 
L 207.200524 37.513606 
L 209.714667 37.202882 
L 212.228809 37.158407 
L 214.742952 37.380535 
L 217.257095 37.867664 
L 219.771237 38.616306 
L 222.28538 39.621123 
L 224.799522 40.875045 
L 227.313665 42.36935 
L 230.246833 44.402745 
L 233.179997 46.730648 
L 236.113164 49.332223 
L 239.465353 52.611436 
L 243.236571 56.647457 
L 247.426807 61.49964 
L 252.036067 67.197014 
L 257.902402 74.841211 
L 266.701898 86.735355 
L 278.015544 101.96463 
L 284.719923 110.60121 
L 290.586255 117.782565 
L 295.614541 123.608062 
L 300.642821 129.100907 
L 305.671112 134.245601 
L 310.280369 138.64993 
L 314.889636 142.756515 
L 319.498894 146.570015 
L 324.108161 150.098491 
L 328.717418 153.352536 
L 333.326685 156.344666 
L 337.935942 159.088644 
L 342.964223 161.816196 
L 347.992513 164.285203 
L 353.020794 166.515089 
L 358.468108 168.683107 
L 363.915412 170.616309 
L 369.781749 172.461109 
L 376.06711 174.19359 
L 378.58125 174.822374 
L 378.58125 174.822374 
" style="fill:none;stroke:#000000;stroke-linecap:round;stroke-width:1.5;"/>
   </g>
   <g id="patch_3">
    <path d="M 43.78125 185.398125 
L 43.78125 22.318125 
" style="fill:none;stroke:#262626;stroke-linecap:square;stroke-linejoin:miter;stroke-width:0.8;"/>
   </g>
   <g id="patch_4">
    <path d="M 378.58125 185.398125 
L 378.58125 22.318125 
" style="fill:none;stroke:#262626;stroke-linecap:square;stroke-linejoin:miter;stroke-width:0.8;"/>
   </g>
   <g id="patch_5">
    <path d="M 43.78125 185.398125 
L 378.58125 185.398125 
" style="fill:none;stroke:#262626;stroke-linecap:square;stroke-linejoin:miter;stroke-width:0.8;"/>
   </g>
   <g id="patch_6">
    <path d="M 43.78125 22.318125 
L 378.58125 22.318125 
" style="fill:none;stroke:#262626;stroke-linecap:square;stroke-linejoin:miter;stroke-width:0.8;"/>
   </g>
   <g id="text_17">
    <!-- Dequantization distribution for 8 discrete values -->
    <g style="fill:#262626;" transform="translate(66.164062 16.318125)scale(0.12 -0.12)">
     <defs>
      <path d="M 1259 4147 
L 1259 519 
L 2022 519 
Q 2988 519 3436 956 
Q 3884 1394 3884 2338 
Q 3884 3275 3436 3711 
Q 2988 4147 2022 4147 
L 1259 4147 
z
M 628 4666 
L 1925 4666 
Q 3281 4666 3915 4102 
Q 4550 3538 4550 2338 
Q 4550 1131 3912 565 
Q 3275 0 1925 0 
L 628 0 
L 628 4666 
z
" id="DejaVuSans-44" transform="scale(0.015625)"/>
      <path d="M 3597 1894 
L 3597 1613 
L 953 1613 
Q 991 1019 1311 708 
Q 1631 397 2203 397 
Q 2534 397 2845 478 
Q 3156 559 3463 722 
L 3463 178 
Q 3153 47 2828 -22 
Q 2503 -91 2169 -91 
Q 1331 -91 842 396 
Q 353 884 353 1716 
Q 353 2575 817 3079 
Q 1281 3584 2069 3584 
Q 2775 3584 3186 3129 
Q 3597 2675 3597 1894 
z
M 3022 2063 
Q 3016 2534 2758 2815 
Q 2500 3097 2075 3097 
Q 1594 3097 1305 2825 
Q 1016 2553 972 2059 
L 3022 2063 
z
" id="DejaVuSans-65" transform="scale(0.015625)"/>
      <path d="M 947 1747 
Q 947 1113 1208 752 
Q 1469 391 1925 391 
Q 2381 391 2643 752 
Q 2906 1113 2906 1747 
Q 2906 2381 2643 2742 
Q 2381 3103 1925 3103 
Q 1469 3103 1208 2742 
Q 947 2381 947 1747 
z
M 2906 525 
Q 2725 213 2448 61 
Q 2172 -91 1784 -91 
Q 1150 -91 751 415 
Q 353 922 353 1747 
Q 353 2572 751 3078 
Q 1150 3584 1784 3584 
Q 2172 3584 2448 3432 
Q 2725 3281 2906 2969 
L 2906 3500 
L 3481 3500 
L 3481 -1331 
L 2906 -1331 
L 2906 525 
z
" id="DejaVuSans-71" transform="scale(0.015625)"/>
      <path d="M 544 1381 
L 544 3500 
L 1119 3500 
L 1119 1403 
Q 1119 906 1312 657 
Q 1506 409 1894 409 
Q 2359 409 2629 706 
Q 2900 1003 2900 1516 
L 2900 3500 
L 3475 3500 
L 3475 0 
L 2900 0 
L 2900 538 
Q 2691 219 2414 64 
Q 2138 -91 1772 -91 
Q 1169 -91 856 284 
Q 544 659 544 1381 
z
M 1991 3584 
L 1991 3584 
z
" id="DejaVuSans-75" transform="scale(0.015625)"/>
      <path d="M 3513 2113 
L 3513 0 
L 2938 0 
L 2938 2094 
Q 2938 2591 2744 2837 
Q 2550 3084 2163 3084 
Q 1697 3084 1428 2787 
Q 1159 2491 1159 1978 
L 1159 0 
L 581 0 
L 581 3500 
L 1159 3500 
L 1159 2956 
Q 1366 3272 1645 3428 
Q 1925 3584 2291 3584 
Q 2894 3584 3203 3211 
Q 3513 2838 3513 2113 
z
" id="DejaVuSans-6e" transform="scale(0.015625)"/>
      <path id="DejaVuSans-20" transform="scale(0.015625)"/>
      <path d="M 2906 2969 
L 2906 4863 
L 3481 4863 
L 3481 0 
L 2906 0 
L 2906 525 
Q 2725 213 2448 61 
Q 2172 -91 1784 -91 
Q 1150 -91 751 415 
Q 353 922 353 1747 
Q 353 2572 751 3078 
Q 1150 3584 1784 3584 
Q 2172 3584 2448 3432 
Q 2725 3281 2906 2969 
z
M 947 1747 
Q 947 1113 1208 752 
Q 1469 391 1925 391 
Q 2381 391 2643 752 
Q 2906 1113 2906 1747 
Q 2906 2381 2643 2742 
Q 2381 3103 1925 3103 
Q 1469 3103 1208 2742 
Q 947 2381 947 1747 
z
" id="DejaVuSans-64" transform="scale(0.015625)"/>
      <path d="M 2834 3397 
L 2834 2853 
Q 2591 2978 2328 3040 
Q 2066 3103 1784 3103 
Q 1356 3103 1142 2972 
Q 928 2841 928 2578 
Q 928 2378 1081 2264 
Q 1234 2150 1697 2047 
L 1894 2003 
Q 2506 1872 2764 1633 
Q 3022 1394 3022 966 
Q 3022 478 2636 193 
Q 2250 -91 1575 -91 
Q 1294 -91 989 -36 
Q 684 19 347 128 
L 347 722 
Q 666 556 975 473 
Q 1284 391 1588 391 
Q 1994 391 2212 530 
Q 2431 669 2431 922 
Q 2431 1156 2273 1281 
Q 2116 1406 1581 1522 
L 1381 1569 
Q 847 1681 609 1914 
Q 372 2147 372 2553 
Q 372 3047 722 3315 
Q 1072 3584 1716 3584 
Q 2034 3584 2315 3537 
Q 2597 3491 2834 3397 
z
" id="DejaVuSans-73" transform="scale(0.015625)"/>
      <path d="M 2375 4863 
L 2375 4384 
L 1825 4384 
Q 1516 4384 1395 4259 
Q 1275 4134 1275 3809 
L 1275 3500 
L 2222 3500 
L 2222 3053 
L 1275 3053 
L 1275 0 
L 697 0 
L 697 3053 
L 147 3053 
L 147 3500 
L 697 3500 
L 697 3744 
Q 697 4328 969 4595 
Q 1241 4863 1831 4863 
L 2375 4863 
z
" id="DejaVuSans-66" transform="scale(0.015625)"/>
      <path d="M 2034 2216 
Q 1584 2216 1326 1975 
Q 1069 1734 1069 1313 
Q 1069 891 1326 650 
Q 1584 409 2034 409 
Q 2484 409 2743 651 
Q 3003 894 3003 1313 
Q 3003 1734 2745 1975 
Q 2488 2216 2034 2216 
z
M 1403 2484 
Q 997 2584 770 2862 
Q 544 3141 544 3541 
Q 544 4100 942 4425 
Q 1341 4750 2034 4750 
Q 2731 4750 3128 4425 
Q 3525 4100 3525 3541 
Q 3525 3141 3298 2862 
Q 3072 2584 2669 2484 
Q 3125 2378 3379 2068 
Q 3634 1759 3634 1313 
Q 3634 634 3220 271 
Q 2806 -91 2034 -91 
Q 1263 -91 848 271 
Q 434 634 434 1313 
Q 434 1759 690 2068 
Q 947 2378 1403 2484 
z
M 1172 3481 
Q 1172 3119 1398 2916 
Q 1625 2713 2034 2713 
Q 2441 2713 2670 2916 
Q 2900 3119 2900 3481 
Q 2900 3844 2670 4047 
Q 2441 4250 2034 4250 
Q 1625 4250 1398 4047 
Q 1172 3844 1172 3481 
z
" id="DejaVuSans-38" transform="scale(0.015625)"/>
      <path d="M 3122 3366 
L 3122 2828 
Q 2878 2963 2633 3030 
Q 2388 3097 2138 3097 
Q 1578 3097 1268 2742 
Q 959 2388 959 1747 
Q 959 1106 1268 751 
Q 1578 397 2138 397 
Q 2388 397 2633 464 
Q 2878 531 3122 666 
L 3122 134 
Q 2881 22 2623 -34 
Q 2366 -91 2075 -91 
Q 1284 -91 818 406 
Q 353 903 353 1747 
Q 353 2603 823 3093 
Q 1294 3584 2113 3584 
Q 2378 3584 2631 3529 
Q 2884 3475 3122 3366 
z
" id="DejaVuSans-63" transform="scale(0.015625)"/>
      <path d="M 191 3500 
L 800 3500 
L 1894 563 
L 2988 3500 
L 3597 3500 
L 2284 0 
L 1503 0 
L 191 3500 
z
" id="DejaVuSans-76" transform="scale(0.015625)"/>
     </defs>
     <use xlink:href="#DejaVuSans-44"/>
     <use x="77.001953" xlink:href="#DejaVuSans-65"/>
     <use x="138.525391" xlink:href="#DejaVuSans-71"/>
     <use x="202.001953" xlink:href="#DejaVuSans-75"/>
     <use x="265.380859" xlink:href="#DejaVuSans-61"/>
     <use x="326.660156" xlink:href="#DejaVuSans-6e"/>
     <use x="390.039062" xlink:href="#DejaVuSans-74"/>
     <use x="429.248047" xlink:href="#DejaVuSans-69"/>
     <use x="457.03125" xlink:href="#DejaVuSans-7a"/>
     <use x="509.521484" xlink:href="#DejaVuSans-61"/>
     <use x="570.800781" xlink:href="#DejaVuSans-74"/>
     <use x="610.009766" xlink:href="#DejaVuSans-69"/>
     <use x="637.792969" xlink:href="#DejaVuSans-6f"/>
     <use x="698.974609" xlink:href="#DejaVuSans-6e"/>
     <use x="762.353516" xlink:href="#DejaVuSans-20"/>
     <use x="794.140625" xlink:href="#DejaVuSans-64"/>
     <use x="857.617188" xlink:href="#DejaVuSans-69"/>
     <use x="885.400391" xlink:href="#DejaVuSans-73"/>
     <use x="937.5" xlink:href="#DejaVuSans-74"/>
     <use x="976.708984" xlink:href="#DejaVuSans-72"/>
     <use x="1017.822266" xlink:href="#DejaVuSans-69"/>
     <use x="1045.605469" xlink:href="#DejaVuSans-62"/>
     <use x="1109.082031" xlink:href="#DejaVuSans-75"/>
     <use x="1172.460938" xlink:href="#DejaVuSans-74"/>
     <use x="1211.669922" xlink:href="#DejaVuSans-69"/>
     <use x="1239.453125" xlink:href="#DejaVuSans-6f"/>
     <use x="1300.634766" xlink:href="#DejaVuSans-6e"/>
     <use x="1364.013672" xlink:href="#DejaVuSans-20"/>
     <use x="1395.800781" xlink:href="#DejaVuSans-66"/>
     <use x="1431.005859" xlink:href="#DejaVuSans-6f"/>
     <use x="1492.1875" xlink:href="#DejaVuSans-72"/>
     <use x="1533.300781" xlink:href="#DejaVuSans-20"/>
     <use x="1565.087891" xlink:href="#DejaVuSans-38"/>
     <use x="1628.710938" xlink:href="#DejaVuSans-20"/>
     <use x="1660.498047" xlink:href="#DejaVuSans-64"/>
     <use x="1723.974609" xlink:href="#DejaVuSans-69"/>
     <use x="1751.757812" xlink:href="#DejaVuSans-73"/>
     <use x="1803.857422" xlink:href="#DejaVuSans-63"/>
     <use x="1858.837891" xlink:href="#DejaVuSans-72"/>
     <use x="1897.701172" xlink:href="#DejaVuSans-65"/>
     <use x="1959.224609" xlink:href="#DejaVuSans-74"/>
     <use x="1998.433594" xlink:href="#DejaVuSans-65"/>
     <use x="2059.957031" xlink:href="#DejaVuSans-20"/>
     <use x="2091.744141" xlink:href="#DejaVuSans-76"/>
     <use x="2150.923828" xlink:href="#DejaVuSans-61"/>
     <use x="2212.203125" xlink:href="#DejaVuSans-6c"/>
     <use x="2239.986328" xlink:href="#DejaVuSans-75"/>
     <use x="2303.365234" xlink:href="#DejaVuSans-65"/>
     <use x="2364.888672" xlink:href="#DejaVuSans-73"/>
    </g>
   </g>
   <g id="legend_1">
    <g id="patch_7">
     <path d="M 333.21875 147.743125 
L 371.58125 147.743125 
Q 373.58125 147.743125 373.58125 145.743125 
L 373.58125 29.318125 
Q 373.58125 27.318125 371.58125 27.318125 
L 333.21875 27.318125 
Q 331.21875 27.318125 331.21875 29.318125 
L 331.21875 145.743125 
Q 331.21875 147.743125 333.21875 147.743125 
z
" style="fill:#ffffff;opacity:0.8;stroke:#cccccc;stroke-linejoin:miter;"/>
    </g>
    <g id="patch_8">
     <path d="M 335.21875 38.916562 
L 355.21875 38.916562 
L 355.21875 31.916562 
L 335.21875 31.916562 
z
" style="fill:#1f77b4;fill-opacity:0.5;stroke:#1f77b4;stroke-linejoin:miter;stroke-opacity:0.5;"/>
    </g>
    <g id="text_18">
     <!-- 0 -->
     <g style="fill:#262626;" transform="translate(363.21875 38.916562)scale(0.1 -0.1)">
      <use xlink:href="#DejaVuSans-30"/>
     </g>
    </g>
    <g id="patch_9">
     <path d="M 335.21875 53.594687 
L 355.21875 53.594687 
L 355.21875 46.594687 
L 335.21875 46.594687 
z
" style="fill:#ff7f0e;fill-opacity:0.5;stroke:#ff7f0e;stroke-linejoin:miter;stroke-opacity:0.5;"/>
    </g>
    <g id="text_19">
     <!-- 1 -->
     <g style="fill:#262626;" transform="translate(363.21875 53.594687)scale(0.1 -0.1)">
      <use xlink:href="#DejaVuSans-31"/>
     </g>
    </g>
    <g id="patch_10">
     <path d="M 335.21875 68.272812 
L 355.21875 68.272812 
L 355.21875 61.272812 
L 335.21875 61.272812 
z
" style="fill:#2ca02c;fill-opacity:0.5;stroke:#2ca02c;stroke-linejoin:miter;stroke-opacity:0.5;"/>
    </g>
    <g id="text_20">
     <!-- 2 -->
     <g style="fill:#262626;" transform="translate(363.21875 68.272812)scale(0.1 -0.1)">
      <use xlink:href="#DejaVuSans-32"/>
     </g>
    </g>
    <g id="patch_11">
     <path d="M 335.21875 82.950937 
L 355.21875 82.950937 
L 355.21875 75.950937 
L 335.21875 75.950937 
z
" style="fill:#d62728;fill-opacity:0.5;stroke:#d62728;stroke-linejoin:miter;stroke-opacity:0.5;"/>
    </g>
    <g id="text_21">
     <!-- 3 -->
     <g style="fill:#262626;" transform="translate(363.21875 82.950937)scale(0.1 -0.1)">
      <defs>
       <path d="M 2597 2516 
Q 3050 2419 3304 2112 
Q 3559 1806 3559 1356 
Q 3559 666 3084 287 
Q 2609 -91 1734 -91 
Q 1441 -91 1130 -33 
Q 819 25 488 141 
L 488 750 
Q 750 597 1062 519 
Q 1375 441 1716 441 
Q 2309 441 2620 675 
Q 2931 909 2931 1356 
Q 2931 1769 2642 2001 
Q 2353 2234 1838 2234 
L 1294 2234 
L 1294 2753 
L 1863 2753 
Q 2328 2753 2575 2939 
Q 2822 3125 2822 3475 
Q 2822 3834 2567 4026 
Q 2313 4219 1838 4219 
Q 1578 4219 1281 4162 
Q 984 4106 628 3988 
L 628 4550 
Q 988 4650 1302 4700 
Q 1616 4750 1894 4750 
Q 2613 4750 3031 4423 
Q 3450 4097 3450 3541 
Q 3450 3153 3228 2886 
Q 3006 2619 2597 2516 
z
" id="DejaVuSans-33" transform="scale(0.015625)"/>
      </defs>
      <use xlink:href="#DejaVuSans-33"/>
     </g>
    </g>
    <g id="patch_12">
     <path d="M 335.21875 97.629062 
L 355.21875 97.629062 
L 355.21875 90.629062 
L 335.21875 90.629062 
z
" style="fill:#9467bd;fill-opacity:0.5;stroke:#9467bd;stroke-linejoin:miter;stroke-opacity:0.5;"/>
    </g>
    <g id="text_22">
     <!-- 4 -->
     <g style="fill:#262626;" transform="translate(363.21875 97.629062)scale(0.1 -0.1)">
      <use xlink:href="#DejaVuSans-34"/>
     </g>
    </g>
    <g id="patch_13">
     <path d="M 335.21875 112.307187 
L 355.21875 112.307187 
L 355.21875 105.307187 
L 335.21875 105.307187 
z
" style="fill:#8c564b;fill-opacity:0.5;stroke:#8c564b;stroke-linejoin:miter;stroke-opacity:0.5;"/>
    </g>
    <g id="text_23">
     <!-- 5 -->
     <g style="fill:#262626;" transform="translate(363.21875 112.307187)scale(0.1 -0.1)">
      <use xlink:href="#DejaVuSans-35"/>
     </g>
    </g>
    <g id="patch_14">
     <path d="M 335.21875 126.985312 
L 355.21875 126.985312 
L 355.21875 119.985312 
L 335.21875 119.985312 
z
" style="fill:#e377c2;fill-opacity:0.5;stroke:#e377c2;stroke-linejoin:miter;stroke-opacity:0.5;"/>
    </g>
    <g id="text_24">
     <!-- 6 -->
     <g style="fill:#262626;" transform="translate(363.21875 126.985312)scale(0.1 -0.1)">
      <defs>
       <path d="M 2113 2584 
Q 1688 2584 1439 2293 
Q 1191 2003 1191 1497 
Q 1191 994 1439 701 
Q 1688 409 2113 409 
Q 2538 409 2786 701 
Q 3034 994 3034 1497 
Q 3034 2003 2786 2293 
Q 2538 2584 2113 2584 
z
M 3366 4563 
L 3366 3988 
Q 3128 4100 2886 4159 
Q 2644 4219 2406 4219 
Q 1781 4219 1451 3797 
Q 1122 3375 1075 2522 
Q 1259 2794 1537 2939 
Q 1816 3084 2150 3084 
Q 2853 3084 3261 2657 
Q 3669 2231 3669 1497 
Q 3669 778 3244 343 
Q 2819 -91 2113 -91 
Q 1303 -91 875 529 
Q 447 1150 447 2328 
Q 447 3434 972 4092 
Q 1497 4750 2381 4750 
Q 2619 4750 2861 4703 
Q 3103 4656 3366 4563 
z
" id="DejaVuSans-36" transform="scale(0.015625)"/>
      </defs>
      <use xlink:href="#DejaVuSans-36"/>
     </g>
    </g>
    <g id="patch_15">
     <path d="M 335.21875 141.663437 
L 355.21875 141.663437 
L 355.21875 134.663437 
L 335.21875 134.663437 
z
" style="fill:#7f7f7f;fill-opacity:0.5;stroke:#7f7f7f;stroke-linejoin:miter;stroke-opacity:0.5;"/>
    </g>
    <g id="text_25">
     <!-- 7 -->
     <g style="fill:#262626;" transform="translate(363.21875 141.663437)scale(0.1 -0.1)">
      <defs>
       <path d="M 525 4666 
L 3525 4666 
L 3525 4397 
L 1831 0 
L 1172 0 
L 2766 4134 
L 525 4134 
L 525 4666 
z
" id="DejaVuSans-37" transform="scale(0.015625)"/>
      </defs>
      <use xlink:href="#DejaVuSans-37"/>
     </g>
    </g>
   </g>
  </g>
 </g>
 <defs>
  <clipPath id="pc2de68d1cf">
   <rect height="163.08" width="334.8" x="43.78125" y="22.318125"/>
  </clipPath>
 </defs>
</svg>
